<?xml version="1.0" encoding="UTF-8"?>
<svg fill="currentColor" id="svg" xmlns="http://www.w3.org/2000/svg" version="1.1" viewBox="0 0 300 200">
  <path d="M294.7,59v-3.1c0,0,.8,0,.8,0,0,0,0-.3,0-.3h-.6c-.1,0-.7-.2-.6-.2l.4-.3,1-.6c.4,0,.3-.2,0-.2l-1.6.7-.3-1.3c-.4,0-.9-.3-.9-.6l.2-1.4h-.1s-.4.9-.4.9l-1.5-1.9-1.9-2.3-3.1-3-3-2.4.9-1.6-1.3.3.7-.5c.1,0-.3-.3-.3-.4l.7-1c0-.1.2-.5.2-.6,0,0-.2,0-.6-.1l.6-1.7c0-.2,0-.7,0-.9v-2.6c0-1.2.1-2.5-.3-3.8-.7-.1-1.4.4-1.8,1-.9,1.2-2,2-3.3,2.9l-2.4,1.5-3.3,2.2-1.5-3.6c-.5-1.1-1.5-2.1-2.5-2.9-3-.6-4.4,1.1-6.2,3.2l-2.9,3.4c-1.8.3-3-.8-4.4-1.6l.5,1.5-3.7-1.1,1.3,1.6-4.5-1.5,1.6,1.8c-1.5,0-2.3-.4-3.8-.8l1.1,1.2s0,.2-.1.3l-3.2-1.3c0,0-.4-.1-.4,0l.2.4.3.4c0,.1,0,.3,0,.4l-.5-.3-1-.5.4,1.1c0,0,.4.2.5.2,0,0,0,.3-.1.3l-1.2-.3.5.7-3.4-.7c-.7-.1-1.4-.3-1.9-.3l.5.6c0,0-.2.3-.3.3l-.6-.2c-.5-.2-1.4-.2-1.9-.5-.1,0-.5-.1-.5,0l.2.9c.4-.1,0,0-.4.2l1.2,1-2-.8.2.7c0,.1-.5,0-.6,0l-1-.9v1c0,0-1-1.1-1-1.1l.2,1.6-1.9-1.5c-.3.4-.2,1,.1,1.8-1.3-.6-2-1.6-2.8-2.9v2.6s-1.3-.7-1.3-.7c-.1,0-.6-.1-.6,0v.8s-1.5-1.9-1.5-1.9v1.8c.1,0-.5-.6-.5-.6v1c.1,0-2.5-2.2-2.5-2.2l.4,1.3c-1.1-.2-1.9-.9-2.8-1.8l-.2.7-1.8-1.3v.3c-.1,0,1.8,1.7,1.8,1.7-.9.2-1.7,0-2.5-.3l-3.1-1.4.7.9,1.3,1.7-4.1-1.2c-1.5,1.1-3,0-4.5.3l4.3,1.3h-1.9c0,.1-.2.4,0,.1l1.4.8c-2,.2-3.5,0-5.2-.4l1.6,1h-2.6c-.2-.1-.6-.5-.7-.4l-.4.3c-.4-.2-1.5-.3-1.9-.7l-2.6-2.3.2,1.7-2.3-2.2c-.3.1-.4.3-.2.3l.8,1.5c-1.4-.8-2-1.8-2.9-3v1.3s-1.2-2.5-1.2-2.5c-.4.3-.8.7-.7,1l.3,1.5c-1.2-1.2-1.9-2.5-2.8-4.1,0,1.7.5,3.2,1,4.7l-1.6-1-1.9-1.3.5,1.8-1.8-2.2v.3c0,0,1.2,2.1,1.2,2.1l-1.3-.7.4,1.1-2.8-1.7-1-.7-1.8-2,.8,2.1c0,0-.4,0-.4.1v.7s-2.2-2.3-2.2-2.3v.9c.1,0-.9-.5-.9-.5l-2.1-2.1.9,1.8c-1.3-.6-2.1-1.4-3.1-2.5l.3,1.4-3.2-3.5.7,1.7,1.1,2.6-1.9-1.5-.5.5-2.8-1.8h-1c0,.1-1.6-.9-1.6-.9l.3.7c.3.8-2.8-1.4-4.3-1.5,1.5,1.2,2.9,2.1,4,3.4h-2c0,0-3.7-.8-3.7-.8l.7.9-7.2-1.3,2.8,1.4-2.6-.5,1.9,1-4.8-.5-2-.6.6.8h-1.6s1,.8,1,.8l-2.1-.6c0,0,0,.1-.2.4l-2.5-.7,1.1,1.1-3.2-1.1-3.7-1.3,1.6,1.3v.8c0,0-3.6-1-3.6-1l.8,1-5.7-2,2.4,1.8-2-.5-3.7-1,.8,1-6.8-1.4,1.2,1-2.5-.7-2-.5.9,1.1-2.6-.4-3.5-.8,2.9,1.9c-2,0-4.3-1.6-4.5-1.1l-.2.4-4.1-.7-4.8-.7,2.2,1.1-1.2.3,2.8.7-2.7.2-2.7.2h-2.7c0,0,0,.4,0,.4l2.8.5-4,.4h-2.9c0-.1,3.6,1.3,3.6,1.3l-2.9.5-3.2.3-3.3.6,2.2.3-2.7.6,1,.5-3.6.4c-.8.1-1.7.6-2.4.9l2.9,1c-1.3.3-2.4.2-3.8,0l-3.4-.2,1.3,1c-1.6-.4-2.5-1.1-4.2-1.2l3,2.7h-2.8c0,0-2.7,0-2.7,0l3.1,1.7-4.8.2.8.5-2.6.4,1.6.4,1.7,1.4-2.3.7,1.4.3c-1.7.5-3.2,1-5,1.8l2.5-.2-3,1.5c-.3.1-.8.7-1,.9l2.7-1-1.2,1.1c.2.2.4.4.3.5l-.5.4c-1.8,1.6-3.5,2.9-5.7,4.3l4.1-1.5-5.1,3.5v1.1c0,0,1.7-.6,1.7-.6l-1.9,2.4-1.8,1.7,2.7-1c-2,2.3-3.9,4.1-5.1,6.8l1.3-.7c-1.3,2-2.4,3.4-3.3,5.6l1.2-.4-2.2,3.5c-.5.8-1.1,1.8-1.5,2.6,0,.2-.6.5-.5.7l.4.6-.9,1.3.7-.3c.1,0,.3.4.3.5,0,.1-.2.4-.3.5l-3.4,3.2c.9-.3,1.3-.7,2.4-.6l-3.4,2.8h1.7c0,0-4.1,2.9-4.1,2.9l3.3-.9-3.1,3.6v.8c-.7.4-1,.9-1.4,1.5l-2.5,2h1.2c-1.7,1.2-2.9,1.6-4.7,2.4l2.6.2-4.3,2.5,2.4-.3c-2,1.1-3.9,1.8-6,2.5,1,0,1.7,0,2.6.3-2,1-4.9,1.3-4.9,1.3v.5s-3.3.2-3.3.2l1.9.6-2.5.2v.2s2,.3,2,.3c-1.7.3-2.9.2-4.6.1l.9.7c-1.4.1-2.7,0-4.2-.4l1.3,1-4.4-.9,1.8,2.1-3.8-.9-1.7-.2.6.8-2.5-.3,1.1.9h-2.9c0,.1.9.7.9.7l-1.1.7-2.2.7h2.1c-1.9.9-3.6,1.8-4.8,3.5h1.3c-1.9,1.3-2.9,3.4-2.5,5.8C1.3,129.9.6,130.3,0,130.8h1.7c0-.1-1.4,1.5-1.4,1.5,1.2-.3,2.4,0,3.3.7l-1.4.6c1.8.2,2.8.3,4.3.8l-2.3.5c1.9.5,3.6.6,5.7.7-1,.3-1.8.5-2.6,1.1l6-.4-2.1,1,.2.2.9-.3v.4c0,.1.5,0,.6,0l2.2-.3,2.3-.6-1.1,1.1,3.5-1.6-1.2,1.8,3.9-2.4-.9,2.5,1.6-1.3-.4,1.2,3.2-2.1-.8,2c.5-.5.9-.8,1.4-1.1,1.3-.7,2.4-1.7,3.6-2.7l-.4,1.5,1.5-1c.1,0,.5,0,.7.1l1.7-1.3c.1.1.5.4.5.4l1.2-.9,2.4-2.1-1.2,3.1,1.7-1.5c.1,0,.3.4.3.6v.7c0,0,1.5-1.9,1.5-1.9l2.2-3.3v1.4c-.1.3,0,.3,0,0l2.1-2.7-.3,1.4c0,.3,0,.4.2,0l3.2-4c.5,1.4-.3,2-.5,3.4h.2c1.3-2.5,2.6-4.8,4.2-7l-.8,3.8,2.3-4.8-.7,3.9,3.1-7.1.2.4.2,2,1-3,.2.2-.7,3.4,1.8-3.9c.2.7.2.6.7.4l1.8-5.1v3.8c0,0,1.1-3,1.1-3l1.7-6,.3,4.7.9-6.2c.2,1.4.1,2.5.8,3.6l.6-5.4.6,2.2.3-2.4c.2-.4.3-.3.2,0l.2,1.4h.4s.2-3,.2-3c.3-.3,1.5-.2,1.8,0-.6.2-.7.3-.6.5l3.3.7-4.3,2.8,2.7-.4-3.3,3c1.9-.2,2.7-1.6,4.7-1.5l-2.8,1.8.3.3c-1.3,1-2.4,2.1-3.7,3.6l1.8-.6-3.2,3.3c-.2.3-.1.4.2.2l2.6-1.3v.3s-.7.5-.7.5c0,0-.5.4-.4.4l.7.3-3.4,2.6h1.7c0-.1-3.3,2.4-3.3,2.4l3.3-1.2-3.5,3.4.9-.3.5-.2c0,0,0,.2,0,.3-.9.8-1.6,1.4-2.6,2-.2,0-.3.1-.2.1,0,0,.3.2.3.1h.5c0,0,0,0-.1,0l-1.8,1.6-1.4,1.1c0,.1,0,.4-.2.5l-.6.3-.2,1.8v2.9c-1,1.8,1,3.3-.4,3.6l.4,2.8-.5.2.6,2.3v.5c.2,0,0,0-.1,0l-.3-.3.8,3.2-.6-.6c0,0-.1,0,0,.1l.7,2.6.4,2.3-.7-.5-.4-.2c-.2,0,1.5,2,1.4,3.1-.3,2.6,1.4,4.4.9,4.4h-.4c.5.9.9,2,1.1,3.1.4,2.4,1.6,3.5,2.2,8s.7,1,.8,1.1c.2,0,1,1.1,2.5,1.7,2.1.8,3.1.4,5.8.3,1.9.2,6.5-.3,7.7-.9,2.2-.4,3.8-1.9,3.9-4,.2-4.2-1.9-4.4-3.2-5.6l.4-.6-1.8-.6c0,0-.5,0-.5,0,0,0,0-.3.1-.6l-4,.9c-.7-1.8-1-3.5-1.1-5.4l.9,1.6c-1-3.5-2.1-6.9-.9-10.2l.9-2.5.3,1.2.9-2.2.2,1.1c.4-.9.7-1.4,1-1.9l1.7-2.4-.4,2.3,1.9-3,.2.8,1.5-2.1v1.1c.7-.9,1.1-1.7,2.2-2.6l-1.1,2.4,1.5-1.1,2.1-2.2-.9,1.9c1-.9,1.6-1.6,2.5-2.1,1-.5,1.9-1.4,3-2.2l-.2,1.6c1.6-1.1,2.7-2.4,4.1-4.1l-.2,2,2.8-3.8.2,1.4,3.7-4.7c0,1.1-.3,1.8-.6,2.9l3.8-5-.3,1.9,2.8-3.5-.5,1.8,1.1-1.1,1.5-2.3-.3,2.4,1-1.9-.3,2.1-.3,3,1.7-2.6-.6,3.5v2c-.1,0,0-.2.2-.3,0,0,.2.1.3.4l.7-.9-.5,2.8,1.8-2.6-.9,4.8.9-1.4v1c-.1.2.3.2.2.3-.3,1-.3,1.6-.2,2.4l-.6,1.7.8-.5v1.7c0,0-1.1,2.4-1.1,2.4l1.1-1-.6,2.4-.4,1.9,3.2,4.2,1.9,2.2,3.6,3.7,1.5,1.6,1.7,1.6,1.3,1.6,2.4,1.8,3.8,2.6s2.3,1.6,3,2.2c1.1,1,3.3,3.6,3.9,4.4.8,1.1,4.3.7,5.7.7,2.1.5,6.9,0,7.6-.5,3.1-.2,6.2,0,6.5-3.6.4-5.3-2.7-5.6-4.9-7.1l.6-.2c0,0,.1-.1,0-.2l-.4-.3c-.8-.6-1.7-.9-2.7-.8l.8-.6c-1.4,0-2.4.3-3.7.7l-2.6.7c-1.4-.6-2.6-1.9-3.3-3.3-1.6-1.1-2.9-2.3-3.9-3.9-.5,0-.4-.2,0-.5-1.7-1-2.8-1.9-3.9-3.4l-1-1.4,1.3.2-1-1,.5-.4c0,0-.2-.3-.3-.4l-.4-.3c0,0,0-.3,0-.3l.7.2-.3-.5c0-.1.1-.3.2-.4l-1-1.2h.6c0,.1.3.1.3,0l-.3-.6h1.4c0,.1-1.2-1.7-1.2-1.7h1.3c-.3-.9-.6-2-.7-3.3l.6,1.3v-.7c.2-.1.3-.1.5-.2v-1.7c.1,0,.5.9.5.9l.5-2.5.9-2.3.4,1.1.4-2v-1.3c0,0,.7,1.5.7,1.5v-2.5s.4.7.4.7l.4-2.1.5.9.2-1.9.3-3.4,1,1.8-.2-2,.6-.2c-.3-1.8-.1-3.3.5-5l.7,1.9-.3-4.4,1.7,2.7-.5-2.7,1.4,2.1-.9-3.2,1.9,3.6v-1.9c0,0,1.1,2.6,1.1,2.6v-2.7c0,0,1.4,3.9,1.4,3.9l.9-3.1.4,1.2c0-1.2.2-2,.5-2.9.5,1.7.8,2.8,1.5,4.1,0-1.6-.8-2.7-.6-4.4l1.3,3.7v-1.6s1.1,1.4,1.1,1.4c.8,1,1,2,1.9,2.8l-.4-2.7c.4.6.6.5.6-.2l.5,1,.9-2.2c.4,0,.6.1.6,0l.4-.7v2.8c0,.3.3,1.1.5,1.3l1.6-4.1.2.9,1.6-2.1-.8,3.4,1.2-2.5c0,1,0,1.4,0,2.2l2-2.1-.9,4.8,1.7-2.5.4.3c0,0,.3-.2.4-.2l1.9-1.9-1,3.2,2.7-2.3c.8-.7,1.6-1.2,2.7-.9l-1.9,2,3.9-1.5.8.3-1.3,2.5,3.6-2.4.5.8-1,1.6c1.5-.9,2.2-2.3,4.2-2.5l-1.8,2.4.6-.2c.1,0,.3,0,.5.2.9-1,2-1.7,3.3-1.8l-.6,1.6,5.2-1.9-1.5,2.6,1.4-1.1-.5,1.5c1.1-1.2,2.2-2.1,3.7-2.7l-1.6,3,3.1-2.2-.5,1.7,3.6-2.3-1.7,2.6,2-.9,1.5-.9-.2,2.1c.2.1.3.2.4.2l.6-.6-.6,2.2,1.3-1.3c0,.6.1,1,.4,1.2v1.2c-.1,0,1-.5,1-.5l1.1,1-.8.3c-.2,0,.2.6.3.8l2.3,1.6h-1.1s2,2,2,2h-1.4c0,0,1,.8,1,.8l-.3.5,1.5,2-1.3-.2c.6.6.9,1.1,1.2,1.7l1.4,1.9-.9.3c-.2,0,.2.6.4.7l.7.5c.1,0,0,.6,0,.7.7.7,1.4,1.5,2,2.4h-1.3s1.4,1,1.4,1c-.3,1.1.8,2.4,1.4,3l-.2.5c0,.1.1.2.6.6l-1.3-.2,1.4,1.4-.5.5,1.3.4c-.1.3-.3.6-.2.7l.6.3-.9,1.2c.3,0,.7.2.6.3l-.2.7h1.4c0,0-.4.6-.4.6,0,.1.2.5.3.6l-.7,1.8,1.3-1.1v1.2c-.1,0,.7-.2.7-.2.6-.2-.1,1.6.3,4.3v.7c.1.2.3.2.6.3l.6,2.8h.8c.2,0,.2.7.2.9l1.7,1.3.7,1.5,1,2s0,0-.1,0c.3.6.2,1.3.6,1.9.2.4,1.5,2.8,1.8,3,2.9,1.8,3.4,1.4,8.3,1,2.4-.2,6.2.4,8.6.3,1.4-.1,4-.9,4.4-1.6.3-.5.7-3.2.7-3.6,0-.6-1.1-2.3-1.1-2.3l-1.4-1.3.2-.3c0,0,0-.2-.1-.4-1-.6-1.8-.9-2.8-1.2l.3-.3v-.3s-.9,0-.9,0h-.5c0,0,0-.1-.1-.4l-2.3.9c-.3.1-1.2,0-1.3-.4l-3.2-6.1c-.7-1.3-.3-2.9-.6-4.4l.5-.4-.5-2c.2,0,.5,0,.4-.2v-.6c0,0-.9-3.5-.9-3.5v-1.4c-.2-.6-.2-1.3.1-1.8l-.5-1.3-.2-.5c0,0,0,0,.6,0,0,.2,0,0,0-.2-.5-.8-1.1-1.9-.9-2.6.3-1.1,0-1.7-.3-3-.2-.1-.2,0,.5.2,0,.2,0,0,0-.2l-.3-1.3c.8.6,1.3,1.2,2,2.1l.2-.6,1.4.9c.9.5,1.6.9,2.2,2,.3.2.5.2.1-.4l.3-.4,2.6,1.9-.4-1c-.3,0,0,0,.3,0l.6.7.2.3.3.3c.9,0,1.1.5,1.7,1l1.3.9c0,0,.2-.5.3-.4l.5.5c.2.2.8.7,1.1.8.1,0,.4-.5.5-.4l.4.4,1.1,1.5-.2-1.3,1.3,1.5c.7.7,0,2.3,1.4,2.7l-1,5.3c-.2,1.1,0,3-.8,3.6-1.6,1.2-1.5,2.9-1.8,4.6-.3,2-.3,3.6,1.1,5.2.9,1.1,1.8,1.9,3.4,1.9.8-.3,1.7-.4,2.6-.2.9-.2,1.7-.5,2.3-1.3l1.8-2c0-.1,0,0,.5.6l1.1-2.9c.2-.5.3-.8.7-1l.9-3,.2.6c0,0,.3-.3.3-.4l.4-1.8.3.4c0,.4.2.5.3,0l.6-3.1.2-5c0-.8.4-1.3.2-2.2-.1-.5.2-1.5.3-2l-1-4.3.9.7-1.8-3.9.4-.7-.4-.6-1.3-2.1c-1-1.6-2.2-2-2.5-3.4l-1.3-1.5c-.3-.3-.2-.3.2,0l.4-.2-3.3-2.2c.3-.2.5-.4.4-.4l-.5-.3c-.3-.2-.7-.8-.9-1.1l-3-2.6,1-.4-1.8-1.5c0-.4-.3-1-.6-1.2l-1.8-1.5.7-.3-1.5-1.8,3.5-.3-1.8-.7h.6c0-.1-1.4-.9-1.4-.9h1.5s-.9-.8-.9-.8l1.8.4c-.1-.5-.2-.8-.2-.7l.8.2c.3,0-.3-.5-.3-.8v-1.7c.2-.3.9-1,1-.8.6.5.6.2.4,0v-.6c0,0-.1-.7-.1-.7,0-.1.4,0,.8,0v-2.2c.3,0,.5,0,.5-.2v-.6c.1,0,.2,0,.3,0l.4.4.2-.9.2.4.4.4c0,0,.1,0,0,0l-.6-2,1.4.7-.4-1.1v-.5c0,0,.5.4.5.4,0,0,.2,0,.2,0v-.5c-.1,0-.5-1.3-.5-1.3l1.4,1.8-.7-3,.7.3.2-.2-.3-.7c0-.1.2-.4.3-.3l.5.3.3.3.4-2.6.5,1.8.3.2v-1.4c0,0,1,.8,1,.8-.3-1.1-.4-1.6-.2-2.9l1,.7v-.6c0,0,.2-.6.2-.6l.8,1v-1.9c.1,0,.7,1.1.7,1.1v-2.8c0,0,1.1,2.6,1.1,2.6v-2.7s.8,1,.8,1l.6-2.6c.3.8.6,1.3,1.3,1.8l.5-2.4.6,1.9h.4s.7-2.2.7-2.2l.4,3.3c.3-.9.4-1.4.7-1.9l1.1-1.6.2.6,1.7-2c0,0,.6,0,.5,0l-.2.4s0,.2-.1.5l1.8-1.8c1.5-.8,3.2-1,4.8-.8,0,0-.5.5-.6.5,0,0-3.3,2.7-4.7,4.2-.3.3-.2.5.1.3,1.6-1.5,5.2-5.2,6.7-4.7.5.2,2,.7,2,.7-.1.2-.4.6-.6.8l-3.6,3.8c-.1.3.1.2.4-.1l2.4-2.6,1.2-1.3c.4-.4,1.1-.4,1.7-.2l.6.3c0,0,0,.3,0,.4-.4.5-3.2,5.2-4.7,7.6-.3.5-.2.7-.3,1l5.4-8.8,1.2.7s-1.5,2.8-2.1,3.9c0,0,0,.7.2.2.8-1.3,2.2-4,2.2-4l1.4.6c-.3.8-.7,1.7-.7,2.5l.8-2.1c0-.2.8-.4.9-.2.6.9-.4,2.8,0,4.8l.2-2.2.3-2.4,2.8-.3,2.5-1.2c1.3-.6,2-2.4,2.6-3.6,2-.8,3.1-2.2,4.1-4.1.5-1,1.7-2,1.7-3.3,0-3.8-5.5-6.5-5.3-13.4ZM83.4,44.2v-.2c-.1,0,1.5,0,1.5,0l.4.2h-1.9ZM208.6,44.8h-1.2c0-.1-.1-.3-.1-.3h1.4c0,0,0,.3,0,.3Z"/>
</svg>