<?xml version="1.0" encoding="UTF-8"?>
<svg id="Capa_1" xmlns="http://www.w3.org/2000/svg" version="1.1" viewBox="0 0 1900 28">
  <!-- Generator: Adobe Illustrator 30.2.1, SVG Export Plug-In . SVG Version: 2.1.1 Build 1)  -->
  <defs>
    <style>
      .st0 {
        fill: none;
      }
    </style>
  </defs>
  <path class="st0" d="M1774.6,26.89c-.65.05-1.35.07-1.95.15,1.26,0,2.47.02,3.71.03-.47-.06-1.05-.12-1.76-.17h0ZM1714.09,19c-1.08.02-.81.33.21.33,3.52.01,7.05,0,10.63,0,3.53-.61-6.77-.4-10.84-.34h0ZM1783.02,13.66c-2.38.1-2.78.3-1.69.57,16.02.6,10,.56,28.35.14-14.05-.69-18.6-1.07-26.66-.71M1827.67,11.29c1.73-.38-6.69-.46-9.43-.16,1.87.36,7.43.6,9.43.16M1724.18,13.19s.94.04,1.45.05c2.05-.26-1.52-.32-1.45-.05M1646.56,8.68c-.46-.21-1.66-.15-13.74.02,4.84.57,14.62.37,13.74-.02M1786.59,12.36c4.86.34-.98.21,21.83.52,7.89-.34,16.3-.06,24.5-.18,8.02-.12,16.48.07,24.75.08,1.87,0,3.77-.17,7.09-.33-19.26-.32-37.15.06-54.9-.11-7.47-.07-15.09.01-23.26.02h0ZM1800.05,9.03c-.45-.2.91-.15-8.56-.15-.04.16-1.33.11,8.56.15M1715.15,8.72c-3.07,0-6.43-.03-9.17.24,29.2.36,68.94-.07,9.17-.24M1638.37,11.05c-2.43-.05-8.87.02-10.75.21-.81.08-.77.24-1.21.4,4.64.05,47.85.18,51.53-.09,3.17-.73-9.46.07-39.57-.52"/>
  <path class="st0" d="M1625.13,10.18c18.63.69,65.12-.15,70.17.77h.04c-.1,0,.17-.02.39-.04q.15-.01,0,0c.26.04.54.03.8.05h3.2c.26-.02.52-.02.79-.05l.42.05c-.73-.08-.48-.07.25-.03,1.18-.27,3.42-.4,6.42-.38,1.12,0,2.15.12,3.22.19-.73.11-1.2.26-2.25.33-2.44.15-5.93-.05-7.39-.13-.06.01-.2.02-.25.03h-1.21c-1.09.08-2.16.09-3.2,0h-1.1c-1.04.16-3.88.64,2.12.66,10.27.02,20.31.12,25.86-.69h-.1c-1.32-.11-1.49-.09.49-.05-.11.02-.28.02-.39.04.2.03,2.76.13,15.53.67,59.46.18,52.3.19,55.18-.36-.47-.03-4.48-.38-8.14-.2-11.54.55-23.85.19-35.76.28-3.38.03-7.25-.18-8.92-.63,2.01-.06,3.92-.18,5.85-.18,47.3-.06,48.61.22,62-.46-1.47-.1-3.98-.29-5.56-.31-12.05-.12-24.12-.15-35.46.2-27.99-.69-45.65.1-70.26.09-71.86-.02-70.66-.94-72.76.16h.02,0ZM1225.62,8.78c-1.58-.07-3.12-.16-4.78-.19-3.19-.07-2.23.41-.42.36,1.77-.04,3.48-.11,5.2-.17M1240.81,8.45c-5.2-.07-10.2-.12-13.78.33,4.09.08,8.23.19,12.2-.03.83-.05,1.06-.19,1.59-.29h0ZM1230.52,12.95c4.76.09,3.53.09,4.67-.02-1.59-.06-3.2-.14-4.67.02M1171.68,7.67c71.94.12,69.12.07,71.33-.1-1.84-.14-3.41-.34-5.35-.38-5.11-.11-10.42-.22-15.57-.19-41.95.24-64.64-.3-68.84.19.95.1,1.77.27,2.88.29,5.14.09,10.35.18,15.55.19M1215.07,17.89c.12,0,16.31.21,15.33-.2-.75-.31-8.25-.3-15.33.2M1210.03,12.97c6.48.1,6.73.14,7.95-.03.83-.11-4.4-.48-7.95.03M1175.16,19.2c-.55-.12-.99-.15-1.15-.03,0,0,.56.01,1.15.03M1088.02,19.04l1.43.05c.09-.08.41-.06-1.43-.05M937.1,10.57c-14.2,1.14-12.23.91-11.62,1.12,14.17.22,26.8-.23,38.58-.89,20.2.21,22.1.09,27.51.83-1.67,1.12-4.92.9-32.18,1.07.73.46,2.12.7,4.07.72,11.58.1,16.85,0,20.79.57,4.79.3,5.87,1,12.33,1.11,5.4-.12,5.72-.66,10-1.02,6.31-.07,51.67-.43,50.29.01-1.18.38.21.28-17.32.59-.62.27,1.44.38,3.42.4,11.35.12,22.72.17,33.75.04,2.05-.14,3.81-.26,5.45-.37,3.02.11,5.1.4,8.61.26,10.26-.84,9.11-.5,6.4-1.47,8.31-.05,15.78-.1,23.26-.14-18.07-.43-33.81.49-50.4-1.52-21.32-.69-19.62-.34-23.87-.68.85-.11,1.45-.27,2.58-.33,3.33-.19,7.11-.28,10.95-.22,10.73.18,21.19-.03,31.69-.18,3.02-.04,5.55-.2,7.35-.45-.02,0,0,0,.08-.01l-.43.03c-.91-.1-.97-.08.43-.03-.03,0-.06,0-.08.01.39.01,16.2-.87,17.43-.94.62-.04.34-.21.46-.31-92.17-.39-86.18-.45-79.66.85-1.36.38-5.31.14-7.62.3-17.34,1.14-56.84.16-92.24.65h0ZM1047.19,11.91c.27,0,.45.08.68.12-4.96.11-3.46.1-5.48,0,.64-.09-.02-.17,4.8-.12M1025.54,13.26c3.33.01,1.34.26-.62.2-.4-.01-.63-.08-.94-.12.52-.03,1.05-.08,1.56-.08M1121.51,15.03h-1.68c1.74.1,1.31.11,1.68,0M1202.26,9.03c-8.67-.31-1.71-.3-48.79-.61-2.98-.02-18.79-.16-18.95.22-.39.96,63.78.41,67.74.39M1107.7,15.11l-.02-.11c-2.28.07-2.36.04.02.11M1156.34,13.02c3.53-.07,3.87-1.05-25.68-.17,1.19.22,2.12.39,3.17.58,7.79-.14,15.17-.27,22.51-.41M1631.86,8.69c-.36-.06-.67-.13-1.18-.14-3.95-.15-7.92-.17-11.91.02,4.17.46,8.51.48,13.08.13h.01ZM1103.14,7.67c0-.1,1.2-.08-7.94-.08.18.1-1.04.08,7.94.08M1061.28,7.11c-29.28-.26-39.34-.22-44.38.19,9.13.33,10.83.8,44.38-.19M1547.99,14.93c-4.37.06-8.73.13-15.63.24,4.63.46,1.45.47,15.38.45,7.17-.01,5.21-.76.26-.69h-.01ZM1550.22,23.35c-.76-.19-4.53-.31-9.76.03,3.89.44,10.46.14,9.76-.03M1612.02,13.2c60.86,0,61.3-.02,65.65-.07,11.96-.16,23.83-.12,36.43-.12-8.66-.4-25.23.17-41.43-.58-2.22-.1-69.82.06-69.95.06-2.77,0-10.47.71,9.3.71M1566.81,12.95c6.98.09,12.33.03,16.05-.18-5.72.02-9.83-.08-16.05.18M1576.84,9.93c-9.68-.04-28.07-.78-31.03.36,17.24.22,34.36.11,51.24.05,3.36-.88-8.53-.36-20.2-.41h-.01ZM1188.51,13.89c-13.33.05-16.05-.11-24.42.31-1.53.08-3.98.21-1.49.52,2.56,0,5.6.04,8.48,0,19.24-.33,29.22.36,59.02.15,7.71-.05,15.06.07,20.49.25,14.59-.15,27.35-.27,40.12-.4-.97-.42,2.34-.41-18.36-1.4-.48-.02-1.39.04-2.1.06-.42.14-.84.27-1.24.4-6.63,0-2.01.2-8.75-.76-1.07-.15-2.72-.13-3.72.03-.07.01,1.03.46-12.37,1.17-20.86-.63-7.28-.5-55.66-.32h0ZM1575.77,8.88c5.99.14,11.6-.22,17.57-.24.24,0,.43-.13.73-.23-32.96,0-33.96-.13-37.38.16-3.49.64,6.69.01,19.07.3h.01ZM1250.23,15.98c8.88.26,4.24.34,31.32.19,2.5-.01,5.45.02,7.3-.23-4.96-.26-10.33-.18-15.5-.18-6.7,0-13.5-.08-23.11.22h-.01ZM1294.89,7.57c-.55-.19-.77-.44-2.8-.4-2.23.04-.64.27.98.43.27.02,1.19-.02,1.82-.03M1546.58,8.6c-3.86-.18-1.21-.26-10.3.17,5.29.27,5.53.27,10.3-.17M1474.4,7.25c-15.89-.24-27.39-.24-51.54,0,16.28.11,32.56.15,51.54,0M1535.84,7.16c-2.15-.04-1.24-.08-3.75.09,2.36.04,1.5.06,3.75-.09M1236.14,19.3h1.35c-.81-.19-.43-.19-1.35,0M29.21,10.65c1.43.34,6.62.03,2.01-.05-.62-.01-1.34.03-2.01.05M68.4,3.71c15.02.15,17.71.22,21.18-.06-23.51,0-21.16-.02-21.18.06M29.71,4.51c-.2,0-.39.06-.59.09,2.54.14,3.51-.09.59-.09M1860.41,18.99c-21.62-.17-24.9-.4-32.67.77,22.22-.72,38.33.19,32.67-.77M463.82,14.12c.42.24.76.43,1.18.67,35.28.05,42.37.22,57.81-.58,1.67-.09,33.3-.27,40.95-.9-7.42-.43-14.77.05-22.07,0-7.8-.06-14.73.35-22.26.31-7.31-.04-14.14.49-22.6.16,2.46-.18,4-.35,5.94-.42,4.14-.16,22.91-.44,18.94-1.02-91.95-.17-100.88.21-118.28,1.46,17.18,1.56,45.53.07,60.4.33h0ZM489.63,18.11c12.37.5,22.91.31,36.55.11-13.53-.42-24.08-.22-36.55-.11M11.22,24.66c.59.13.15.11,2.05.07-.55-.12.05-.12-2.05-.07M573.78,10.29h4.28c-1.6-.1-3.67-.24-4.28,0M102.15,23.45c9.42-.02.62-.05,49.06.2.17-.05.31-.09.48-.15-6.49-.48-12.96-.34-20.07-.11-1.26-.11-2.67-.23-4.06-.35-30.26.03-75.7.07-111.44.06-4.7.15-11.24.21-16.11.14v.34c28.62-.02,62.35-.06,102.14-.14h0ZM18.33,10.7c-6.18-.15-12.26-.23-18.32-.27v.62c5.57-.18,5.07-.14,18.32-.35M0,4.29v.51c4.04-.03,8.87-.08,14.72-.14-3.9-.13-8.88-.25-14.72-.37M1358.87,3.11c-1.6.03-2.86.21-4.22.35,8.59-.02,17.3.04,26.87-.23-8.24-.27-15.48-.27-22.65-.12M1353.12,3.51h-3.43c1.12.12,2.26.12,3.43,0M49.33,9.45c2.05.03,2.93-.04,5.25-.32,1.68-.2-12.15-.26-14.62-.26-11.65.02-25.3-.09-39.95-.25v.59c16.8,0,45.65.2,49.33.25h-.01ZM39.76,24.68c.73.1,1.29.26,2.17.28l3.49.06c4.29-.12,8.8-.25,13.91-.39-3.84-.04-7.95-.07-11.92-.1-3.03.04-5.74.09-7.65.15M421.25,18.06c1.97.5,6.69.58,10.95.53,3.96-.04,9.27.01,11.23-.59-22.92-.08-16.99-.09-22.18.06M113.13,17.13c-58.55.12-55.55-.11-52.89.25,22.03.13,16.8.04,20.39.39-4.55.28-9.85.48-5.84.88,21.93.38,22.73-1.2,30.59-.54,3.33.72-.47.57,18.19.57,6.73-.33,12.59-.63,22.25-1.11-11.55-.11-19.21,0-26.04-.38-1.75-.1-4.42-.07-6.66-.06,0,0,.01,0,.01,0ZM143.7,10.55c-78-.18-74.98-.27-82.8.24,14.48.43,27.45.15,39.96.39,16.26.31,32.67-.17,48.61-.08,4.06-.33-.51-.54-5.77-.55M128.65,9.59c2.24,0,4.5-.05,6.75-.05,3.15,0,5.53.03,7.5.06-1.5-.1-2.99-.23-4.58-.24-8.23-.07-16.55-.15-24.74-.1-37.1.24-36.85-.95-48.55-.26,1.36.69-6.93.34,63.62.58h0ZM183.41,22.81h-.95c.06,0,.11,0,.18.02.07,0,.42,0,.77-.03h0ZM176.75,9.64c-13.08-.27-22.07-.03-30.73.02,7.68.17,7.17.42,30.73-.02M184.87,25.3c14.74-.35,25.8-.09,41.21-.05-3.08-.11-6.19-.21-6.96-.61,2.78-.11,4.92-.19,6.64-.26-.93,0-1.89.04-2.8.03-4.42-.05-8.62-.18-13.29-.13-6.93.08-12.05-.43-20.43-.27,2.88.2,8.69.36,13.22.52-.27.13-.15.34-.84.37-5.61.22-21.05-.15-20.59.41h.05c1.24,0,2.51,0,3.81-.02h-.02ZM169.07,17.87c1.26-.05,1.45-.34,2.1-.52-6.54-.4-15.8-.25-19,.06-4.2.41-2.09,1.24,16.91.46h-.01ZM155.11,24.99c-1.26,0-2.47-.02-3.71-.03.47.06,1.05.12,1.76.17.65-.05,1.35-.07,1.95-.15h0ZM110.67,21.91c-.51.04-1.06.08-1.86.15,2.14.08.6.11,5.57-.05-.58-.05-1.02-.08-1.42-.11h-2.29ZM373.5,12.5c-6.17-.13-2.37-.24-18.17.24-3.9.12,3.62,1.15,18.17-.24M380.35,11.08l-1.5.04c1.64.1,1.24.12,1.5-.04M356.28,7.09c-.18-.04-1.01-.04-1.54-.07l-1.54.09c.4.04.74.11,1.21.12,1.64.03,2.41-.03,1.87-.14M396.46,9.94c8.98-.09,37.43.14,45.06-.11-2.58-.66,8.62-.48-103.1-.53,44.76.35,39.17.83,58.05.64h0ZM404.08,23.58c-3.84-.16-6.34-.05-15.62,0h15.62ZM411.2,18.26c-.38-.1-.94-.25-1.79-.28-3.6-.11-7.29-.15-10.53.15,3.16.68,12.71.24,12.32.13M390.17,11.09c1.87.09,1.4.1,1.79,0h-1.79ZM324.65,8.08c-4.44-.22-2.52-.22-7.37-.03,4.51.22,2.59.21,7.37.03M243.05,9.78c-13.2-.26-23.6-.11-38.22,0,16.92.31,27.51.21,38.22,0M192.2,23.36c-1.2,0-2.69.12-3.74.22-.14,0-.13.02-.24.04h36.14c-4.79-.13-9.59-.25-14.43-.26-5.83-.02-11.78.05-17.72,0h0ZM213.19,17.67c-9.91-.19-17.68-.21-25.98.24,11.22-.05,18.52.21,25.98-.24M187.14,18.97c-2.76-.15-3.72.11-.63.1.22,0,.42-.07.63-.1M318.47,24.19v.14c2.46-.09,2.56-.05,0-.14M277.32,8.44c-1.89-.04-3.23-.08-4.23-.11,3.2.24,2.4.2,4.23.11M1708.38,23.39c-8.31-.31-16.87-.09-25.49.02,8.36.08,16.68.22,25.49-.02M1725.42,15.07c7.4-.45,16.3-.15,24.74-.41-1.78-.07-2.96-.16-4.12-.16-10.76.02-50.05-.48-54.07-.46-9.26.05-18.04-.08-25.58-.46-5.27.15-9.59.37-13.94.37-12.72.02-25.66.26-38.09-.26-2.73-.11-37.16-.28-47.06.08-.81.03-.93.24-1.36.36,6.81.58,98.7-.05,110.23.45,18.13.78,23.19-.1,49.25.49M864.12,14.1c-.01.26,12.14.4,17.22-.07,5.91-.55-17.18-.68-17.22.07M1661.77,16.84c2.44.1,1.88.11,2.17-.03l-2.17.03ZM1260,17.92c17.78.36,6.82.56,27.24-.1,1.43-.29.26-.57-1.69-.52-12.89.29-17.51-.34-30.81-.06-2.54.05-5.59.17-5.62.53,3.37.24,7.31.08,10.88.15M1322.94,19.16c-.86.21,2.37.42,2.59.06.03-.05-.66-.11-1.03-.16-.54.03-1.37.05-1.56.1M1342.45,16.1c2.03.07,4.48-.24.67-.26-.54,0-1.13.07-1.69.1.33.06.54.14,1.02.16M1378.1,19.12c.08.07-.11.16.28.21,2.27.26,7.48.29,9.93.03,4.78-.5-6.72-.89-10.21-.24M1352.01,19.05c-1.47-.1-1.11-.11-1.37.03l1.37-.03ZM1427.31,17.4c4.87.07,4.16,0,4.8-.12-3.48-.1-3.97-.16-5.49,0-.12.01.38.12.69.13h0ZM1628.62,17.78c-4.9-.33-9.86-.26-14.94-.04,4.93.31,9.89.25,14.94.04M1377.58,23.41c-2.28-.14,2.54-.13-26.33-.13-.57,0-1.13.07-2.67.17,27.99.16,25.61.18,29-.04M1339.76,16.85c3.23.23,6.38.15,9.54-.02-3.21-.12-6.42-.3-9.54.02M1443.92,17.25c9.09.36,11.98-.07,14.65-.21-3.74.06-14.79-.61-14.65.21M1607.22,22.84c1.99.04,4.04.08,6.24.12-17.17.24-22.29.28-36.28.09-2.2.03-4.37.07-6.45.11-1.09.02-1.9.17-3.02.29,12.72.29,24.68-.09,26.79-.05,5.66.09,11.33.14,17.01.16,5.99-.07,12.02-.05,18.1,0,10.07-.03,20.15-.08,30.22-.08,2.3,0,5.02.12,7.15-.12-13.33-.32-27.22,0-40.12-.48-.29,0-8.53-.06-19.64-.04M1630.42,15.17c-4.64-.13-10.27.09-15.04-.02-5.28-.12-9.67.08-14.38.15,4.93.26-9.57.35,44.63.35,4.69-.86-9.61-.33-15.21-.48M1413.58,15.51c-.06.09-.37.18-.08.21,1,.09,2.14.22,3.34.23,12.18.13,55.35-.13,56.89-.61,2.27-.7-54.35.1-60.14.16h-.01ZM1575.53,15.26c1.2-.33-8.16-.4-11.65.03,4.6.25,9.92.44,11.65-.03M1486.05,23.47c.13-.13.56-.11-1.93-.07l1.93.07ZM1508.68,23.38c6.34.15,12.7.24,20.07.04-7.22-.3-13.71.04-20.07-.04M1286.37,18.89c-29.08-.04-26.43.17-29.25.62,17.33.32,34.42.07,57.4-.05-25.81-.75-15.74-.55-28.15-.57M1386.74,10.43c1.34,0,4.59-.1,5.47-.29,2.5-.54-4.6-.23-18.87-.76,1.9-.09,3.11-.2,4.36-.21,93.21-.29,68.15-.09,86.41-.17,15.04-.07,30.12-.32,45.09.07,8.49-.24,17.43-.13,25.99-.31-.76-.11-1.45-.24-2.42-.26-7.51-.18-202.25-.18-220.35-.07-.7.14-1.33.2-1.24.26,3.76,2.28,12.99,1.83,75.56,1.75h0ZM1335.72,9.33c4.88-.24,10.01-.2,15.1-.1,1.07.02,1.93.14,3.07.22-5.88.32-11.57.12-17.16.02-.4-.06-.71-.1-1.02-.15h.01ZM957.56,7.56c-2.37-.07-.59-.1-6.35.05,5.03.15,3.37.14,6.35-.05M952.83,15.42h-19.86c2.73.97,8.65.62,17.84.24.71-.03,1.12-.13,2.02-.24M919.61,12.39v.1c2.3-.07,2.39-.04,0-.1M949.21,13.72c-10.04-.32-19.77-.15-29.44-.08-1.47.01-2.43.41.79.46,9.66.14,19.31.23,28.64-.38h.01ZM921.44,15.51c-.77.01-1.54.03-2.32.04,2.22.05,1.58.05,2.32-.04M897.37,12.48h9.69c-3.4-.24-6.2-.27-9.69,0M655.4,9.99c-.01-.17-.09-.29-.03-.35-.41.03-.81.05-1.04.09-.68.11-.14.19,1.07.25h0ZM945.64,9.7c3.16-.37.76-.5,1.4-.55-3.45-.11-13.85-.56-40.18.05,2.76.28-1.54.18,24.38.66,5.25.1,10.85.27,14.41-.15h-.01ZM978.09,8.88c-30.51,0-24.15-.06-29.84.25,2.29-.02,8.26,0,23.34-.05,2.07,0,4.74.15,6.5-.2M815.01,13.23c3.85-.05,7.55-.16,11.18-.14,15.18.08,30.08-.37,45.28-.2,2.25.02,6.1-.24,9.15-.62-66.42.13-54.87.86-85.81-.24,12.31-.49,12.8-.27,15.03-.48,12.83-1.2,41.83-.48,59.13-.95.49-.01.42-.21.68-.37-34.08-.42-30.42-.1-35.89-.41,1.82-.27,4.73-.26,7.46-.25,16.68.06,33.35-.05,50.03-.04,5.21,0,10.1-.1,14.63-.34-3.23-.36-4.5-.24-41.69-.42-21.94-.1-49.17-.38-90.89.62-4.54.69,5.32.56-84.23.63-7.76,0-7.69.24-8.34.46s13.08.15,21.86.12c38.95-.15,37.37.76,51.59.36.4-.04.8-.07,1.21-.1.19,0,.47.02.8.03,1.84-.01,5.65-.33,6.79-.09,2.03.43-4.17.19-6.79.09-.34,0-.62,0-.8-.03l.41.06c-.58.02-1.09.03-1.62.05-.77.07-1.54.14-2.39.15-19.51.23-38.98.58-58.75.19-1.81-.03-4.03.13-6.34.21,3.01.23-9.28.14,93.67.44-28.09.89-23,.67-24.82,1.02,5.41.09,10.57.18,14.37.24,5.67.36,7.13.95,12.63,1.11,17.72.13,22.2.1,33.12-.16-.21-.28-.42-.56-.68-.91l.02-.03h0Z"/>
  <path class="st0" d="M1017.14,14.74c-.9.02-1.49.19-1.98.3-.52.11,4.61.42,12.53.05-3.71-.39-7.05-.44-10.55-.35M968.2,14.18c.54.03,1.1.1,1.62.1,2.5-.01,2.61-.08.27-.15-.52-.02-1.26.03-1.9.05,0,0,.01,0,.01,0ZM983.72,14.02c-1.4.05-1.58.09-.37.11.07,0,.22-.05.37-.11M654.94,10.74c4.6.04,4.22-.23,5.06-.67h-4.25c-1.56.27-4.01.64-.81.67M1882.34,27.01c-4.29.12-8.8.25-13.91.39,3.84.04,7.94.07,11.92.1,3.03-.04,5.74-.09,7.65-.15-.73-.1-1.29-.26-2.17-.28l-3.48-.06h-.01ZM688.11,9.44c-3.26-.3-6.62-.27-10.08-.03,3.27.3,6.62.28,10.08.03M671.07,10.69l-1.8-.08c-.14.16-.6.13,1.8.08M664.52,22.94c.12.09-.73.07,4.29.07-.13-.09.76-.07-4.29-.07M656.01,9.61h-.1c.58.03,1.8.17,4.2.4,1.47,0,3.02.02,4.39-.02,9.07-.25-2.43-1.22-8.49-.39h0ZM686.7,22.95c.56.09.29.14,5.25.1.21,0,.39-.04.57-.07-2.37.03-4.28.03-5.82-.02h0Z"/>
  <path d="M541.62,4.81h.1c-.58-.06-.48-.04-.1,0M755.39,10.85c-.41.03-.81.07-1.21.1.53-.02,1.04-.03,1.62-.05l-.41-.06h0ZM1229.32,4.32c24.28-.1,54.4.46,56.38.4,6.77-.21,13.6.1,20.28-.11,20.79-.65,52.81.2,281.99-.26,3.98,0,8.03-.74,9.88-1.08,4.93-.91-11.35-.73-161.24-.63-131.08.09-120.27.06-123,.25,32.29.2,32.95.09,34.84.56-29.3-.04-2.07.32-144.66.41-7.54,0-14.99.05-23.67.28,17.36.29,33.31.24,49.2.18M1358.87,3.11c7.18-.15,14.42-.15,22.65.12-9.58.27-18.28.21-26.87.23,1.36-.14,2.63-.32,4.22-.35M1353.12,3.51c-1.17.11-2.32.12-3.43,0h3.43ZM1406.4,5.01c-11.95-.08-24.08.1-36.12.17-1.23,0-2.37.16-3.93.27,13.09.33-17,.05,153.99.28,8.25.01,16.34.13,24.69-.05,8.7-.19,17.9-.07,27.83-.23-14.06-.74-119.09-.13-166.46-.44M795.67,5.45c-18.94-.3-36.07-.27-54.21.02,18.98.21,36.22.21,54.21-.02M118.83,7.19c-1.32-.06-2.62-.18-3.96-.18-44.17-.17-34.9-.14-47.18.13,30.95.41,39.67.41,51.14.05M847.03,3.02h-.69c.24,0,.47,0,.69,0"/>
  <path d="M846.35,3.03c-1.04-.05-2.39-.34-4.44-.38-10.91-.23-21.95-.3-32.99-.08-.67,0-1.05.16-2.26.36,13.78.07,26.62.32,39.7.09h-.01ZM671.91,1.99c7.43.2,14.27-.5,10.12-.62-7.39-.21-14.83-.23-22.27-.03-.15,0-.02.1-.02.17,3.36.31,7.95.37,12.17.48M91.11,5.81c-30.97-.14-25.87-.17-28.26.02,1.77.28,4.66.23,7.35.23,18.02-.04,17.59.05,20.91-.24h0ZM213.15,4.9c-4.36.12-9.12-.37-15.09.3,6.31-.14,10.92.12,15.09-.3M1093.6,4.52c-4.77-.19-9.34-.29-13.81.05,4.71.18,9.25.23,13.81-.05M1033.73,4.58c-3.84-.29-8.01-.22-12.35-.01,4.04.12,8.2.23,12.35.01M1274.45,5.65c1.42-.25-4-.54-7.9-.18,5.43.25,6.88.36,7.9.18M989.19,5.46h9.45c-3.73-.12-6.44-.18-9.45,0M1348.96,5.4c1.3.05,2.55.14,3.89.16,2.01.02,2.96-.07,2.29-.17-.95-.15-3.47-.05-6.18.01M249.7,4.95c-.92-.18-3.83-.03-5.86.04.45.05.81.11,1.36.13,1.81.08,5.49.01,4.49-.18h0ZM523.14.64c-.96-.13.2-.12-4.44-.05,1.63.2,3,.11,4.44.05M1332.48,5.4c-2.02-.06-1.31-.06-3.31.02,1.59.12.73.15,3.31-.02M232.88,4.93c-.33-.02-1.22.02-1.85.04.18.04.34.11.54.11,2.06,0,2.59-.06,1.31-.15M1792.19,4.07c-2.64.04-2.76,0-.12.1l.12-.1ZM864.09,3.41h-1.57c.82.21.39.2,1.57,0M847.81,3.08c-.5-.04-.76-.06-1.25,0h1.25ZM852.57,3.13c-.07-.03-1.57-.04-4.76-.05.48.04,1.16.11,2.49.18,1.76.09,2.69.03,2.27-.13M792.63,2.33c-.27-.02-1.2.02-1.83.04.15.04.31.09.46.13,2.03,0,2.57-.06,1.37-.17M541.26,4.77l.46.05c1.19-.15,1.35-.14-.46-.05M1111.49,5.65l.45.04c1.07-.14,1.22-.13-.45-.04M1047.86,12.03c-.22-.04-.41-.12-.68-.12-4.82-.05-4.15.03-4.8.12,2.01.11.52.12,5.48,0M1025.54,13.26c-.51,0-1.04.05-1.56.08.31.04.53.11.94.12,1.96.06,3.95-.19.62-.2M1098.38,10.06l.43-.03c-1.4-.05-1.34-.06-.43.03M756.19,10.88c-.33-.01-.61-.02-.8-.03.18.02.46.03.8.03M762.98,10.79c-1.14-.24-4.95.08-6.79.09,2.62.1,8.83.34,6.79-.09M1353.9,9.45c-1.14-.09-2-.2-3.07-.22-5.1-.1-10.22-.14-15.1.1.31.04.62.09,1.02.15,5.59.1,11.28.3,17.16-.02h-.01ZM1708.59,11.07c1.05-.06,1.52-.21,2.25-.33-1.07-.07-2.1-.18-3.22-.19-3-.02-5.24.11-6.42.38,1.46.08,4.95.28,7.39.13h0ZM1700.95,10.97c.06-.02.19-.02.25-.03-.73-.04-.98-.05-.25.03M1723.32,10.93h.1c.11-.02.28-.02.39-.04-1.98-.04-1.81-.06-.49.05h0Z"/>
  <path d="M1700.53,10.92c-.27.03-.52.03-.79.05h1.21l-.42-.05h0ZM1699.74,10.97h-3.2c1.04.09,2.11.09,3.2,0M1098.72,10.03s.06,0,.08-.01c-.09,0-.11.01-.08.01M1458.57,17.04c.33,0,.61-.02.82-.03-.27,0-.55.02-.82.03M1111.17,5.69h.77c-.22-.02-.48-.02-.77,0M14.73,4.66c-5.85.06-10.68.11-14.72.14v.63c26.05.26,20.95-.19,35.68.08,3.03.05,6.56-.26,20.08-.28,87.12-.12,87.94-.03,93.29-.16,14.5-.37,25.77.13,23.99-.19-1.64-.3-2.11-.38-6.73-.4-55.61-.28-53.33-.18-57.06-.44,7.23-.06,10.52-.05,16.51-.25,4.38-.15.57-.61-1.03-.62-9.76-.1-19.56-.17-28.51-.24-3.87-.34-4.88-.75-10.6-.82-51.26-.65-45.39-.28-56.4-.57-8.54-.22-19.16-.32-29.23-.37v3.14c5.84.11,10.82.23,14.72.37v-.02h0ZM89.58,3.65c-3.48.28-6.16.21-21.18.06.03-.08-2.32-.06,21.18-.06M29.71,4.51c2.92,0,1.95.23-.59.09.2-.03.39-.09.59-.09M1819.13,13.95l-1.06-.02c.28.02.64.02,1.06.02"/>
  <path class="st0" d="M1646.56,8.68c-.46-.21-1.66-.15-13.74.02,4.84.57,14.62.37,13.74-.02M1800.05,9.03c-.45-.2.91-.15-8.56-.15-.04.16-1.33.11,8.56.15M1715.15,8.72c-3.07,0-6.43-.03-9.17.24,29.2.36,68.94-.07,9.17-.24M1827.67,11.29c1.73-.38-6.69-.46-9.43-.16,1.87.36,7.43.6,9.43.16M1786.59,12.36c4.86.34-.98.21,21.83.52,7.89-.34,16.3-.06,24.5-.18,8.02-.12,16.48.07,24.75.08,1.87,0,3.77-.17,7.09-.33-19.26-.32-37.15.06-54.9-.11-7.47-.07-15.09.01-23.26.02h0ZM1724.18,13.19s.94.04,1.45.05c2.05-.26-1.52-.32-1.45-.05M1625.13,10.18c18.63.69,65.12-.15,70.17.77h.04c-.1,0,.17-.02.39-.04q.15-.01,0,0c.26.04.54.03.8.05h-1.1c-1.04.16-3.88.64,2.12.66,10.27.02,20.31.12,25.86-.69.2.03,2.76.13,15.53.67,59.46.18,52.3.19,55.18-.36-.47-.03-4.48-.38-8.14-.2-11.54.55-23.85.19-35.76.28-3.38.03-7.25-.18-8.92-.63,2.01-.06,3.92-.18,5.85-.18,47.3-.06,48.61.22,62-.46-1.47-.1-3.98-.29-5.56-.31-12.05-.12-24.12-.15-35.46.2-27.99-.69-45.65.1-70.26.09-71.86-.02-70.66-.94-72.76.16h.02,0ZM1631.86,8.69c-.36-.06-.67-.13-1.18-.14-3.95-.15-7.92-.17-11.91.02,4.17.46,8.51.48,13.08.13h.01ZM1576.84,9.93c-9.68-.04-28.07-.78-31.03.36,17.24.22,34.36.11,51.24.05,3.36-.88-8.53-.36-20.2-.41h-.01ZM1612.02,13.2c60.86,0,61.3-.02,65.65-.07,11.96-.16,23.83-.12,36.43-.12-8.66-.4-25.23.17-41.43-.58-2.22-.1-69.82.06-69.95.06-2.77,0-10.47.71,9.3.71"/>
  <path class="st0" d="M1638.37,11.05c-2.43-.05-8.87.02-10.75.21-.81.08-.77.24-1.21.4,4.64.05,47.85.18,51.53-.09,3.17-.73-9.46.07-39.57-.52M1783.02,13.66c-2.38.1-2.78.3-1.69.57,16.02.6,10,.56,28.35.14-14.05-.69-18.6-1.07-26.66-.71M1714.09,19c-1.08.02-.81.33.21.33,3.52.01,7.05,0,10.63,0,3.53-.61-6.77-.4-10.84-.34h0ZM1774.6,26.89c-.65.05-1.35.07-1.95.15,1.26,0,2.47.02,3.71.03-.47-.06-1.05-.12-1.76-.17h0ZM1566.81,12.95c6.98.09,12.33.03,16.05-.18-5.72.02-9.83-.08-16.05.18M1540.46,23.38c3.89.44,10.46.14,9.76-.03-.76-.19-4.53-.31-9.76.03M1171.68,7.67c71.94.12,69.12.07,71.33-.1-1.84-.14-3.41-.34-5.35-.38-5.11-.11-10.42-.22-15.57-.19-41.95.24-64.64-.3-68.84.19.95.1,1.77.27,2.88.29,5.14.09,10.35.18,15.55.19M1230.52,12.95c4.76.09,3.53.09,4.67-.02-1.59-.06-3.2-.14-4.67.02M1220.42,8.95c1.77-.04,3.48-.11,5.2-.17-1.58-.07-3.12-.16-4.78-.19-3.19-.07-2.23.41-.42.36M1240.81,8.45c-5.2-.07-10.2-.12-13.78.33,4.09.08,8.23.19,12.2-.03.83-.05,1.06-.19,1.59-.29h0ZM1217.99,12.94c.83-.11-4.4-.48-7.95.03,6.48.1,6.73.14,7.95-.03M1215.07,17.89c.12,0,16.31.21,15.33-.2-.75-.31-8.25-.3-15.33.2M1174.01,19.18s.56.01,1.15.03c-.55-.12-.99-.15-1.15-.03M1061.28,7.11c-29.28-.26-39.34-.22-44.38.19,9.13.33,10.83.8,44.38-.19M1097.18,13.54c8.31-.05,15.78-.1,23.26-.14-18.07-.43-33.81.49-50.4-1.52-21.32-.69-19.62-.34-23.87-.68.85-.11,1.45-.27,2.58-.33,3.33-.19,7.11-.28,10.95-.22,10.73.18,21.19-.03,31.69-.18,3.02-.04,5.55-.2,7.35-.45.39.01,16.2-.87,17.43-.94.62-.04.34-.21.46-.31-92.17-.39-86.18-.45-79.66.85-1.36.38-5.31.14-7.62.3-17.34,1.14-56.84.16-92.24.65-14.2,1.14-12.23.91-11.62,1.12,14.17.22,26.8-.23,38.58-.89,20.2.21,22.1.09,27.51.83-1.67,1.12-4.92.9-32.18,1.07.73.46,2.12.7,4.07.72,11.58.1,16.85,0,20.79.57,4.79.3,5.87,1,12.33,1.11,5.4-.12,5.72-.66,10-1.02,6.31-.07,51.67-.43,50.29.01-1.18.38.21.28-17.32.59-.62.27,1.44.38,3.42.4,11.35.12,22.72.17,33.75.04,2.05-.14,3.81-.26,5.45-.37,3.02.11,5.1.4,8.61.26,10.26-.84,9.11-.5,6.4-1.47h0ZM1103.14,7.67c0-.1,1.2-.08-7.94-.08.18.1-1.04.08,7.94.08M1202.26,9.03c-8.67-.31-1.71-.3-48.79-.61-2.98-.02-18.79-.16-18.95.22-.39.96,63.78.41,67.74.39M1130.66,12.85c1.19.22,2.12.39,3.17.58,7.79-.14,15.17-.27,22.51-.41,3.53-.07,3.87-1.05-25.68-.17M1121.51,15.03h-1.68c1.74.1,1.31.11,1.68,0M1575.77,8.88c5.99.14,11.6-.22,17.57-.24.24,0,.43-.13.73-.23-32.96,0-33.96-.13-37.38.16-3.49.64,6.69.01,19.07.3h.01ZM1535.84,7.16c-2.15-.04-1.24-.08-3.75.09,2.36.04,1.5.06,3.75-.09M1107.7,15.11l-.02-.11c-2.28.07-2.36.04.02.11M1547.99,14.93c-4.37.06-8.73.13-15.63.24,4.63.46,1.45.47,15.38.45,7.17-.01,5.21-.76.26-.69h-.01ZM1474.4,7.25c-15.89-.24-27.39-.24-51.54,0,16.28.11,32.56.15,51.54,0M1250.23,15.98c8.88.26,4.24.34,31.32.19,2.5-.01,5.45.02,7.3-.23-4.96-.26-10.33-.18-15.5-.18-6.7,0-13.5-.08-23.11.22h-.01ZM1290.71,14.71c-.97-.42,2.34-.41-18.36-1.4-.48-.02-1.39.04-2.1.06-.42.14-.84.27-1.24.4-6.63,0-2.01.2-8.75-.76-1.07-.15-2.72-.13-3.72.03-.07.01,1.03.46-12.37,1.17-20.86-.63-7.28-.5-55.66-.32-13.33.05-16.05-.11-24.42.31-1.53.08-3.98.21-1.49.52,2.56,0,5.6.04,8.48,0,19.24-.33,29.22.36,59.02.15,7.71-.05,15.06.07,20.49.25,14.59-.15,27.35-.27,40.12-.4h0ZM1236.14,19.3h1.35c-.81-.19-.43-.19-1.35,0M1294.89,7.57c-.55-.19-.77-.44-2.8-.4-2.23.04-.64.27.98.43.27.02,1.19-.02,1.82-.03M1546.58,8.6c-3.86-.18-1.21-.26-10.3.17,5.29.27,5.53.27,10.3-.17M11.22,24.66c.59.13.15.11,2.05.07-.55-.12.05-.12-2.05-.07M396.46,9.94c8.98-.09,37.43.14,45.06-.11-2.58-.66,8.62-.48-103.1-.53,44.76.35,39.17.83,58.05.64h0ZM489.63,18.11c12.37.5,22.91.31,36.55.11-13.53-.42-24.08-.22-36.55-.11M573.78,10.29h4.28c-1.6-.1-3.67-.24-4.28,0M39.76,24.68c.73.1,1.29.26,2.17.28l3.49.06c4.29-.12,8.8-.25,13.91-.39-3.84-.04-7.95-.07-11.92-.1-3.03.04-5.74.09-7.65.15M541.69,13.31c-7.8-.06-14.73.35-22.26.31-7.31-.04-14.14.49-22.6.16,2.46-.18,4-.35,5.94-.42,4.14-.16,22.91-.44,18.94-1.02-91.95-.17-100.88.21-118.28,1.46,17.18,1.56,45.53.07,60.4.33.42.24.76.43,1.18.67,35.28.05,42.37.22,57.81-.58,1.67-.09,33.3-.27,40.95-.9-7.42-.43-14.77.05-22.07,0h0ZM409.41,17.98c-3.6-.11-7.29-.15-10.53.15,3.16.68,12.71.24,12.32.13-.38-.1-.94-.25-1.79-.28M356.28,7.09c-.18-.04-1.01-.04-1.54-.07l-1.54.09c.4.04.74.11,1.21.12,1.64.03,2.41-.03,1.87-.14M391.97,11.09h-1.79c1.87.1,1.4.1,1.79,0M388.46,23.58h15.62c-3.84-.16-6.34-.05-15.62,0M421.25,18.06c1.97.5,6.69.58,10.95.53,3.96-.04,9.27.01,11.23-.59-22.92-.08-16.99-.09-22.18.06M1847.31,13.52c-15.16-.37-24.46.4-28.18.42h.43c-2.61.22-5.01.48-8.86.45l-.48.45c15.71.35,31.16.27,45.27-.24,16.75.3,29.65.29,44.51.28v-1.26c-17.9,0-48.45,0-52.69-.11h0Z"/>
  <path class="st0" d="M1819.13,13.95l-1.06-.02c.28.02.64.02,1.06.02M1800.95,22.89c-23.74.77-40.06.16-81.57.5,32.48.41,56.96-.04,103.69.31,23.77.18,48.95-.03,76.94-.1v-.8c-18.85.03-47.57.06-92.26.09-2.27,0-4.76-.06-6.79,0h-.01ZM1860.41,18.99c-21.62-.17-24.9-.4-32.67.77,22.22-.72,38.33.19,32.67-.77M1812.48,8.96c10.31.25,11.44.11,79.13.09h8.4v-.27c-42.32.05-72-.4-87.53.18M1821.36,10.02c-6.11.51,22.23.74,30.26.68,24.72-.19,15.5.14,31.46-.09,7.78-.11,13.14-.14,16.92-.12v-.45h-.17c-84.05-.13-74.01-.38-78.47-.01h0ZM29.21,10.65c1.43.34,6.62.03,2.01-.05-.62-.01-1.34.03-2.01.05M153.16,25.14c.65-.05,1.35-.07,1.95-.15-1.26,0-2.47-.02-3.71-.03.47.06,1.05.12,1.76.17h0ZM143.7,10.55c-78-.18-74.98-.27-82.8.24,14.48.43,27.45.15,39.96.39,16.26.31,32.67-.17,48.61-.08,4.06-.33-.51-.54-5.77-.55M380.35,11.08l-1.5.04c1.64.1,1.24.12,1.5-.04M110.67,21.91c-.51.04-1.06.08-1.86.15,2.14.08.6.11,5.57-.05-.58-.05-1.02-.08-1.42-.11h-2.29ZM128.65,9.59c2.24,0,4.5-.05,6.75-.05,3.15,0,5.53.03,7.5.06-1.5-.1-2.99-.23-4.58-.24-8.23-.07-16.55-.15-24.74-.1-37.1.24-36.85-.95-48.55-.26,1.36.69-6.93.34,63.62.58h0ZM146.03,9.66c7.68.17,7.17.42,30.73-.02-13.08-.27-22.07-.03-30.73.02M152.16,17.41c-4.2.41-2.09,1.24,16.91.46,1.26-.05,1.45-.34,2.1-.52-6.54-.4-15.8-.25-19,.06h-.01ZM318.47,24.32c2.46-.09,2.56-.05,0-.14v.14ZM277.32,8.44c-1.89-.04-3.23-.08-4.23-.11,3.2.24,2.4.2,4.23.11M204.83,9.78c16.92.31,27.51.21,38.22,0-13.2-.26-23.6-.11-38.22,0M317.28,8.06c4.51.22,2.59.21,7.37.03-4.44-.22-2.52-.22-7.37-.03M355.33,12.74c-3.9.12,3.62,1.15,18.17-.24-6.17-.13-2.37-.24-18.17.24M225.77,24.37c-.93,0-1.89.04-2.8.03-4.42-.05-8.62-.18-13.29-.13-6.93.08-12.05-.43-20.43-.27,2.88.2,8.69.36,13.22.52-.27.13-.15.34-.84.37-5.61.22-21.05-.15-20.59.41h.05c1.24,0,2.51,0,3.81-.02,14.74-.35,25.8-.09,41.21-.05-3.08-.11-6.19-.21-6.96-.61,2.78-.11,4.92-.19,6.64-.26h-.02ZM183.41,22.81h-.95c.06,0,.11,0,.18.02.07,0,.42,0,.77-.03h0ZM187.14,18.97c-2.76-.15-3.72.11-.63.1.22,0,.42-.07.63-.1M213.19,17.67c-9.91-.19-17.68-.21-25.98.24,11.22-.05,18.52.21,25.98-.24M192.2,23.36c-1.2,0-2.69.12-3.74.22-.14,0-.13.02-.24.04h36.14c-4.79-.13-9.59-.25-14.43-.26-5.83-.02-11.78.05-17.72,0h0ZM113.13,17.13c-58.55.12-55.55-.11-52.89.25,22.03.13,16.8.04,20.39.39-4.55.28-9.85.48-5.84.88,21.93.38,22.73-1.2,30.59-.54,3.33.72-.47.57,18.19.57,6.73-.33,12.59-.63,22.25-1.11-11.55-.11-19.21,0-26.04-.38-1.75-.1-4.42-.07-6.66-.06,0,0,.01,0,.01,0ZM1443.92,17.25c9.09.36,11.98-.07,14.65-.21-3.74.06-14.79-.61-14.65.21M1459.39,17c-.27,0-.55.02-.82.03.33,0,.61-.02.82-.03M1378.1,19.12c.08.07-.11.16.28.21,2.27.26,7.48.29,9.93.03,4.78-.5-6.72-.89-10.21-.24M1413.58,15.51c-.06.09-.37.18-.08.21,1,.09,2.14.22,3.34.23,12.18.13,55.35-.13,56.89-.61,2.27-.7-54.35.1-60.14.16h-.01ZM1339.76,16.85c3.23.23,6.38.15,9.54-.02-3.21-.12-6.42-.3-9.54.02M1484.12,23.4l1.93.07c.13-.13.56-.11-1.93-.07M1351.25,23.27c-.57,0-1.13.07-2.67.17,27.99.16,25.61.18,29-.04-2.28-.14,2.54-.13-26.33-.13M1343.12,15.83c-.54,0-1.13.07-1.69.1.33.06.54.14,1.02.16,2.03.07,4.48-.24.67-.26M1322.94,19.16c-.86.21,2.37.42,2.59.06.03-.05-.66-.11-1.03-.16-.54.03-1.37.05-1.56.1M1350.64,19.09l1.37-.03c-1.47-.1-1.11-.11-1.37.03M1426.61,17.27c-.12.01.38.12.69.13,4.87.07,4.16,0,4.8-.12-3.48-.1-3.97-.16-5.49,0h0ZM1260,17.92c17.78.36,6.82.56,27.24-.1,1.43-.29.26-.57-1.69-.52-12.89.29-17.51-.34-30.81-.06-2.54.05-5.59.17-5.62.53,3.37.24,7.31.08,10.88.15M1508.68,23.38c6.34.15,12.7.24,20.07.04-7.22-.3-13.71.04-20.07-.04M1535.19,8.76c-.76-.11-1.45-.24-2.42-.26-7.51-.18-202.25-.18-220.35-.07-.7.14-1.33.2-1.24.26,3.76,2.28,12.99,1.83,75.56,1.75,1.34,0,4.59-.1,5.47-.29,2.5-.54-4.6-.23-18.87-.76,1.9-.09,3.11-.2,4.36-.21,93.21-.29,68.15-.09,86.41-.17,15.04-.07,30.12-.32,45.09.07,8.49-.24,17.43-.13,25.99-.31h0ZM1286.37,18.89c-29.08-.04-26.43.17-29.25.62,17.33.32,34.42.07,57.4-.05-25.81-.75-15.74-.55-28.15-.57M1682.89,23.41c8.36.08,16.68.22,25.49-.02-8.31-.31-16.87-.09-25.49.02M1726.14,27.14c5.61-.22,21.05.15,20.59-.41h-.05c-1.24,0-2.51,0-3.81.02-14.74.35-25.8.09-41.21.05,3.08.11,6.18.21,6.96.61-.75.03-1.46.06-2.12.09h18.82c.22-.13.15-.32.81-.35h.01ZM1885.83,27.07l-3.48-.06c-4.29.12-8.8.25-13.91.39,3.03.03,6.22.06,9.38.08h4.14c2.38-.03,4.48-.08,6.05-.13-.73-.1-1.29-.26-2.17-.28h-.01ZM1725.42,15.07c7.4-.45,16.3-.15,24.74-.41-1.78-.07-2.96-.16-4.12-.16-10.76.02-50.05-.48-54.07-.46-9.26.05-18.04-.08-25.58-.46-5.27.15-9.59.37-13.94.37-12.72.02-25.66.26-38.09-.26-2.73-.11-37.16-.28-47.06.08-.81.03-.93.24-1.36.36,6.81.58,98.7-.05,110.23.45,18.13.78,23.19-.1,49.25.49M1088.02,19.04l1.43.05c.09-.08.41-.06-1.43-.05M1575.53,15.26c1.2-.33-8.16-.4-11.65.03,4.6.25,9.92.44,11.65-.03M1607.22,22.84c1.99.04,4.04.08,6.24.12-17.17.24-22.29.28-36.28.09-2.2.03-4.37.07-6.45.11-1.09.02-1.9.17-3.02.29,12.72.29,24.68-.09,26.79-.05,5.66.09,11.33.14,17.01.16,5.99-.07,12.02-.05,18.1,0,10.07-.03,20.15-.08,30.22-.08,2.3,0,5.02.12,7.15-.12-13.33-.32-27.22,0-40.12-.48-.29,0-8.53-.06-19.64-.04M1630.42,15.17c-4.64-.13-10.27.09-15.04-.02-5.28-.12-9.67.08-14.38.15,4.93.26-9.57.35,44.63.35,4.69-.86-9.61-.33-15.21-.48M1628.62,17.78c-4.9-.33-9.86-.26-14.94-.04,4.93.31,9.89.25,14.94.04M1661.77,16.84c2.44.1,1.88.11,2.17-.03l-2.17.03ZM978.09,8.88c-30.51,0-24.15-.06-29.84.25,2.29-.02,8.26,0,23.34-.05,2.07,0,4.74.15,6.5-.2M656.01,9.61h-.1c.58.03,1.8.17,4.2.4,1.47,0,3.02.02,4.39-.02,9.07-.25-2.43-1.22-8.49-.39h0ZM957.56,7.56c-2.37-.07-.59-.1-6.35.05,5.03.15,3.37.14,6.35-.05M919.78,13.63c-1.47.01-2.43.41.79.46,9.66.14,19.31.23,28.64-.38-10.04-.32-19.77-.15-29.44-.08h.01ZM921.44,15.51c-.77.01-1.54.03-2.32.04,2.22.05,1.58.05,2.32-.04M654.94,10.74c4.6.04,4.22-.23,5.06-.67h-4.25c-1.56.27-4.01.64-.81.67M655.4,9.99c-.01-.17-.09-.29-.03-.35-.41.03-.81.05-1.04.09-.68.11-.14.19,1.07.25h0ZM897.37,12.48h9.69c-3.4-.24-6.2-.27-9.69,0M945.64,9.7c3.16-.37.76-.5,1.4-.55-3.45-.11-13.85-.56-40.18.05,2.76.28-1.54.18,24.38.66,5.25.1,10.85.27,14.41-.15h-.01ZM919.61,12.39v.1c2.3-.07,2.39-.04,0-.1M1017.14,14.74c-.9.02-1.49.19-1.98.3-.52.11,4.61.42,12.53.05-3.71-.39-7.05-.44-10.55-.35M970.1,14.12c-.52-.02-1.26.03-1.9.05.54.03,1.1.1,1.62.1,2.5-.01,2.61-.08.27-.15,0,0,.01,0,.01,0ZM950.81,15.66c.71-.03,1.12-.13,2.02-.24h-19.86c2.73.97,8.65.62,17.84.24M983.35,14.13c.07,0,.22-.05.37-.11-1.4.05-1.58.09-.37.11M864.12,14.1c-.01.26,12.14.4,17.22-.07,5.91-.55-17.18-.68-17.22.07M864.19,8.77c-21.94-.1-49.17-.38-90.89.62-4.54.69,5.32.56-84.23.63-7.76,0-7.69.24-8.34.46s13.08.15,21.86.12c38.95-.15,37.37.76,51.59.36-.77.07-1.54.14-2.39.15-19.51.23-38.98.58-58.75.19-1.81-.03-4.03.13-6.34.21,3.01.23-9.28.14,93.67.44-28.09.89-23,.67-24.82,1.02,5.41.09,10.57.18,14.37.24,5.67.36,7.13.95,12.63,1.11,17.72.13,22.2.1,33.12-.16-.21-.28-.42-.56-.68-.91,3.85-.05,7.55-.16,11.18-.14,15.18.08,30.08-.37,45.28-.2,2.25.02,6.1-.24,9.15-.62-66.42.13-54.87.86-85.81-.24,12.31-.49,12.8-.27,15.03-.48,12.83-1.2,41.83-.48,59.13-.95.49-.01.42-.21.68-.37-34.08-.42-30.42-.1-35.89-.41,1.82-.27,4.73-.26,7.46-.25,16.68.06,33.35-.05,50.03-.04,5.21,0,10.1-.1,14.63-.34-3.23-.36-4.5-.24-41.69-.42,0,0,.02-.02.02-.02ZM664.52,22.94c.12.09-.73.07,4.29.07-.13-.09.76-.07-4.29-.07M671.07,10.69l-1.8-.08c-.14.16-.6.13,1.8.08M688.11,9.44c-3.26-.3-6.62-.27-10.08-.03,3.27.3,6.62.28,10.08.03M686.7,22.95c.56.09.29.14,5.25.1.21,0,.39-.04.57-.07-2.37.03-4.28.03-5.82-.02h0Z"/>
  <path d="M1708.63,27.4c-.78-.4-3.88-.5-6.96-.61,15.41.03,26.47.3,41.21-.05,1.29-.03,2.56-.03,3.81-.02h.05c.45.56-14.98.19-20.59.41-.65.03-.59.22-.81.35h152.48c-3.16-.03-6.35-.05-9.38-.08,5.11-.14,9.62-.27,13.91-.39l3.48.06c.88.02,1.44.18,2.17.28-1.56.05-3.67.09-6.05.13h18.05v-3.88c-27.99.07-53.17.28-76.94.1-46.73-.35-71.2.11-103.69-.31,41.51-.34,57.83.27,81.57-.5,2.03-.07,4.52,0,6.79,0,44.69-.03,73.41-.06,92.26-.09v-7.91c-14.87,0-27.76.02-44.51-.28-14.12.51-29.56.6-45.27.24l.48-.45c3.84.02,6.25-.23,8.86-.45h-.43c-.42,0-.79-.01-1.06-.03l1.06.02c3.72-.02,13.03-.8,28.18-.42,4.24.1,34.79.11,52.69.11v-3.14c-3.79-.03-9.14,0-16.92.12-15.97.23-6.74-.1-31.46.09-8.03.06-36.37-.17-30.26-.68,4.47-.37-5.58-.11,78.47.01h.17v-.99h-8.4c-67.69.02-68.81.16-79.13-.09,15.53-.58,45.21-.13,87.53-.18v-2.27c-12.92,0-25.18.06-34.07.18-33.16.47-42.62-.06-79.24-.21-18.01-.07-43.56.06-50.09-.03-10.56-.14-20.87-.27-31.41.11-3.94.14-9,0-13.55,0-59.67-.09-48.78-.13-54.2.09-2.59.39-3.89.67-5.94.56-3.87-.21-3.23-.23-5.55-.91-8.14-.18-16.2-.11-22.78.04-4.18.33-4.97.76-10.25.84-3.21-.19-6.97-.42-11.49-.69-11.33-.01-174.84-.05-176.69-.05-10.22,0-7.92.25-5.18.92-14.5.1-28.77.2-43.03.29-14.25-.33-28.61.29-43.01-.05,3.38-.91,14.58-.46,71.6-.7,2.07,0,2.44-.16-1.35-.44-28.37.03-59.36.07-90.29-.05-1.78-.35-1.64-.44.68-.41,1.21.01,14.35.32,16.62-.28,3.1-.81-19.99-.53-28.75-.34-1.78.36-3.05.61-4.53.91-30.86.28-195.16.24-202.69.08,5.4-.35,11.82-.1,31.64-.35,2-.03,3.62-.29,4.75-.35-23.06-.07-26.14-.13-58.37-.02-24.85.09-10.37,1.03-41.09.92-54.99-.2-59.42-.09-65.82-.29-9.69-.3-19.47-.26-29.3-.24-1.3,0-2.59.13-4.07.21,5.03.45-1.45.15,16.73.4,11.78.17,9.2,1.05,4.36,1-18.67-.19-32.85-.78-67.51-.17-.23,0-.28.1-.38.14.73.25,5.79.16,4.72.51-9.85.38-19.61-.02-29.33.1-9.79.12-19.69.17-29.5-.04,1.12-.42,7.15-.16,8.43-.56-7.65-1.31-79.68-1.29-94.92-.91-1.72.04-101.12-.31-115.03-1.02-6.13-.31-5.89-.2-60.89-.58-3.93-.03-6.74-.25-7.58-.33-12.97-.58-15.59-.09-28.75-.36-10.89-.22-15.6-.17-81.77.02-8.3.02-16.44.11-23.5.47-2.17.99-3.54,1.14-11.13,1.19-32.22.23-106.74-.61-133.65.3-4.1.14-9.18-.06-12.74.31,4.63.38,54.41.3,60.51.29,15.94-.03,14.72-.4,22.25-.23,3.08.07.87.45.24.48-7.61.31,5.31-.12-104.41.17-11.3.03-57.13.07-72.61-.3-4.36-.11-27.37-.34-24.66.13,9.74.6,11.8.37,83.1.5,66.3.12,51.34.22,57.55.5-22.38.58-.72.45-254.03-.55-1.6,0-3.95.05-4.55-.2,7.36-.37,31.69.08,36.54-.78-5.88-.34-1.21-.05-49.99-.44v2.3c14.66.16,28.3.27,39.95.25,2.47,0,16.3.06,14.62.26-2.32.28-3.2.35-5.25.32-3.68-.05-32.53-.25-49.33-.25v1.23c6.07.04,12.14.12,18.32.27-13.25.21-12.75.17-18.32.35v12.2c4.88.07,11.41.02,16.11-.14,35.74,0,81.17-.03,111.44-.06,1.39.12,2.8.24,4.06.35,7.11-.24,13.57-.37,20.07.11-.17.05-.31.09-.48.15-48.43-.26-39.63-.22-49.06-.2-39.79.08-73.52.12-102.14.14v3.9h1706.51c.66-.03,1.37-.05,2.12-.09l-.03.02h0ZM1774.6,26.89c.71.05,1.29.11,1.76.17-1.24,0-2.45-.02-3.71-.03.6-.07,1.3-.1,1.95-.15h0ZM1860.41,18.99c5.66.97-10.46.05-32.67.77,7.77-1.17,11.05-.94,32.67-.77M29.21,10.65c.67-.02,1.39-.06,2.01-.05,4.6.08-.58.39-2.01.05M11.22,24.66c2.1-.04,1.5-.05,2.05.07-1.9.04-1.46.06-2.05-.07M45.41,25.03l-3.49-.06c-.88-.02-1.44-.18-2.17-.28,1.91-.06,4.62-.11,7.65-.15,3.98.03,8.08.07,11.92.1-5.11.14-9.62.27-13.91.39M213.19,17.67c-7.46.45-14.76.18-25.98.24,8.3-.45,16.07-.42,25.98-.24M224.35,23.62h-36.14c.11,0,.1-.02.24-.04,1.05-.1,2.55-.23,3.74-.22,5.94.05,11.89-.02,17.72,0,4.84,0,9.64.13,14.43.26h0ZM187.14,18.97c-.21.04-.41.1-.63.1-3.1,0-2.13-.25.63-.1M183.41,22.81c-.35.02-.7.03-.77.03-.06,0-.11,0-.18-.02h.95ZM113.58,9.27c8.19-.05,16.51.03,24.74.1,1.59.01,3.08.14,4.58.24-1.97-.03-4.36-.05-7.5-.06-2.24,0-4.51.05-6.75.05-70.56-.24-62.26.11-63.62-.58,11.71-.7,11.45.5,48.55.26h0ZM108.8,22.06c.8-.07,1.36-.11,1.86-.15h2.28c.41.02.84.05,1.42.11-4.97.16-3.43.13-5.57.05h.01ZM123.57,18.69c-18.66,0-14.87.15-18.19-.57-7.86-.66-8.66.91-30.59.54-4.01-.39,1.29-.6,5.84-.88-3.59-.35,1.64-.26-20.39-.39-2.66-.37-5.66-.13,52.89-.25,2.24,0,4.9-.04,6.66.06,6.83.38,14.49.27,26.04.38-9.66.48-15.52.77-22.25,1.11h-.01,0ZM100.86,11.18c-12.51-.24-25.48.04-39.96-.39,7.82-.51,4.79-.42,82.8-.24,5.26.01,9.83.22,5.77.55-15.94-.09-32.35.39-48.61.08M153.16,25.14c-.71-.05-1.29-.11-1.76-.17,1.24,0,2.45.02,3.71.03-.6.07-1.3.1-1.95.15h0ZM169.07,17.87c-18.99.78-21.11-.04-16.91-.46,3.21-.31,12.46-.46,19-.06-.65.17-.84.46-2.1.52h.01ZM146.03,9.66c8.66-.04,17.65-.29,30.73-.02-23.56.44-23.04.19-30.73.02M184.87,25.3c-1.29.03-2.56.03-3.81.02h-.05c-.45-.56,14.98-.19,20.59-.41.69-.03.58-.24.84-.37-4.53-.16-10.34-.33-13.22-.52,8.38-.17,13.5.34,20.43.27,4.67-.05,8.87.08,13.29.13.91,0,1.87-.02,2.8-.03-1.72.07-3.86.15-6.64.26.78.4,3.88.5,6.96.61-15.41-.03-26.47-.3-41.21.05h.02,0ZM204.83,9.78c14.62-.1,25.02-.26,38.22,0-10.71.21-21.3.31-38.22,0M273.09,8.33c1,.04,2.34.07,4.23.11-1.84.08-1.03.12-4.23-.11M318.47,24.32v-.14c2.56.09,2.46.05,0,.14M317.28,8.06c4.84-.19,2.92-.2,7.37.03-4.78.19-2.86.19-7.37-.03M354.74,7.02c.53.02,1.36.03,1.54.07.53.11-.23.17-1.87.14-.46,0-.81-.08-1.21-.12l1.54-.09h0ZM441.52,9.83c-7.63.24-36.08.02-45.06.11-18.88.19-13.28-.29-58.05-.64,111.72.06,100.52-.13,103.1.53h0ZM391.97,11.09c-.39.1.07.1-1.79,0h1.79ZM355.33,12.74c15.8-.48,12-.37,18.17-.24-14.55,1.39-22.08.36-18.17.24M378.85,11.12l1.5-.04c-.26.15.13.14-1.5.04M388.46,23.58c9.28-.06,11.78-.17,15.62,0h-15.62ZM398.87,18.13c3.25-.29,6.93-.25,10.53-.15.84.03,1.41.18,1.79.28s-9.17.55-12.32-.13M432.2,18.6c-4.26.05-8.98-.04-10.95-.53,5.19-.14-.74-.13,22.18-.06-1.96.6-7.26.55-11.23.59M489.63,18.11c12.46-.11,23.01-.31,36.55.11-13.63.19-24.18.39-36.55-.11M522.81,14.21c-15.44.8-22.52.63-57.81.58-.42-.24-.76-.43-1.18-.67-14.86-.26-43.22,1.23-60.4-.33,17.4-1.25,26.33-1.64,118.28-1.46,3.97.58-14.8.86-18.94,1.02-1.94.07-3.49.24-5.94.42,8.46.34,15.29-.2,22.6-.16,7.53.04,14.46-.37,22.26-.31,7.3.06,14.65-.43,22.07,0-7.65.63-39.28.81-40.95.9h.01ZM573.78,10.29c.61-.24,2.68-.1,4.28,0h-4.28ZM1724.93,19.34h-10.63c-1.02,0-1.29-.32-.21-.33,4.07-.06,14.37-.27,10.84.34h0ZM1781.33,14.23c-1.09-.28-.69-.47,1.69-.57,8.06-.35,12.62.02,26.66.71-18.35.42-12.33.46-28.35-.14M1827.67,11.29c-2.01.44-7.56.21-9.43-.16,2.75-.3,11.17-.22,9.43.16M1864.75,12.45c-3.32.16-5.22.33-7.09.33-8.27-.01-16.73-.2-24.75-.08-8.2.12-16.61-.16-24.5.18-22.81-.31-16.97-.18-21.83-.52,8.18-.01,15.8-.1,23.26-.02,17.75.17,35.63-.2,54.9.11h0ZM1791.5,8.87c9.46,0,8.1-.05,8.56.15-9.89-.04-8.59,0-8.56-.15M1715.15,8.72c59.77.17,20.03.59-9.17.24,2.75-.26,6.11-.24,9.17-.24M1646.56,8.68c.88.39-8.9.59-13.74.02,12.08-.17,13.28-.23,13.74-.02M1697.88,10.03c24.62,0,42.27-.78,70.26-.09,11.34-.35,23.4-.32,35.46-.2,1.58.02,4.08.2,5.56.31-13.39.68-14.7.4-62,.46-1.92,0-3.83.11-5.85.18,1.67.45,5.54.66,8.92.63,11.91-.09,24.22.27,35.76-.28,3.66-.17,7.67.17,8.14.2-2.87.56,4.28.54-55.18.36-12.77-.54-15.33-.64-15.53-.67-5.56.81-15.59.71-25.86.69-5.99-.01-3.15-.5-2.12-.66h1.1c-.27-.02-.54-.02-.8-.05-.22.02-.49.04-.39.04h-.04c-5.06-.93-51.55-.08-70.17-.77,2.09-1.09.9-.17,72.76-.16h-.02,0ZM1725.63,13.25c-.51-.02-1.44-.04-1.45-.05-.08-.27,3.49-.2,1.45.05M1677.94,11.57c-3.68.27-46.89.14-51.53.09.43-.16.39-.32,1.21-.4,1.88-.19,8.32-.26,10.75-.21,30.11.59,42.74-.22,39.57.52M1630.68,8.55c.51.02.81.09,1.18.14-4.57.35-8.91.34-13.08-.13,3.99-.19,7.96-.17,11.91-.02h-.01ZM1602.72,12.49c.13,0,67.72-.17,69.95-.06,16.19.75,32.77.18,41.43.58-12.6,0-24.47-.03-36.43.12-4.34.06-4.78.07-65.65.07-19.77,0-12.07-.7-9.3-.71M1545.81,10.29c2.97-1.14,21.35-.4,31.03-.36,11.68.05,23.56-.47,20.2.41-16.88.05-34,.16-51.24-.05h.01ZM1582.86,12.77c-3.72.21-9.07.27-16.05.18,6.22-.26,10.33-.17,16.05-.18M1556.7,8.58c3.41-.29,4.42-.16,37.38-.16-.31.1-.5.23-.73.23-5.97.02-11.58.38-17.57.24-12.39-.29-22.56.34-19.07-.3h-.01ZM1546.58,8.6c-4.77.43-5.01.44-10.3.17,9.09-.43,6.44-.35,10.3-.17M1535.84,7.16c-2.25.15-1.39.13-3.75.09,2.51-.16,1.59-.13,3.75-.09M1474.4,7.25c-18.98.15-35.26.11-51.54,0,24.15-.24,35.65-.24,51.54,0M1292.09,7.17c2.03-.04,2.25.21,2.8.4-.62.01-1.55.05-1.82.03-1.62-.15-3.22-.38-.98-.43M1222.08,6.99c5.15-.03,10.46.09,15.57.19,1.94.04,3.51.24,5.35.38-2.21.17.61.23-71.33.1-5.2,0-10.41-.1-15.55-.19-1.11-.02-1.93-.19-2.88-.29,4.2-.49,26.89.04,68.84-.19M1227.03,8.77c3.58-.45,8.58-.4,13.78-.33-.53.1-.76.25-1.59.29-3.97.22-8.1.12-12.2.03h0ZM1235.18,12.93c-1.14.12.09.12-4.67.02,1.47-.17,3.08-.09,4.67-.02M1225.62,8.78c-1.72.06-3.43.12-5.2.17-1.82.05-2.77-.43.42-.36,1.66.03,3.21.12,4.78.19M1217.99,12.94c-1.23.17-1.47.13-7.95.03,3.56-.52,8.78-.14,7.95-.03M1153.47,8.42c47.08.31,40.12.29,48.79.61-3.96.03-68.13.57-67.74-.39.15-.38,15.97-.24,18.95-.22M1103.14,7.67c-8.98,0-7.76.03-7.94-.08,9.14,0,7.94-.03,7.94.08M1061.28,7.11c-33.56.99-35.25.53-44.38.19,5.05-.41,15.11-.45,44.38-.19M957.56,7.56c-2.98.19-1.32.2-6.35.05,5.76-.15,3.98-.12,6.35-.05M978.09,8.88c-1.76.35-4.43.19-6.5.2-15.08.05-21.05.03-23.34.05,5.7-.31-.66-.25,29.84-.25M947.04,9.15c-.64.05,1.76.18-1.4.55-3.56.42-9.16.25-14.41.15-25.92-.48-21.62-.38-24.38-.66,26.34-.61,36.74-.16,40.18-.05h.01ZM919.61,12.49v-.1c2.4.06,2.31.04,0,.1M654.33,9.74c.23-.04.63-.06,1.04-.09-.06.06.02.17.03.35-1.21-.06-1.75-.14-1.07-.25h0ZM654.94,10.74c-3.2-.03-.75-.39.81-.67h4.25c-.84.45-.46.71-5.06.67M660.11,10.01c-2.41-.23-3.62-.37-4.2-.4h.1c6.06-.83,17.56.14,8.49.39-1.37.04-2.92.01-4.39.02h0ZM664.52,22.94c5.05,0,4.16-.02,4.29.07-5.03,0-4.17.02-4.29-.07M669.27,10.61l1.8.08c-2.4.05-1.94.08-1.8-.08M688.11,9.44c-3.47.25-6.82.26-10.08-.03,3.46-.24,6.82-.27,10.08.03M691.95,23.05c-4.96.04-4.69,0-5.25-.1,1.54.06,3.45.06,5.82.02-.18.03-.36.07-.57.07h0ZM881.33,14.03c-5.08.47-17.23.33-17.22.07.03-.76,23.13-.62,17.22-.07M841.22,9.57c-2.73,0-5.64-.02-7.46.25,5.47.31,1.81-.01,35.89.41-.26.16-.2.36-.68.37-17.3.48-46.31-.24-59.13.95-2.23.21-2.72,0-15.03.48,30.95,1.1,19.4.36,85.81.24-3.05.38-6.9.65-9.15.62-15.2-.17-30.11.28-45.28.2-3.63-.02-7.34.09-11.18.14.26.35.47.63.68.91-10.92.27-15.4.29-33.12.16-5.49-.17-6.96-.75-12.63-1.11-3.81-.06-8.96-.15-14.37-.24,1.83-.35-3.26-.13,24.82-1.02-102.96-.3-90.67-.2-93.67-.44,2.3-.08,4.53-.24,6.34-.21,19.77.38,39.24.03,58.75-.19.84,0,1.62-.08,2.39-.15-14.21.4-12.64-.51-51.59-.36-8.78.03-22.51.1-21.86-.12s.58-.45,8.34-.46c89.55-.06,79.68.06,84.23-.63,41.72-.99,68.95-.72,90.89-.62,37.2.18,38.46.06,41.69.42-4.53.25-9.43.35-14.63.34-16.68,0-33.35.1-50.03.04,0,0-.02.02-.02.02ZM897.37,12.48c3.49-.27,6.29-.24,9.69,0h-9.69ZM919.12,15.55c.77-.01,1.54-.03,2.32-.04-.74.09-.09.09-2.32.04M920.57,14.09c-3.22-.05-2.26-.45-.79-.46,9.67-.07,19.39-.24,29.44.08-9.33.6-18.98.51-28.64.38h-.01ZM950.81,15.66c-9.19.38-15.11.73-17.84-.24h19.86c-.9.11-1.31.21-2.02.24M969.82,14.27c-.53,0-1.08-.06-1.62-.1.64-.02,1.38-.07,1.9-.05,2.34.07,2.22.14-.27.15,0,0-.01,0-.01,0ZM983.35,14.13c-1.22-.02-1.03-.06.37-.11-.15.05-.3.11-.37.11M1015.16,15.04c.5-.11,1.09-.28,1.98-.3,3.49-.09,6.84-.04,10.55.35-7.92.36-13.05.06-12.53-.05M1089.45,19.09l-1.43-.05c1.84-.02,1.52-.03,1.43.05M1090.78,15.01c-3.52.14-5.59-.14-8.61-.26-1.64.11-3.4.23-5.45.37-11.02.13-22.4.08-33.75-.04-1.99-.02-4.04-.13-3.42-.4,17.53-.31,16.14-.21,17.32-.59,1.37-.44-43.98-.08-50.29-.01-4.27.36-4.6.9-10,1.02-6.46-.11-7.54-.8-12.33-1.11-3.94-.58-9.21-.47-20.79-.57-1.95-.02-3.34-.26-4.07-.72,27.25-.17,30.51.05,32.18-1.07-5.42-.74-7.31-.62-27.51-.83-11.77.66-24.4,1.11-38.58.89-.61-.21-2.58.01,11.62-1.12,35.4-.49,74.89.49,92.24-.65,2.31-.15,6.26.08,7.62-.3-6.53-1.3-12.51-1.24,79.66-.85-.12.1.15.28-.46.31-1.23.07-17.04.95-17.43.94-1.8.25-4.32.41-7.35.45-10.5.14-20.97.35-31.69.18-3.84-.06-7.62.03-10.95.22-1.13.06-1.73.22-2.58.33,4.25.34,2.55-.01,23.87.68,16.59,2.01,32.33,1.08,50.4,1.52-7.47.05-14.95.09-23.26.14,2.7.96,3.86.63-6.4,1.47h0ZM1107.68,15l.02.11c-2.38-.07-2.3-.04-.02-.11M1119.83,15.03h1.68c-.37.1.06.09-1.68,0M1156.34,13.02c-7.34.14-14.72.27-22.51.41-1.06-.19-1.98-.36-3.17-.58,29.55-.88,29.21.1,25.68.17M1174.01,19.18c.16-.13.6-.1,1.15.03-.59-.01-1.16-.02-1.15-.03M1215.07,17.89c7.08-.5,14.58-.51,15.33-.2.98.41-15.21.2-15.33.2M1230.1,14.86c-29.8.21-39.78-.48-59.02-.15-2.88.05-5.93,0-8.48,0-2.49-.31-.04-.45,1.49-.52,8.36-.42,11.09-.26,24.42-.31,48.38-.18,34.8-.32,55.66.32,13.39-.71,12.3-1.15,12.37-1.17,1-.16,2.65-.18,3.72-.03,6.75.96,2.12.76,8.75.76.39-.13.82-.27,1.24-.4.71-.02,1.62-.08,2.1-.06,20.71,1,17.39.98,18.36,1.4-12.77.13-25.53.25-40.12.4-5.43-.18-12.77-.3-20.49-.25h0ZM1288.85,15.94c-1.85.25-4.8.22-7.3.23-27.08.15-22.44.07-31.32-.19,9.61-.31,16.42-.23,23.11-.22,5.17,0,10.54-.08,15.5.18h.01ZM1236.14,19.3c.92-.19.54-.19,1.35,0h-1.35ZM1249.12,17.77c.02-.36,3.08-.48,5.62-.53,13.3-.28,17.92.35,30.81.06,1.95-.04,3.12.23,1.69.52-20.42.66-9.46.46-27.24.1-3.57-.07-7.52.08-10.88-.15M1257.12,19.5c2.82-.45.17-.66,29.25-.62,12.41.02,2.34-.18,28.15.57-22.98.12-40.07.36-57.4.05M1322.94,19.16c.19-.05,1.02-.07,1.56-.1.36.05,1.06.11,1.03.16-.21.35-3.45.14-2.59-.06M1339.76,16.85c3.12-.32,6.32-.14,9.54-.02-3.16.17-6.3.25-9.54.02M1341.43,15.94c.57-.04,1.15-.11,1.69-.1,3.81.02,1.36.34-.67.26-.48-.02-.69-.1-1.02-.16M1348.58,23.44c1.54-.1,2.1-.17,2.67-.17,28.87,0,24.05,0,26.33.13-3.39.22-1.01.19-29,.04M1350.64,19.09c.26-.14-.11-.13,1.37-.03l-1.37.03ZM1388.31,19.36c-2.45.26-7.66.23-9.93-.03-.39-.04-.2-.14-.28-.21,3.49-.65,14.99-.26,10.21.24M1427.31,17.4c-.31,0-.81-.11-.69-.13,1.52-.15,2.01-.09,5.49,0-.64.11.07.19-4.8.12h0ZM1458.57,17.04c-2.67.14-5.56.57-14.65.21-.14-.82,10.91-.16,14.65-.21.27-.01.54-.03.82-.03-.2.02-.49.03-.82.03M1473.72,15.35c-1.54.47-44.71.74-56.89.61-1.2-.01-2.34-.14-3.34-.23-.29-.03.02-.11.08-.21,5.79-.07,62.42-.87,60.14-.16h.01ZM1486.05,23.47l-1.93-.07c2.48-.04,2.05-.06,1.93.07M1464.11,9.01c-18.26.08,6.79-.12-86.41.17-1.25,0-2.46.11-4.36.21,14.27.54,21.37.22,18.87.76-.88.19-4.13.29-5.47.29-62.56.09-71.8.53-75.56-1.75-.09-.05.54-.12,1.24-.26,18.1-.11,212.85-.11,220.35.07.97.02,1.66.16,2.42.26-8.56.18-17.5.08-25.99.31-14.97-.39-30.05-.14-45.09-.07h0ZM1508.68,23.38c6.36.09,12.85-.26,20.07.04-7.37.19-13.73.1-20.07-.04M1540.46,23.38c5.23-.34,9-.22,9.76-.03.7.17-5.87.47-9.76.03M1547.73,15.61c-13.93.03-10.74.01-15.38-.45,6.9-.11,11.26-.18,15.63-.24,4.95-.07,6.92.68-.26.69h.01ZM1659.83,23.48c-10.07,0-20.15.05-30.22.08-6.08-.06-12.12-.08-18.1,0-5.67-.02-11.34-.07-17.01-.16-2.12-.03-14.07.34-26.79.05,1.12-.11,1.93-.26,3.02-.29,2.09-.04,4.26-.07,6.45-.11,13.99.2,19.12.15,36.28-.09-2.2-.05-4.25-.09-6.24-.12,11.11-.02,19.35.03,19.64.04,12.9.47,26.78.17,40.12.48-2.13.24-4.85.12-7.15.12M1563.88,15.3c3.48-.44,12.85-.36,11.65-.03-1.73.48-7.05.28-11.65.03M1601,15.31c4.72-.07,9.11-.27,14.38-.15,4.77.11,10.4-.11,15.04.02,5.6.15,19.9-.38,15.21.48-54.2,0-39.7-.09-44.63-.35M1628.62,17.78c-5.05.21-10.01.27-14.94-.04,5.08-.22,10.04-.29,14.94.04M1661.77,16.84l2.17-.03c-.28.15.27.13-2.17.03M1565.94,14.13c.43-.13.55-.33,1.36-.36,9.91-.36,44.33-.19,47.06-.08,12.43.52,25.36.28,38.09.26,4.36,0,8.68-.23,13.94-.37,7.54.38,16.32.5,25.58.46,4.03-.02,43.31.48,54.07.46,1.16,0,2.34.09,4.12.16-8.44.26-17.34-.03-24.74.41-26.05-.59-31.11.28-49.25-.49-11.54-.49-103.42.14-110.23-.45M1682.89,23.41c8.62-.1,17.18-.33,25.49-.02-8.81.23-17.13.09-25.49.02"/>
  <path d="M1880.35,27.5c.55,0,1.08,0,1.6-.02h-4.14c.85,0,1.7,0,2.54.02"/>
</svg>