<?xml version="1.0" encoding="UTF-8"?>
<svg id="Capa_1" xmlns="http://www.w3.org/2000/svg" version="1.1" viewBox="0 0 300 200">
  <!-- Generator: Adobe Illustrator 30.2.1, SVG Export Plug-In . SVG Version: 2.1.1 Build 1)  -->
  <path d="M299.05,69.32c-4.7-8.96-.41-7.9-7.25-16.6-1.14-1.45-2.16-2.79-3.43-4.1-.85-.89-2.28-1.76-2.61-2.95l-1.05-3.77c-.14-.51-1.23-1.19-1.72-1.21-1.38-.05-2.56,2.18-4.08,2.89-1.96-.55-4.06-.96-5.82-1.16-2.5-2.86-4.98-1.16-7.57-.16-3.46,1.34-7.61,1.49-11.39,2.52-5.44,1.49-11.79,2.49-17.31,2.25-5.83-.25-10.44-3.11-15.92-1.89-1.8.4-3.64,1.35-5.46,1.86-2.96.83-5.9.27-8.81-.13-4.89-.66-.76.25-6.79-1.05l-2.52-.54c-.54-.12-1.28-.12-1.78-.03-4.3-1.95-15.86-4.05-20.75-4.55l-5.61-.57c-2.73-.28-5.41-.68-8.16-.81l-11.96-.58-10.34-.32c-2.41-.07-4.66-.3-7.1-.05-2.46.25-5.11.17-7.46.81l-8.33,2.27c-6.56,1.79-18.68,8.11-23.45,13.2-1.3,1.38-2.61,2.84-3.72,4.33l-6.24,8.39c-.41.56-.82,1.76-1.26,2.43-2.73,4.23-6.36,11.23-8.43,15.86l-2.29,5.14-2.62,5.78-2.23,4.85c-1.81,3.95-4.73,6.95-6.95,10.69l-1.49,2.51c-1.57,2.65-3.83,4.66-5.84,6.95-1.89,2.15-3.86,3.62-6.44,4.85-1.5.72-3.31,2.8-7.59,4.14-4.04,1.27-10.82,2.78-14.26.32-.11.2-.27.7-.42.67-.16-.04-.58-.17-.74-.25l-3.18-1.46c-3.14-3.24-1.56.69-4.79-5.75-.69-1.38-1.01-2.67-1.33-4.2-1-4.88.48-2.04-.31-7.47-.16-1.1-.99-4.97-1.35-4.85l-1.22.42.64-1.3-1.55.94-.36-1.08c-1.81.32-3.05,1.03-4.17,2.14-4,3.96-1.3,5.41-3.55,6.62-.23,1.88-.48,5.35.17,6.7-.06-.12-.71.24-.67.37l1.37,4.53-1.23-1c.59,2.13,1.51,3.65,2.54,5.52l-.18,1.4c1.15,1.57,2.29,2.92,3.55,4.17l-.89.29c2.32,2.85,5.07,4.73,8.1,6.6,1.23.76,2.48,1.79,3.97,2.11l4.46.95c.14.03.64-.09.7.04.04.08.06.25.13.64l4.98-.12c.61-.01,1.45.54,2.29.13.28-.14,1.03-.47,1.21-.32.18.15.45.45.55.54l4.28-.73c3.73-.64,4.41-1.69,7.34-1.89.51-.1,1.6-.51,2.02-.79l2.17-1.49-.24,1.11,2.61-1.64c1.59-1,3.78-3.21,4.07-3.11l.6.22,2.91-2.36,2.61-3.4c.53-.69,2.28-1.06,3.02-1.56,1.23-1.65,2.26-3.21,3.55-4.68l2.38-2.72c.3-.34,1-.93,1.29-1.36l2.87-4.3c2.18-3.26,2.06-3.29,3.86-6.61l2.31-4.27,5.47-10.89c1.99-3.97,3.59-8.03,5.79-12.02l2.5-4.53-.63,4.73c-.13.94-.16,1.89-.22,2.85l-.16,2.65-.28,2.84-.22,1.04c-.03.15.34.33.29.46l-1.08,3.04c-.53,1.48-1.25,3.01-2.1,4.23-.5.71-.67,1.36-1.02,2.01-1.4,2.63-3.09,4.87-4.77,7.38-1.95,2.91-6.8,3.3-7.31,7.87-.35,3.13-.65,6.1-1.29,9.2-1.46,7.1-1.98,14.15-2.33,21.44-.08,1.67.29,3.56,1.03,4.87l2.51,4.4c.6,1.05,3.33,1.44,4.54,1.33,3.17-.3,7.57.31,8.66-2.52.83-2.15.7-4.77-.53-6.46-1.26-1.73-2.81-2.5-4.91-2.17-.36-5.85.59-13.44,3.53-18.15,5.59-6.06,11.86-4.83,19.76-10.31,4.28-2.97,6.99-3.55,9.6-5.96l4.15-3.84c.36-.33,1.4-.61,1.72-1.02l1.3-1.66c-.51,4.47.61,3.62.89,8.54l.8-1.8-.86,5.24c.34.33.39.34.95-.05l-.39,2.37c-.48,2.87-.93,5.78-2.16,8.41-1,2.13-.49,3.86.72,5.76,2.12,3.33,6.66,9.42,9.59,12.01,2.85,2.51,5.18,5.12,7.74,7.78,1.16,1.57,8.66,2.13,10.41,2.02,1.8-.11,3.92-.49,5.48-1.08,2.4-.91,2.07-3.92,1.19-5.68-.84-1.67-1.68-2.58-3.25-3.43-1.29-.69-2.57-1.05-4.05-.39-.68.3-2.38.66-2.95.09-2.89-2.85-5.75-5.49-7.88-8.9-1.86-2.98-.81-7.02.81-9.89l3.05-5.43c1.13-2.01,2.02-4.07,2.99-6.22,3.98-8.76,2.02-6.85,4.17-13.15.11-.32.98-.62,1.2-.43,1.99,1.74,1.61.38,5.65.93,1.23.17,1.95.19,3.03.24,1.03.05,1.95.27,2.94-.06.28-.09.58-.21.63-.1l.23.47,3.46-.23c2.96-.2,6.01-.81,9.12-.19,4.2.84,1.76-.02,7.05.35,1.57.11,2.91.51,4.48.69l5.48.65c1.77.21,3.48.78,5.16,1.04,1.92.3,2.63,1.13,2.94,2.98.51,3.03.58,6.1.99,9.21l1.31,10.13,1.93,10.82c.29,1.62-.07,3.37-.02,5.12.03.94,1.37,1.78,1.71,2.57.57,1.33.75,2.9,1.26,4.25l1.34,3.54c.35.93,1.47,2.19,2.06,3.13,2.74,1.04,5.76,1.61,8.6,1.13l5.66-.96c1.69-.29,2.77-2.29,2.23-4.15-.52-1.8-1.42-3.88-3.09-4.96-2.01-1.29-5.18.73-5.93-1.49-.92-2.73-1.74-5.56-1.55-8.48l.62-9.79.99-12.47c.23-2.85,1.04-5.44,3.71-6.84l3.87,3.98c1.03,1.06,2.38,1.54,3.6,2.23,2.33,1.33,4.45,3.19,6.98,4.33l11.17,5.03c1.55.7,3.5,1.55,4.44,2.87l2.26,3.2c.85,1.2,1.5,3.9,1.53,5.38.04,2,.1,3.41.63,5.26.51,1.77.71,3.78,2.2,4.94,1.32,1.03,2.82,1.74,4.52,1.28,4.94-1.32,5.04-10.19,3.6-14.74l-1.64-5.18c-3.03-9.58-11.55-15.83-18.21-22.88-1.32-1.39-2.59-3.99-1.99-5.47l1.11-2.73,1.38-5.35.85-3.64c.49-2.09,1.54-3.35,3.22-4.62l2.68-2.02c3.27-2.47,8.71-6.62,12.97-6.88,13.92-.88,14.66,4.14,20.99,4.29,2.3.05,3.4-1.46,4.87-2.83l2.76-2.58c2.09-1.95,2.77-4.29,1.37-6.97Z"/>
</svg>