<?xml version="1.0" encoding="UTF-8"?>
<svg id="Capa_1" xmlns="http://www.w3.org/2000/svg" version="1.1" viewBox="0 0 300 200">
  <!-- Generator: Adobe Illustrator 30.2.1, SVG Export Plug-In . SVG Version: 2.1.1 Build 1)  -->
  <path d="M298.95,71.8l-1.23-2.11c-4.6-6.09-1.67-9.86-2.59-11.91-1.63-3.61-3.58-7.21-6.49-9.85-1.63-1.48-3.2-2.77-4.2-4.53l.25-1.01s.02.01.03.02c.47-.55.96-1.21,1.21-1.67-2.63-.48.69-1.03.95-5.11.05-.78.1-2.03-.61-2.26-5.37,3.07-6.29,3.81-12.28,5.62-.65-2.09-1.39-3.97-2.75-5.48-1.05-1.17-2.76-1.31-4.11-.62-3.74,1.91-3.87,5.07-6.95,6.93h-3.3s.73.81.73.81l-3.7.1c-.55,1.41-1.08-.07-3.14,1.17l-3.14-.23c-.26.66-2.59.65-4.75,1.2l-3.17.8c-.75.19-1.82.63-2.88.56l-4.68-.31c-.76-.05-6.28-2.35-7.24-2.98l.82,1.35-2.76-1.89.02,1.33-3.52-1.36.75,1.45-4.9-1.05.99,1.05c-.21-.07-.67-.24-1.08-.36-.23-.07-.38.18-.72.72-1.08-.06-2.74-.61-3.84-1.13l-.48.38c-.1.08.23.39.33.48l1.06.96-4.65-1.46c.06.53.24.85.49,1.04l-1.82.34s0-.03,0-.04c-.08-.18-.45-.8-.63-.73l-.8.33c-1.1-.45-2.62-1.19-3.62-.44-1.13.84-2.36-.54-3.6-.49-1.25.05-2.17-.1-3.41-.85-.07-.04-.21.55-.09.68l.55.54-1.05-.12c-.14-.02-.23.06-.48.29l-.31-.07h0s-3.34-1.59-3.34-1.59c-1.35,1.37-2-.65-4.7-.57-.25.07-.49.15-.46.26l.12.55-3.19-1.07,1,.96-2.72-.44c-1.45-.24-3.1-1.07-4.52-1.19l-3.31-.27c-.23-.02-.52-.06-.53-.06,0,0-.07.34-.08.38l-2.75-.13-3.68-.83,1.33.99c-1.29-.19-1.77-.06-2.54.05-.64.09-1.63-1.21-2.28-.25l-4.44-1.12-3.32-.58.65.75c-6.98-1.74-4.08.44-9.42-1.01-.15-.04-.11.36.02.45l.63.48-3.96-1.03c-4.22.31-2.96.91-7.76.43l.99.68c-4.56-.4-3.25.31-5.17.28-.76-.01-1.37.29-1.87.38l-3.38.65,1.73.4c-3.4.91-3.97,1.55-9.48,2.28l1.89.4-2.03.5c-.51.12-1.39.85-1.88.98l-7.74,1.97,2.24.1c-2.03.94-3.48,1.63-5.05,2.57.67.03,1.23-.09,1.74-.24l-.45.66c-.14.05-.28.12-.41.19-2.08,1.18-4.37,2.11-5.94,3.89-.86.97-1.56,2.24-3.48,3.38l-.19.99-2.82,2.18,1.78-.22c-.66.47-1.28.87-1.77,1.53-1.62,2.2-3.72,4.5-5.73,6.14-.22.21-.04,1.2-.21,1.49-.65,1.13-2.2,3.01-3.3,4.21-.19.21.04,1-.05,1.27-.37,1.17-1.59,2.87-2.5,4.27l.99-.22c-.78,1.54-2.5,3-3.24,4.7-.43,1-.71,1.99-1.33,3.01-1.16,1.88-2.13,3.51-3.57,5.26l.57.88c-1.97,2.34-4.03,4.49-6.3,6.71l.35.64-4.15,4.11-1.29,2.33-3.82,4.02c-.6.63-1.01,1.3-1.87,1.72-.62.31-1.02,1.09-1.45,1.5-2.3,2.2-5.27,3.49-8.07,4.67l.87.42c-.79.41-1.78,1.13-2.47,1.36l-5.26,1.76.71.44-1.77.17.92.18-1.2.14c-.52-.29-.85-.31-1.65,1.02l-4.69-.7.75,1.07-4.01-.3c-.91,1.18-1.36.77-2.53.62l-4.43-.57c.24.38.49.71.76.99l-.12.09c-1.27-.71-4.23-1.44-3.77-.37l-2.8-.68.9,1.84-3.36-1.26.53,1.01-4.18-.36.89.88c-2.93.27-.92.64-4.63,1.35l.58.53-2.87,1.39c1.2.49.92.49.2.57l-.73.7c-.09.09.24.42.28.49-1.02.74-1.97,1.6-2.54,2.59l.59,1.78c-1.32.92-1.61,4.68-1.57,4.72l.72.67-.51.51.61.58c1.02.07.46.04.06,0-.11,0-.44.02-.36.11l.37.47c.28.35.82,1.44.84,1.9.69.86,2.18,1.66,3.26,2.18l-2.1-.14,1.72,1.6-.47.38,2.3,1.45c.87.51,2.19.74,3.45,1.13l-.62.39,3.91.83c3.46.74,4.44-1.22,3.31.91l2.81-.68c.25-.06.56-.12.69-.04,1.79,1.12-1.1-.36,3.45.21,1.41.18,3.04-.28,4.64-.4l-1.66,1.24c2.09.05,3.3-.74,5.42-1.46l-.7,1.24,7.21-1.95-1.35,1.49c2.89-.97,5.39-2.29,8.39-3.86l-.35,1.13,5.92-2.96-.02,1.26c1.84-1.12,3.12-2.2,4.62-3.55l-.03,1.26,2.64-2.62-.06,1.31c1.58-.82,2.27-1.75,3.31-3.28.22,0,.64.31.79.12l.8-1.04-.12,1.37c1.35-1.17,2.59-2.15,3.74-3.39l2.82-3.07.28,1.32,3.33-3.99,2.91-3.49c0,1.16-.25,2.32-.63,3.61-.6,2.02-.52,4.19-.78,6.28l-.87,7.03c-.65,5.24.34,15.82,4.05,19.58,1.47,1.49,3.98,1.25,5.83,1.32l4.28.17c3.22.13,3.27,0,6.28-1.44.52-.25,1.79-1.57,1.79-1.57,1.06-1.21.35-2.88.28-4.36-.29-6.5-5.75-5.31-5.87-6.82-.05-.64.38-4.56.67-5.59l.94-3.32.29.62.85-2.94c-.28-.28.15-.07.46.1.42-.6.79-1.01,1.15-1.25l2.24-1.44,2.22-1.43-.75,1.41,2.77-1.41c2.14.97,4.32-1.89,6.95-1.03l3.8-2.27c1.07-.64,2.22-1.02,3.36-1.2l1.94-1.5-.09,1.25,1.67-1.77c.23-.25.31-.37.36-.25l.27.61c.42-.29,1.05-.79,1.49-1.03l2.22-1.25-1.95,2.86c-.35.51-.43,1.82-.94,2.36-2.11,2.2-1.21,6.48.44,9.09,1.83,2.9,3.73,5.75,6.04,8.24,1.16,1.24,2.23,2.59,3.51,3.65,0,0,4.4,3.75,5.93,4.91,2.86,2.15,5.37,3.73,7.47,3.97,3.76.42,6.93.1,10.32-.35,5.02-.66,4.51.49,6.1-1.3.99-1.11,1.94-2.35,2.09-3.59.2-1.67-.84-2.76-1.53-4.17-1.55-3.18-4.97-5.36-8.52-4.52-.36.09-1.29.74-1.67.61-1-.32-2.07-1.69-2.73-2.58-.9-1.21-2.3-2.16-2.98-3.48-.27-.53-.7-1.66-.75-2.23l-.18-2.03c.67.49,1.08.8.55.34.64-1.63.97-2.12,1.68-3.13.75-1.05,1.22-2.19,2.63-2.52l1.23-2.34c.41,2.04,3.29-3.89,3.24-3.66.27.15.57.35.64.2l.28-.65,1.41-3.65.64-.54,2.09-3.83c.64-1.17.95-2.85,1.46-4.13.14-.14.25-.25.31-.32l1.49,2.27,1.2-2.47c.02.11.05.31.08.55l1.15.98,1.35-1.23c-.02.36-.17.98.09.92l1.17-.26c1.38-.31,2.56-.69,3.82-1.37l.87.93,1.94-1.92-.63,2.57,1.02-.85,2.98-1.61-1.33,1.72c3.9-.03,1.05.37,4.69-1.14l-.08,1.59,2.59-1.12-.45,1.44,3.56-1.35-.59,1.14,1.97-.52c1.08,1.06,2.29-.21,3.16-1.33l-.57,2.44,1.44-1.62c.19.59.66,1.45.99,1.82l.25-1.25c.33.34.45.53.51.42l.34-.7,1.08,2.03c.19.36.99,1.09,1.21.82l.79-.95c.11.57.22,1.18.32,1.59.08.3.62.04.95-.15,0,1.12.2,1.88.72,2.28.15-.14.26-.24.33-.31l-.07,2.01c.44-.73.61-.99.36-.46.04.56-.07,1.22.16,1.27l.64.14,1.62,4.47-.58.94c-.08.14.77.37.83.51,1.94,4.54.49,2.81,1.8,5.74-.07.08-.32.74-.22.92l1.72,2.95c-.24.42-.6.83-.44,1l.48.52-.07.13.23,1.85.59,1.45c1.84,3.06.92,3.72,2.1,6.85l.16.96c-.21,1.12.92,2.39,1.26,3.38.47,1.37,1,2.16,1.79,3.29,1.05,1.5,1.76,3.49,2.62,5.09.92,1.72,2.34,2.03,3.97,2.57,2.17.73,4,1.19,6.26.94,2.39-.26,5.13.36,7.48-.33,1.11-.33,1.92-.78,3.19-.75,2.53.06,3.2-5.63,1.19-9.16-1.69-2.97-4.5-4.71-8.16-4.06-2.01-4.35-1.79-6.77-1.54-11.63.04-.84-.36-2.21-.28-3.03.36-3.43.52-6.83.41-10.27.61.6,1.38,1.02,2.22,1.38l2.26.96c.67.28,1.48.64,2.18.87,1.99.64,1.3,1.38,2.19.49l1.83,1.72c.43-.31.57-.47.68-.38l.63.52c.44.37,1.22.7,1.79.94.81.34,1.46,1.38,2.56.92.61-.35,2.66,4.08,2.75,5.47l.17,2.55c-1.35.77-1.76,1.85-1.52,3.41l-1.18,3.18.17,3.94c.11,2.64,2.66,4.64,4.79,5.24,5.28,1.5,10.21-4.43,11.72-9.41.47-1.55,1.29-3.33,1.48-4.97.46-4.1.59-10.15.11-14.11-.38-3.12-2.46-5.91-4.3-8.36,1.09-.97-2.3-3.46-3.17-4.53l-4.1-5.09c-.51-.63-1.51-1.54-1.88-2.1l-.76-2.23c.15-.39.58-1.59,1.09-1.96,1.64-1.19,3.21-4.36,4.12-6.47,2.7-6.24,1.08-2.79,4.67-6.6.56-.6,1.41-.56,1.78-.86l1.78-1.4,1.82-1.35c1.59-1.18,3.1-3.5,3.66-2.92l.5.53c1.02-2.11,3.5-3.03,5.5-2.91,3.03.18,3.06-3.17,11.01.57l2.01.94c2.2,1.03,4.2,1.15,6.42-.02,1.77-.94,2.55-2.97,3.85-4.3,1.15-1.18,2.19-2.09,3.03-3.57,1.03-1.81,3.68-3.48,1.22-6.52ZM256.44,122.83l-.12-.18s.04-.03.06-.05c.02.08.04.15.06.23ZM255.07,121.73h-.06s.01-.02.02-.03l.04.03Z"/>
</svg>