<?xml version="1.0" encoding="UTF-8"?>
<svg id="Capa_1" xmlns="http://www.w3.org/2000/svg" version="1.1" viewBox="0 0 300 200">
  <!-- Generator: Adobe Illustrator 30.2.1, SVG Export Plug-In . SVG Version: 2.1.1 Build 1)  -->
  <path d="M489.3,141.67h0c.18.14.17.14,0,0Z"/>
  <path d="M299.7,73.34c-.34-.94-1.03-2.09-1.63-3.02-4.01-6.24-1.18-7.6-4.43-12.79-1.91-3.05-5.16-6.19-8.19-8.14-2.19-1.42.83-3.46-.25-7.55-.12-.47-.61-1.11-.98-1.23-.48-.15-1.15.07-1.58.34-1.47.93-2.87,1.74-4.4,2.58-.69-1.85-1.78-3.46-3.67-3.88-1.59-.35-2.99.62-4.08,1.61l-4.27,3.9-2.74.63-2.69.65-8.61,2.59c-4.3,1.29-10.69,3-15.06,3.15-2.26.07-7.26-1.69-12.46-1.52-1.81.06-3.48.51-5.15,1.02l-3.03.92c-1.28.39-2.9.3-4.21.08l-2.07-.35-3.53-.56c-.84-.13-1.8-.13-2.58-.28l-4-.76c-2.08-.39-4.07-.94-6.1-1.52l-5-1.43c-1.51-.43-3.08-.87-4.64-1.05l-6.35-.73c-2.34-.27-4.55-.44-6.9-.48l-2.25-.05-7.08-.16-6.58-.12-2.86-.1-5.77-.25c-2.46-.11-9.53-.18-11.72.31l-6.48,1.44-5.85,1.51-9.97,2.98c-.87.26-4,1.61-4.7,1.99-4.47,2.44-7.23,4.34-11.13,7.58-2.98,2.47-5.43,5.45-8.03,8.42-2.12,2.42-3.95,4.94-5.79,7.56l-2.08,2.96-1.59,2.25-1.15,2.01c.03-.05-9.69,13.8-10.36,14.71-1.01,1.37-3.04,3.7-3.22,3.97-.96,1.42-1.89,2.63-3.07,3.87l-6.8,7.09-2.2,2.13c-2.6,2.52-9.52,7.71-12.74,9.3-2.67,1.31-2.77,1.9-6.22,2.81l-5.34,1.41c-1.03.27-2.36.57-3.44.55-2.11-.04-4.3.01-6.3-.46l-3.71-.87c-.92-.22-2.08-.89-3.05-1.19l-1.51-.47c-3.2-1-5.47-1.22-8.44.66-.7.44-1.66,1.19-1.5,2.15l.39,2.33c.13.76.43,1.22.85,1.9,2.31,3.7,3.82,3.7,7.37,5.47.62.31,1.36.8,2.11.93l7.07,1.24c1.54.27,3.17.19,4.82.26,1.77.08,3.57-.21,5.35-.5l2.64-.41c.55-.09,1.41-.16,1.77-.4l1.52-.97-.38.75,2.93-.94c2.68-.86,3.24-.74,6.06-2.17l4.45-2.27c1.32-.67,2.43-1.97,3.79-2.48.39-.15.73-.31,1.06-.52l1.04-.66,3.71-2.57c.41-.28,1.07-.96,1.49-1.31l1.95-1.68,1.93-1.37,3.16-2.87,1.88-1.96c.77-.81,1.59-1.6,2.28-2.46.63-.8,1.25-1.44,1.95-2.13l2.69-2.62c.28-.27.72-.98,1-1.33l2.55-3.24c.52-.67.97-1.63,1.34-2.29.18.14.35.26.37.29-.02-.03,1.94-3.09,2.37-3.63l2.71-3.43c1.03-1.31,1.71-2.79,2.27-4.23l.18.62c.05.18,2.3-3.82,2.86-4.63.32-.47.63-.84.86-1.33.84-1.85,1.24-.53,2.4-3.47.31-.78.85-1.11,1.24-1.69,2.6-3.79,4.75-7.05,8.01-10.54l.56.53c-.35.86-.73,1.58-.88,2.28l-1.18,5.42c-.13.61.13,1.69-.08,2.35-.33,1.05-.4,1.95-.38,3.02l.05,2.9c.08,4.91-.74,2.42-.18,6.07.09.59-1.03,1.54-.02,2.31l-.6.31c-.14.07.18.43.42.88-.08.01-.21.04-.38.06-.06.35-.04.92-.31,1.06l-1.25.65.79.3c-.76.62-1.2,1.42-1.75,2.13-.77.99-2.94,3.79-3.55,4.84-.51.87-1.2,1.55-1.78,2.34-2.8,3.76-5.94,6.97-10.41,8.73-1.86.73-2.22,4.19-2.56,6.38l-1.02,6.43c-.93,5.89-1.56,11.7-1.43,17.64.03,1.68.41,3.1,1.19,4.58,1.64,3.11,2.06,2.35,6.34,3.09,1.79.31,3.32.17,5.12-.05,1.72-.21,3.53-.35,4.35-2.22.87-1.98-.15-3.97-1.88-5.21-1.7-1.21-.24-2.11-5.61-1.44.15-2.35.08-4.55.59-6.74l.59-2.52c.95-4.08,2.85-7.41,6.29-9.67,1.17-.77,2.3-1.74,3.56-2.36l6.44-3.15c1.76-.86,3.49-1.73,5.11-2.82l6.59-4.42c5.34-3.58,5.5-3.25,9.96-8.56l.29,2.24.56,3.51c.38,2.42.18-.67.84,3.54l.69,4.39c.23,1.43.13,2.98.09,4.49-.13,5.04-2.61,8.91-1.84,10.69.64,1.49,1.71,2.59,2.71,3.8,4.23,5.1,9.27,10.38,14.46,14.5,1.06.84,2.03,1.84,2.98,2.79,1.47,1.47,3.98,1.03,5.65,1.35,2.49.48,4.75.37,7.24.06,1.86-.23,3.84-.08,5.11-1.79.89-1.21,1.12-2.79.15-3.88-.04-.09-.08-.17-.11-.24.04.03.08.07.12.1-1.07-1.66-2.66-2.88-4.32-3.58-1.55-.66-3.18.21-4.68.67-.97.29-1.96-.12-3.06-.37-.04-.03-.08-.05-.11-.08-3.71-4.47-5.22-4.37-8.84-9.55-.87-1.25-.72-2.97-.74-4.53.07-.97.34-2.34.47-3,0,0,0,0,0,0,1.14-3.56,2.27-5.3,3.55-8.63,1.1-2.85,1.86-5.72,2.9-8.61l1.57-4.37c2.49-6.91,1.92-4.46,3.11-12.01l.72-4.54c.43.23.88.3,1.3.39,1,.21,2,.56,2.98.88l2.07.68c1.26.41,2.9.3,3.82.82,3.26,0,4.95,1.16,7.79,1.59l2.48.37,3.77.55,1.67.16,1.77.23c.56.07,1.24.13,1.84.17l4.13.29c4.75.33,11.04,1.54,15.87,2.63l2.94.66c-.05,1.81.46,3.15.99,4.76.62,1.87,1.04,3.82,1.39,5.8l2.21,12.62c.6,3.45,2.64,10.93,2.78,13.43l.21,3.62c.33,5.64,1.33,1.78,2.45,5.32l1.92,6.11c.64,2.03,2.12,2.8,3.94,3.34,2.65.78,5.08.84,7.83.59,2.07-.19,7.13.01,8.11-2.68.98-2.7-.95-4.09-2.86-5.55-3.61-2.77-3.29-1.48-6.97-1-.76-1.8-1.26-3.37-2.06-4.99-.93-1.88-.84-3.55-.84-5.63l.02-11.08c0-3.42.14-6.94.62-10.3l.35-2.41.38-2.58c3.95,3.17,7.77,5.43,12.03,7.56,3.02,1.51,5.95,3.02,9.09,4.25,2.63,1.04,4.3,2.76,5.05,5.58.14.54,1.25.6.7,1.72-1.43,2.91-.58,5.25-1.46,6.34-2.28,2.84-1.73,2.76-1.67,7.5.03,2.41,1.85,4.13,3.93,4.75,2.12.64,4.34-.32,5.81-2.03,1.31-1.52,2.99-3.06,3.41-5.15l.9-4.42c.18-.89.28-1.96.53-2.78.74-2.37.27-4.45-.41-6.66-.51-1.68-.24-3.68-1.06-5.27l-2.46-4.76-.8-.77c-1.11-1.54-2.57-2.74-4.09-3.96-2.97-2.38-5.67-4.88-8.22-7.73-3.24-3.62-1.9-4.82.43-9.49l6.6-13.21c3.87-2.88,10.16-6.77,14.93-7.28,1.32-.14,2.91.24,4.25.48,10.47,1.84,13.55,8.69,20.06,1.66.93-1.01,2.4-1.32,3.16-2.86.62-1.27,2.38-2.29,1.68-4.21Z"/>
</svg>