<?xml version="1.0" encoding="UTF-8"?>
<svg id="Capa_1" xmlns="http://www.w3.org/2000/svg" version="1.1" viewBox="0 0 300 200">
  <!-- Generator: Adobe Illustrator 30.2.1, SVG Export Plug-In . SVG Version: 2.1.1 Build 1)  -->
  <path d="M299.59,67.75c-.88-1.61-2.12-3.33-2.82-5.01-1.1-2.62-1.29-5.19-1.62-7.93-.24-2.07-1.8-3.9-2.93-5.54-1.29-1.89-2.75-3.38-4.54-4.72l-2.74-2.07c-.2-.15-.59-.72-.39-.79l.81-.29c.08-.03.41-.3.33-.31l-.4-.04-.68.05c0-.94-.08-2.04.26-2.86.54-1.28,3-6.32,1.81-6.82-.25-.1-.9-.09-1.15.08l-3.25,2.19-6.63,4.09c-.5-3.23-2.96-7.69-6.66-6.26-3.03,1.17-4.68,4.32-7.34,6.58-2.64.89-5.13,1.78-7.81,2.48l-3.11.81-3.49.9c-4.97,1.28-15.06,4.14-19.86,3.72-7.98-.7-11.22-4.54-21.05-1.02-1.44.52-2.71,1.42-4.29,1.47-2.18.06-4.38.2-6.51,0-3.94-.35-7.68-.87-11.47-1.8l-8.16-2c-4.51-1.1-4.36-.99-8.75-1.19l-3.69-.18-10.38-.47-4.94-.2-9.37-.34-6.62-.19-10.48-.1c-5.47-.05-10.47,1.48-15.65,3.06-7.02,2.14-13.78,4.37-20.19,8-3.14,1.78-6.68,4.8-9.53,7.2-1.44,1.21-2.73,2.77-3.94,4.28l-1.63,2.03c-3.55,4.42-6.26,9.32-8.68,14.4l-2.38,5.01c-1.02,2.16-1.99,4.28-3,6.45l-1.94,4.19-2.9,5.94c-1.73,3.54-6.29,10.88-8.72,13.69-3.88,4.48-7.02,7.36-11.73,10.62-.43.53-3.47,1.41-4.02,1.51-.13.02.13.24.46.63l-2.84.62.22.39c.07.12.08.22.01.18-.08-.04-.68-.32-.76-.3l-4.53.93c-.34.07-1.22-.22-1.53-.31-4.09.69-4.48-.6-6.53-1.16-1.64-.45-3.46-.86-5.06-1.21-.26.18-.65.63-.85.55l-.93-.38-3.25,1.62C-.05,130.06,0,130.61.03,132.94c0,.83.34,1.4.67,2.24.67,1.71,1.15,2.98,3.06,3.82l2.96,1.31s-.4.13-.89.28l3.23.96c1.03.3,4.27,1.12,5.05,1.03.7-.08,1.55.39,2.07.38,2.73-.07,5.72-.42,8.35-.89.74-.13,1.44-.14,2.04-.02l4.98-1.97c.56-.22,1.42-.63,2.02-.93l4.71-2.41c1.46-.74,2.66-2.42,4.05-3.04,2.21-.97,3.63-2.62,5.47-4.19,3.27-2.78,6.52-6.44,8.53-9.13,1.62-1.52,3.2-4.3,4.16-5.48.83-1.03,1.85-2.2,1.92-3.71.21.27.37.56.43.45l.26-.52,1.57-2.97,1.35-2.73c.31-.62,1.01-1.32,1.33-1.94l2.4-4.7,1.25-2.49c.36-.71.85-1.54,1.27-2.27.88-1.53,1.27-3.09,2.05-4.74l1.41-2.99c.61-1.3.81-2.4,1.73-3.5-.1,2.15-.42,3.91-.59,5.91l-.34,4.1c-.01.18-.24.62-.12.71l.33.27-.32,2.09-.39,2.11c-.14.79-.16,1.31.11,2.18l-.96,1.88c.82,1.51-.25,2.77-.98,4.08-.45.8-.91,1.75-1.49,2.61-1.91,2.78-.73.16-2.26,3.31-2.33,4.8-2.83,5.48-6.06,9.51-2.72,3.41-6.28,2.18-6.67,7.37l-1.21,15.75c-.34,4.5-.31,8.91-.29,13.31.01,2.53,1.18,4.42,2.95,6.03.5.45.81,1.8,1.1,2.48,4.44,2.92,9.54,1.99,14.61,1.17.47-1.02,1.14-2.12,1.4-3.21.68-2.87-1.04-6.06-3.74-7.32-1.17-.55-2.55-.35-3.87-.38-.64-4.26-.27-8.63.8-12.76,1.29-5.01,5.15-7.55,9.34-9.57l4.1-1.98c1.57-.76,3.18-1.5,4.67-2.38l5.75-3.43,3.6-2.13c2.77-1.64,5.93-4.37,6.8-4.74,2.26-.96,2.37-3.08,5.15-4.41-.57,1.73.85,2.62.91,3.6.4,7.07.56,11.71-2.52,18.63-.75,1.68-1.08,3.08-.05,4.83,1.19,2.03,2.78,3.87,4.34,5.74,3.08,3.71,6.52,6.81,10.25,9.87,1.74,1.42,3.17,2.8,5.06,4.12,1.68,1.17-.59,3.06,2.14,3.25l3.73.26,5.46.36c1.9.13,3.83-.63,5.79-.61.44,0,1.42-.19,1.65-.49.23-.3.28-.94.39-1.4.75-.98,1.45-2.15.94-3.5-1.3-3.42-3.63-6.69-7.83-5.28-1.39.47-3.47.77-4.63-.27l-3.55-3.19c-2.07-1.86-5.79-6.17-5.55-9.3.25-3.29,1.45-6.25,3.29-8.93,5.25-7.64,11.14-18.54,13.6-27.19.97-.26,1.53-.1,2.26.18,1.36.51,3.09.65,4.43.97.19.04.63.47.72.33l.28-.41,2.65.85c.22-.35.36-.73.51-.65,2.31,1.27.83-.78,4.75,1.19l3.63-.13c3.05-.11,5.91.08,8.96.35.76.07,2.09-.27,2.95-.26,6.89.08,9.1,0,16.2,1.19.54.52,1.04,1.55,1.21,2.3l.67,2.99c.74,3.27,1.26,6.46,1.83,9.83.89,5.26,1.83,10.36,3.07,15.49.91,3.75,1.49,7.26,1.72,11.13.07,1.1.47,2.65.74,3.67,3.25,2.24,2.51,8.04,5.22,10.76,3.91,3.91,12.18,3.52,17.13,2.34,1.51-.36,2.71-.87,3.31-2.06.71-1.41.66-2.81-.13-4.16-2.25-3.85-4.78-5.87-9.43-4.33-4.57-8.72-2.54-8.65-2.47-16.1.07-6.71.12-13.27,1.21-19.87.23-1.39.6-2.8.74-4.17l4.94,3.79c3.6,2.76,7.49,4.58,11.65,6.42l7.11,3.16,3.91,1.69c.91.39,2.19,1.36,2.97,1.98.4,1.51,1.28,2.53,2.39,3.42l-.14,4.78c-.04,1.32-.09,2.94-.45,4.13l-.86,2.79c-.72,2.33.24,4.2,1.34,5.99.99,1.61,1.83,2.61,3.96,2.66,2.41.06,4.71-.5,6.27-2.65.91-1.25,2.35-2.84,2.8-4.42,2.33-8.15,1.05-16.07-2.3-23.73-.84-1.92-2.01-3.38-3.52-4.78l-9.04-8.35c-1.98-1.83-3.73-3.55-5.17-5.84-.59-.94-1.33-1.74-.61-3.08,3.2-5.89,6.06-11.87,8.53-18.19l2.41-2.16c1.2-1.08,5.64-4.34,6.83-4.88,1.32-.6,2.81-1.7,4.13-1.96l6.51-1.26,2.14-.24c7.3-.83,8.86,1.72,15.82,3.61,6.37-.04,5.78-1.54,7.76-2.89,1.97-1.35,3.38-2.51,4.61-4.65.87-1.52,2.21-2.97,1.15-4.92Z"/>
</svg>