<?xml version="1.0" encoding="UTF-8"?>
<svg id="Capa_1" xmlns="http://www.w3.org/2000/svg" version="1.1" viewBox="0 0 300 200">
  <!-- Generator: Adobe Illustrator 30.2.1, SVG Export Plug-In . SVG Version: 2.1.1 Build 1)  -->
  <path d="M299.74,69.54c-.39-2.39-2.08-4.49-3.18-6.57-1.39-2.61-1.38-5.32-1.7-8.16-.29-2.56-1.96-4.76-3.5-6.81-1.88-2.5-4.54-4.42-7.04-6.45-.14,0,.33-.31.59-.46-.17-.19-.65-.83-.57-1.19l.31-1.23c.22-.87.43-1.57.8-2.41l.91-2.01c.29-.64.85-2.09.38-2.56-1.13-.83-2.2.45-3.07.96l-8.21,4.81c-.56-2.23-1.23-3.93-2.71-5.25-3.6-3.21-7.54,1.74-10.17,4.58-.64.7-1.54.93-2.44,1.21l-4.19,1.31-8.09,2.7-4,1.2c-1.68.5-3.35,1.03-5.03,1.42l-8.36,1.94c-1.04.24-3.08.39-4.1.24-3.3-.49-6.41-1.18-9.65-1.94-5.85-1.39-8.19.54-13.7,2.11-1.6,0-3.54-.55-5.28-.11-.61.15-1.53-.14-2.2-.22-6.62-.81-12.97-2.12-19.47-3.9-3.87-1.06-11.21-1.64-15.48-1.94l-5.64-.4c-3.48-.25-6.84-.31-10.36-.31h-19.67s-3.45.19-3.45.19c-2.02.11-7.5.92-9.44,1.47l-9.61,2.73c-2.92.83-5.59,2.24-8.44,3.29-4.14,1.52-7.8,3.46-11.37,6.05-.56.41-1.24.82-1.77,1.24l-2.89,2.33c-1.31,1.06-2.16,1.84-3.13,2.98l-2.36,2.79c-2.1,2.48-4.05,4.68-5.63,7.49l-4.06,7.19c-1.29,2.29-2.5,4.58-3.57,6.97l-1.8,4.02-3.15,6.92c-1.87,4.12-5.04,10.12-7.57,13.72l-2.4,3.43c-.78,1.12-1.51,2.3-2.55,3.27-3.78,3.52-3.77,4.33-7.87,7.05-3.73,2.47-7.61,4.71-12.08,5.41-1.98.31-4.21.17-6.23-.06-2.03-.23-7.69-3.76-11.6-2.22l-1.99.78c-1.83.72-1.98,2.56-1.96,4.21.06,4.11.8,1.51,1.12,5.2,5,4.41,8.29,5.29,14.38,6.14.7.1,1.63.18,2.47.13l3.67-.23c.59-.04,1.12-.04,1.8-.22l6-1.64,2.42-.96,2.87-1.14c.58-.24,1.31-.76,1.84-.91,1.54-.45,2.6-1.71,3.94-2.54l2.11-1.31c2.9-1.81,4.94-3.65,6.31-5.27.96-.04,1.35-1.39,2.15-1.9,1.76-1.74,3.5-3.55,5.03-5.57l4.1-5.41c.87-1.15,1.53-2.16,2.09-3.44.23.72.37.33.58-.22.88-1.22,1.69-2.42,2.4-3.7l2.46-4.41,2.2-3.96,1.74-3.26,1.9-3.9c.99-2.03,1.95-3.85,2.77-5.97.62-1.59,1.59-3.07,2.35-4.43l-.05,3.29-.12,3.61c-.05,1.38.24,2.5-.7,3.73.4.06.77.02.76.17l-.05.61-.15,1.93-.23,2.84c-.03.41-.4,1.11-.61,1.46l.19.67c.05.16-1.18,1.18-.62,1.29l.88.17c-.3.79-1.04,1.47-1.91,2.12l.85.4c-.73.34-1.05.84-1.48,1.42l-2.47,3.29c-1.89,2.52-4.99,11.57-12.66,15.08-1.26.58-2.23,1.9-2.36,3.41l-1.42,16.24-.29,12.75c-.06,2.75.68,5,2.78,6.81.48.42.83,1.83,1.27,2.38,1.08,1.32,3.1,2.02,4.76,1.93,4.53-.24,4.93.22,8.38-.93,1.64-.55,2.88-1.2,3.07-3.18.14-1.46-.09-2.98-1.14-4.26-2.09-2.57-2.22-3.1-6.68-2.79-.54-4.83-.5-11.92,2.06-16.27,1.69-2.88,4.58-4.86,7.57-6.3,6.61-3.18,13.02-6.32,18.99-10.59l5.87-4.19c2.15-1.54,4.21-3.02,6.16-4.93l.45,2.53c1.18.99-.44.07.21,3.17.15.72-.05,1.97.04,2.84,1.12,11.16-5.5,15.22-2.74,19.11,1.97,2.78,4.13,5.27,6.34,7.92,2.48,2.98,5.36,5.37,8.38,7.79,1,.8,5.4,4.85,5.79,5.61.49.39,3.84,1.9,5.23,2.12,1.86.29,3.25.11,5.01-.34,1.73-.45,3.56-.48,5.44-.79,1.36-.23,3.49-1.36,3.52-3.06.05-2.79-2.04-5.78-4.56-6.93-1.52-.7-6.23,1.55-7.72.18l-4.15-3.85c-1.39-1.29-2.6-2.91-3.75-4.39-1.49-1.9-2.09-3.99-1.47-6.38.61-2.37,1.63-4.63,3.02-6.74,4.31-6.54,7.87-13.25,10.95-20.44,1.68-3.91,2.92-7.54,3.58-11.65l3.24.51,3.45.7c.6.12,1.52.24,2.22.34l4.47.62,7.62.97,8.7.72,10.98.94c2.43.21,4.91.84,6.99,1.71l.66,2.79,4.15,23.54,2.23,10.88c1.02,4.96-.36,9.1,2.29,10.61,1.76,2.54,2.1,8.28,4.64,10.57,1.17,1.06,3.11,1.75,4.68,2.21,1.67.49,3.42.13,5.14.11,3.14-.02,6.33.1,9.13-1.56,1.52-.9,1.75-3.36.99-4.9-1.79-3.63-5.1-6.35-9.61-4.62-1.16-2.45-2.36-4.91-2.84-7.54-.41-2.26.17-4.64.2-6.94l.09-6.46.11-3.89.6-10.35c.1-1.79.46-3.49.99-5.24,3.26,3.03,8.71,6.9,12.57,8.58l13.17,5.74c9.64,4.2,2.32,2.77,7.43,5.96l-.12,6.22c-.02.89-.19,2.14-.3,3.1-1.32,2.26-2.1,5.35-.56,7.76l1.43,2.24c1.52,2.39,7.64,2.59,10.72-2.36.75-1.2,2-2.58,2.23-4.06,1.46-9.19,1.06-11.64-1.69-20.38-.59-1.88-1.52-3.93-2.87-5.37-3.85-4.09-7.9-7.67-12.11-11.37-1.26-1.11-2.29-2.33-3.37-3.53-1.4-1.55-1.99-3.15-.99-5.17l5.73-11.54c1.16-2.33,1.71-5.18,3.59-7.02,2.06-2.01,4.69-3.41,6.83-5.3,3.22-2.84,7.05-3.85,11.18-4.77,1.35-.3,2.66-1.09,4.21-.41.44.19,1.59.12,2.09.25,3.39.9,6.49,2.04,9.65,3.56,3.18,1.53,6.82,1.76,9.74-.51l1.28-1.68c1.53-.6,2.55-1.61,3.53-2.98.85-1.19,2.64-2.62,2.35-4.41Z"/>
</svg>