<?xml version="1.0" encoding="UTF-8"?>
<svg id="Capa_1" xmlns="http://www.w3.org/2000/svg" version="1.1" viewBox="0 0 300 200">
  <!-- Generator: Adobe Illustrator 30.2.1, SVG Export Plug-In . SVG Version: 2.1.1 Build 1)  -->
  <path d="M489.3,141.67h0c.18.14.17.14,0,0Z"/>
  <path d="M296.87,63.61l-.25-4.42c-.02-.28.57-.85.84-1.05-.26-2.22-1.27-4.62-2.51-6.66l-2.42-3.97c-.77-1.26-2.35-2.28-2.9-3.54l-.66-1.5.96-.59c-.43-.06-1.06-.26-1.17-.56-.11-.29.35-.91.66-.96l1.47-.24-2.03-.21.57-1.58-.65.32-.15.08c-.08-.03-.14-.08-.16-.17,1.36-.22,1.81-6.11,1.25-7.53-.4-1-1.39-.1-1.83.2-4.03,2.79-6.88,3.97-11.65,5.02-.66.15-2-.07-2.75-.07-1.26,0-1.97-.54-2.52-1.54-1.55-2.81-5.34-3.56-7.74-1.4-1.24,1.12-2.11,2.58-3.22,3.86l-3.12,1.41c-2.33,1.05-4.33,2.1-6.71,3.01-.83.32-1.31,1.05-2.71.74-.38-.09-.46-.05.03.59-.26.36-4.01.85-4.71,1.31l-1.75,1.17c-1.02.67-2.03,1.16-3.27,1.31l-2.62.3c.57.6.55.62.11.39-2.74.29-4.28.11-6.42-.78l-.46-.19c-.08-.03-.1.24-.06.3l.27.39-2.05-.37c-.59-.11-1.56-.61-2.17-.85-2.03,1.14-3.57-.85-3.34.63l-1.92.29c-1.38.21-3.06.16-4.42.22l.08.6c.11.79-3.95-1.63-4.39-1.92l-.37.13c.44.54.31.47-.11.33l-2.02-1.23-.21.5c-.03.08-.26-.03-.36-.11-3.91-3.26-.97-.72-4.16-2.91-.19-.13-.42-.35-.52-.27l-.53.4-1.44-1.33.34,1.44-2.01-1.41v1.15s-4.34-2.72-4.34-2.72c-.15-.1-.71-.27-.68-.14l.15.55c-.74-.4-1.36-.7-2.2-1.05-3.58-1.49-2.39-.52-4.52-1.34-.09-.03-.02.27.02.36l.27.53-2.55-1.12-2.85-.84.82,1.35-7.23-2.16,1.82,1.7-4.87-1.22c-.62,1.38-2.96-.55-5.09-.42l1.26.95c-2.11-.04-4.05-.32-6.36-.82l1.43,1.11-4.4-.95.86.84-3.76-.65c-.11-.02-.53-.05-.62-.06-.09,0-.06.12-.01.21l.32.5-2.55.14,1.26.68-6.25-.78.93,1.02-5.61-.72,1.6,1-7.58-.64c.05.09.49.37.38.45l-.62.47c-1.43-.12-4.94-.2-6.5-.02l1.52.38-3.18.7c-1.23.27-2.58.32-3.8.43l.8.56c-2.07.53-3.93.92-6,1.22l.88.34-4.39,1.15,1.21.3-3.7,1.2c-1.08.35-2.7.85-3.62,1.56l-2.32,1.76c-2.14,1.62-3.78,2.13-6.68,3.27l1.18.26c-.55.3-1.19.64-1.77,1.01l-2.88,1.84-2.17,1.39c-.54.04-.43.13.42.45-.6.65-1.27,1.21-2.09,1.76l-3.33,2.24c.25.27.5.44.4.5l-.45.29-1.77,1.13c.58.83-1.3,1.78-2.84,4.33-.62,1.02-2.02,1.69-2.77,2.72l-1.6,2.21c.61,1.25-2.03,4.19-2.86,5.54-.4,1.54-1.09,2.85-2.39,4l1.14-.15-3.81,5.07,1.07-.07-2.77,3.65.86-.08-1.37,2.59c.02.49-.03,1.48-.37,1.92l-2.82,3.66c.22.17.37.29.41.32l-2.15,2.87c.17.21.59.51.46.65l-.61.68c-.49.54-.89.91-.62,1.54-1.04,1.33-2.52,2.77-3.81,4.18-2.29,2.52-.18,1.86-4.22,4.36.17.25-.18,1.28-.48,1.43l-4.05,2.08.39.42c-.72.84-1.61,1.37-2.74,1.91-4.27,2.05.16.47-5.99,1.62l2.21.44-1.82.56.97.38-3.04-.34.61.65c-4.09-1.12.34,1.74-6.6-.76l1.4,1.31c-.14,0-1.18.03-1.42-.13l-3.4-2.15.6.87c.12.17-.63.71-.83.63-1.69-.71-4.98-2.49-5.92-4.47l-.22.92-1.68-2.26-.68.55-1.96-3.93-1.64-.29-1.21-2.8-.27,1.84c-1.11-2.36-2.16-4.54-4.08-5.92l1.03,2.29-3.91-2.91.03.93-2.36-1.42.57,1.17-2.96-.84.87,1.39-2.24-1.38-1.88.04c.07.27.14.67.31.71l.83.22c-.62.57-1,.2-2.1-.27.2.55.49,1.19.95,2.15l-1.68-.51.04,1.03-.84-.81c-.12-.11-.43.27-.4.43l.12.57c.02.08,0,.49,0,.59,0,.08-.07.05-.16,0l-.53-.31-.32,2.72-.89-1.99-.26,4.55-.8-.84c-.69,2.46,1.13,3.95,1.2,6.45l-.59-.98-.88,1.06,1.65,3.44-1.56-1.08c.81,1.87,1.78,3.02,2.9,4.67-1.05-.62-1.81-1.2-2.84-1.97.58.98,1.31,1.83,2.12,2.69l1.93,2.04-1.8-.35c1.48,1.88,2.65,3.12,4.01,4.43l-1.86-.23,2.18,2.38c.32.35,1.08.78,1.52,1.02l-1.73-.03c1.14.62,2.04,1.01,3.21,1.49l-1.36.38c.09.13.33.34.26.41l-.38.38,2.64.78c-.07.06-.33.28-.47.28h-.73s1.5.61,1.5.61l-1.29.26c1.24.61,2.32,1.11,3.61,1.61l2.58,1-2.97.24,3.78,1.35-1.48.44,3.89.78-1.52.37c1.17.24,2.04.39,2.68.7l1.14.62c.4.44,1.45.56,2.31.69l-1.82.34,3.71.07-1.36.6,2.98.12-1.02.55,2.68-.21-1.38.95c.27.03.96.11,1.27.1l3.4-.65c-.94.62-1.51.83-2.51,1.68l6.17-1.2-1.88,1.27c1.27-.08,2.34-.46,3.73-1.13l-1.44,1.47,3.3-1.36-1.06,1.58,2.48-.82,2.88-.63c.56-.16.59-.16.01,0l-.88,1.18,2.93-1.34.98.17,2.28-1.56-.66,1.52,2.09-.79-.25,1.07,4.79-3.22c-.02.08-.07.26-.11.36-.59.79-1.02,1.36-1.36,2.37l2.57-2.11,1.3-.05c.43-.64.94-1.01,1.7-.79l3.01-2.5.05,1.53c1.24-1.23,2.12-2.28,3.13-3.56l-.41,2.32c1.3-1.36,2-2.74,3.01-4.44l-.08,1.93c-.15.47-.03.38.34-.03l.75-1.67c.31-.69.65-1.24,1.17-1.97l.08,1.29c-.08.53-.04.56.2,0l1.56-1.41c1.31-1.19,2.04-3.06,2.94-4.48l.24,1.19,1.49-2.95-.08,2.06,1.26-2.37-.16.8.36.25,1.76-4.52.32.76.2-.43.8-1.76-.17,19.41.43,8.12c.18,3.5,1.46,6.96,2.92,9.79-.41,3,7.26,3.86,10.03,3.6,2.48-.23,5.55-.16,7.55-1.93,1.95-1.72,1.03-4.63.4-6.64-1.9-5.99-6.11-2.01-6.47-5.55-.54-5.4-1.01-7.76.64-12.64.46-1.37,1.53-2.04,2.78-2.48.86-.3,1.83-.86,2.54-.94.83-.09,1.65-.15,2.35-.35,5.32-1.47.42.82,6.85-2.34.82-.4,1.68-.35,2.58-.41,1.29-.09,2.67-1.18,3.95-1.36.82-.12,1.22-.37,1.98-.75,1.81-.92,3.68-1.8,5.17-3.2.12-.11.59-.3.57-.15-.02.12-.06.57-.11.69l-1.13,2.9c-.1.26-.36.55-.29.7l.41.82-1.84,3.01c-.62,1.02-.55,2.08-.09,3.1,1.48,3.3,3.88,5.88,6.17,8.64,2.05,2.48,4.21,4.43,6.71,6.46,0,0,3.37,3.32,7.83,6.34,2.61,1.76,3.36,2.39,9.59,1.99,1.73-.11,3.55-.37,5.02-.46,1.66-.1,5.24-.31,5.87-3.09.4-1.77-.08-3.07-.8-4.42-1.79-3.39-5.84-4.77-9.41-3.07-3.38-1.92-6.29-4.66-8.62-7.61-1.41-1.77-1.4-4.05-.39-5.76.86-1.46,1.64-2.76,2.68-4.14.11-.14.25-.34.26-.34,0,0,.27.26.35.34,2.09-4.35,5.56-6.9,6.67-12.13l.32,1.29c-.02-1.59.57-2.11,1.15-3.01,1.21-1.86,1.39-4.43,2.39-6.65l.83,1.2.34-2.08,1.02,1.1c.24-.19.46-.37.47-.37,0,0,.24.31.3.39l.35.46c.06.07.15.09.18,0l.17-.61.29-1.03c1.35.45,1.71-.4,2.99.54.17-.35.22-.62.16.39.18-.05.52-.2.58-.35l.28-.75.59,1.45.87-1.47c.08-.14.24-.7.35-.59l.43.42-.25,1.68,1.98-2.25-.08.92c-.02.2.7.36.89.28l2.17-.86.04,1,4.16-1.47.83.71-1.3,1.23c1.19-.66,1.78-1.02,2.85-.92l1.92.17-.4.71c-.04.06.29-.01.36-.04l.43-.15c.17-.06.29-.11.34-.06.44.53-.79.32,2.45-.15l2.72-.39c-.44.57-.52.69-.23.49l2.35-.1-3,1.02,3.22-.14,2.99.08-1.03.71,1.95-.28c-.16.29-.19.66.03.76,1.31.58,1.76-.26,2.07.15l.38.48c.83-.06,1.43-.07,1.83.2.68.45.95,1.07,1.1,1.82l1.07,5.51.45,2.13.74,3.5.2,2.14,1.96,7.54,1.28,5.75c.14.62.59,1.47.73,2.17l1.26,6.59c.09.47.77,1.13.97,1.61l2.47,5.7,2.29,3.49c2.5,3.79,7.33,3.34,11.47,3.21,1.98-.06,3.66-.3,5.52-.88,1.89-.58,3.43-1.49,3.48-3.84.02-.8-.04-2.42-.45-3.11-1.3-2.16-2.97-3.84-5.38-4.62-.64-.21-2.12.46-2.85.46-2.04-1.21-2.86-7.99-2.71-10.33l.78-12.78c.16-2.64.95-5.22,1.45-7.85,1.23.12,1.43,1.44,2.24,2.08,2.36,1.86,4.79,3.62,7.27,5.24l3.85,2.52,3.31,2.14c.46.29.86.48,1.25.6.61.38,1.39,1.2,2.05,1.47,1.18.48,2.69,1.03,2.81,2.54.3,3.59,1.15,1.84,1.48,7.42-1.46,2.04-1.52,4.21-.96,6.58.46,1.9.49,4.02,2.31,5.34,1.52,1.11,4.11,1.56,5.86.53,1.96-1.16,3.78-3.91,4.71-5.98.79-1.76.83-3.85,1.18-5.79.31-1.68.26-3.27.21-4.96-.13-4.53-1.16-8.85-3.18-12.93-.47-.95-.89-2.35-1.49-3.17l-6.2-8.41-2.69-4.2c-2.72-4.25-.88-3.95.17-7.17.33.83.53,1.07.49.33l.44-1.34c.08-.23.73-.04.98-.06.3-1.22.54-2.37,1.55-3.01l.82-1.96c.19.15.31.25.37.3l.74-2.89c0-.55.04-.5.16.07l.37.49c.06.08.08,0,.1-.1l.15-.59.64-2.64c.29.24.48.41.51.43l2.44-4.18c.15-.02.32-.04.38-.01.05.03.28.22.27.21l1.44-2.84c.97-.04,1.19-1.43,1.76-2.04l1.07-1.12,1.97-2.09c.11-.11.25-.49.33-.4l.34.39c.75-1.99,3.3-3.9,5.48-4.64l2.75-.95c3.54-1.22,4.24-1.16,6.96-.35,6.39,1.91,10.44,4.36,15.2-2.67,2.87-1.44,2.28-2.55,3.57-4.82,2.44-4.33-2.33-7.29-2.49-10.18Z"/>
</svg>