<?xml version="1.0" encoding="UTF-8"?>
<svg id="Capa_1" xmlns="http://www.w3.org/2000/svg" version="1.1" viewBox="0 0 300 200">
  <!-- Generator: Adobe Illustrator 30.2.1, SVG Export Plug-In . SVG Version: 2.1.1 Build 1)  -->
  <path d="M298.85,71.45c-2.34-2.94-3.11-6.31-3.57-10.04-.55-4.43-6.56-10.1-10.45-12.54-.07-4.51,1.04-1.13.34-7.09-.11-.94-1.39-1.53-2.13-1.06l-2.6,1.65-.05-.04.02.06-.62.39c-.2-.03-.16-.01.11.05-.31.25-.69.54-.97.66,0-.01-.37-.13-.52-.18-.03-.03-.07-.05-.1-.08l-1.12-1.5-.05-.11.06.03c-.61-1.11-1.71-1.96-2.72-2.07-1.03-.12-2.42.3-3.16.96l-3.53,3.15h-.03s-.01.03-.04.06l-.06.06c-.06.06-.1.11-.12.15-.27.29-.78.79-1.52,1.27,0,0,0,0,0,0-5.26,1.12-10.5,2.74-15.83,4.39-2.82.87-5.65,1.42-8.5,2.06-7.75,1.73-12.19-2.36-19.81-.62-6.24,1.43-4.64,2.32-11.01,1.39l-6.82-1c-6.09-.89-8.77-1.92-14.59-3.53-1.67-.46-3.5-1.02-5.23-1.22l-8.39-.94c-4.31-.49-8.63-.24-13.01-.36l-9.93-.29-12.07-.33c-1.98-.05-4-.08-6,.37-8.34,1.86-16.54,3.71-24.49,6.83-5.16,2.03-9.63,5.25-13.83,8.87-6.02,5.19-10.66,11.51-15.21,17.94-.92,1.31-1.66,2.57-2.54,3.83l-4.03,5.75c-8.48,12.09-11.01,16.37-22.12,26.99-3.95,3.77-12.11,9.74-17.05,11.66-2.25.88-4.52,1.33-6.79,1.95-4.64,1.27-8.02.8-12.64-.19-2.69-.58-3.92-1.54-8.04-2.59-2.35-.6-6.89.02-7.68,2.79-1.06,3.71,2.35,7.48,5.41,8.92,6.54,3.08,4.12,2.06,11.24,3.4,5.05.95,11.23.12,16.14-1.15l2.69-.69c3.34-.86,6.35-2.19,9.4-3.78,1.84-.96,9.16-5.4,10.57-6.56l5.41-4.46c3.35-2.76,6.14-5.92,9.2-8.99l3.09-3.11,5.47-6.92,2.55-3.54c.19-.26,5.77-7.43,4.78-7.32l.62-.07c1.18-2.08,2.42-4.11,3.82-6.15l2.8-4.06,1.34-1.91c2.28-3.25,4.5-6.39,7.3-9.44.76.79-.04,1.46-.23,2.2-.53,2.08-1.09,4.28-1.33,6.44l-.34,3.02c-.13,1.13-.15,2.39-.14,3.5.03,2.14-.15,4.15-.28,6.3-.04.66.05,1.37-.03,1.87l-.38,2.4c-.16,1.04-.22,1.76-1.47,2.14.09.08.64.4.5.55-.12.12-.46.47-.57.61l-2.27,2.91c-4.48,5.74-6.43,10.47-13.71,13.88-1.35.63-2.42,1.54-2.68,3.07l-1.44,8.42c-1.07,6.25-1.79,12.35-1.7,18.73.04,2.71.7,5.71,2.92,7.45,1.3.72,3.48.71,5,.96,1.62.26,3.09.08,4.72-.05,1.88-.15,3.85-.6,4.48-2.49.53-1.58.02-3.72-1.65-4.56l-.18-.19.04-.03c-2.57-2.93-2.17-1.53-5.87-1.84.31-2.46.29-4.9.84-7.19l1.44-6,.84-1.48c6.27-7.18,13.05-8.01,20.35-12.94l11-7.42c1.82-1.23,3.06-3.29,4.69-4.95,1.44,10.44,4.54,15.46.78,26.24-.46,1.32-.22,2.9.69,3.98l5.15,6.09c3.81,4.52,8.09,8.28,12.69,11.98.86.69,1.74,2.13,2.8,2.37,1.58.35,3.13.44,4.71.68,2.38.35,4.55.33,6.94-.01,1.06-.15,2.16-.16,3.19-.48,1.82-.56,3.55-3,2.36-4.73-.4-.58-1.29-1.26-1.86-1.78,0,.02,0,.04-.01.06-.44-.38-.91-.79-1.14-1.05-.42-1.36-2.34-2-3.99-1.52-1.5.44-2.84.69-4.53.98,0,0,0,0,0,0-.18-.01-.54-.06-.88-.21-.39-.18-5.56-5.76-7.35-7.69l-1.75-2.66s-.02.02-.03.03c-.4-.77-1.61-3.64-.04-7.59l.03.26c1.79-5.28,4.05-8.45,5.26-13.96-.03.03-.05.05-.07.08.05-.12.09-.24.13-.36l-.1.53,1.67-4.74,1.37-3.82c1.22-3.41,2.11-6.59,2.7-10.19l.91-5.54c.41.13,1.5.24,1.96.43,3.66,1.46,7.42,1.93,11.2,2.76,4.75,1.04,9.27,1.95,14.03,2.36l8.52.73c5.71.49,11.24,1.86,16.69,3.04.37,4.42,1.48,5.18,2.39,10.49l2.24,12.93c.82,4.76,2.04,7.84,2.78,13.35.4,2.97-.6,6.57,2.1,7.47l2.32,7.06c1.55,4.73,8.02,4.62,12.08,4.31,1.87-.14,3.73-.18,5.59-.71,2.13-.6,3.16-2.63,2.34-4.59v.06c-1.12-3.21-4.56-4.35-5.57-4.63-.73-.31-2.26.19-2.99.44-1.9.63-1.74-1.5-3.01-4.11-1.01-2.07-1.2-3.9-1.17-6.2l.18-15.77.74-8.26c.22-1.83.57-2.18.66-2.25,0,0,.01,0,.02-.01,4.46,3.77,15.15,9.44,20.81,11.59,2.7,1.03,4.23,2.7,5.2,5.42.3.84,1.06,1.31.46,2.51-1.5,3.01.15,4.71-2,6.7-1.47,1.36-.77,3.15-.92,4.75-.25,2.67.51,4.92,2.92,6.16,5.36,2.76,9.89-5.19,10.16-6.51l1.85-8.9c.13-.64.14-1.34.06-2.03-.06-1.35-.32-4.33-1.43-7-.08-.19-.15-.37-.23-.55-.03-.11-.07-.22-.1-.33v.1c-1.1-2.63-2.06-4.68-3.75-6.68-.3-.38-.62-.73-.95-1.04-.07-.07-.14-.14-.21-.21-1.93-1.9-5.45-4.74-7.25-6.16l-4.53-4.91-.5-.83c-.75-2.63-.38-2.98.11-3.79h0s0,0,0,0c.13-.22.26-.46.39-.8l2.66-5.42h0s5.42-10.83,5.42-10.83c1.17-.94,2.57-1.41,3.55-2.6.46-.31,1.19-.72,2.3-1.13.02-.02.03-.05.04-.07,2.81-1.35,5.39-3.15,8.6-3.32,5.24-.28,10.41,1.83,14.96,4.08,3.85,1.91,6.89.85,9.71-1.96,1.49-1.49,7.23-5,4-9.06Z"/>
</svg>