<?xml version="1.0" encoding="UTF-8"?>
<svg id="Capa_1" xmlns="http://www.w3.org/2000/svg" version="1.1" viewBox="0 0 300 200">
  <!-- Generator: Adobe Illustrator 30.2.1, SVG Export Plug-In . SVG Version: 2.1.1 Build 1)  -->
  <path d="M297.68,62.95s.02.01.02.02c-6.32-10.35,2.1-6.48-4.17-15.37-2.17-3.07-4.43-6.06-7.58-8.51-1.49-1.16-2.1-2.29-1.3-4.35.32-.82.43-1.45.79-2.6,1.04-1.45,1.85-6.98.17-5.92l-7.33,4.63h.31c-2.84,1.12-4.72,2.26-7.98,2.09,0,0-1.46-2.11-2.61-3.74-1.59-2.21-4.2-1.62-5.77.06l-2.95,3.17c-.61.66-2.7.33-3.53.6l-2.69.86-4.44,1.46c1.19.71.66.56-.26.21l-4.49,1.37c-.37.11-1.1.52-1.46.46-.33-.05-.93-.28-.9-.13l.12.84-2.02-.22c-.01.32.09.86-.1.83l-1.06-.16c-.22-.03-.78-.18-.74-.04l.25.74-2.53-.5c-.21-.04-.62.2-.55.36l.42.88-3.15-.71.24.96-3.1.09.52.98c.08.15.12.35,0,.33l-.91-.15c-.25-.04-1.01-.32-1-.1l.02.8-1.87.73-1.11-.34c-.21-.07-.44.3-.77.61-1.93-.24-3.55-.74-5.51-1.45l.9,1.34c-.73-.34-1.33-.79-1.42-.59l-.36.75c-.98-.13-2.09-.23-3.05-.26l-3.46-.12c-.49,2.29-8.31-.75-9.76-1.24-3.17-1.07-5.42,0-7.23-1.21l-.03.83c0,.1-.38-.19-.42-.27l-.23-.42-.58.87c-.11.16-.82-.01-.99-.15l-2.32-1.87-.55,2.01c-.36-.26-1.84-1-2.38-.57-1,.79-2.42-.62-5.83-.65-1.23-.01-2.05.38-3.26-.55-.58-.44-1.31-.48-1.89-.21l-1.95-.67c-.73.53-1.4.15-2.27.07l-3.61-.31-5.94-.1c-.84-.01-1.91.1-2.56.02-2.06-.25-4.03-.38-5.95.05l-4.13-1.24c-.88.27-.61.36.48.92l-4.92-.58-3.46-.48,1.07,1c-3-.08-5.69-1.93-7.62-1.06-1.27-.16-2.75-.47-3.89-.44l-4.59.09-6.85-.13c-.6-.01-7.25.04-7.12.54l-3.45.05,1.72.83-5.57.79c-.52.07-1.48.6-1.99.68l-5.61.85,2.36.43-5.35,2.01-3.25,1.11c-1.03.35-1.95.48-3.26.68l1.22.36-3.79,1.01c.54.66.56.79.13.65l-3.02,1.45-6.24,3.41c1.03.35,1.26.47.51.49l-3.97,2.08-1.66.89,1.24.65-3.09,1.55,1.06.29-2.75,2.69,1.3.42-4.31,3.27c.44,2.13-2.09,1.83-1.73,3.09l.4,1.42c-4.71,3.93-2.28,3.73-3.12,5.18-.51.87-1.45,2.61-1.95,3.64l-1.52,3.11c-2.66,5.46-.78,2.92-3.2,7.85-.54,1.11-.71,1.82-.91,3.02-.19,1.13-1.24,2.62-1.59,3.78-.95,3.21-2.19,3.65-2.7,4.9-1.16,2.87-1.76,4.45-3.43,6.99-.38.58-.87,1.65-1.36,1.97-.63.41-1.52,1-1.43,1.48l.29,1.61c-.52.51-1.5,1.39-2.12,2.11l-3.26,3.68c-.63.72-1.18,1.58-2.05,2.12-2.28,1.42-3.39,3.11-4.89,3.91l-4.95,2.65c-1.26.68-1.92.9-3.41,1.4l-5.42,1.8-4.93,1,.62.71c-1.15.66-2.38.82-4.08.92l1.11.79-2.2.39c.28.26.76.64.6.68l-.73.15c-1.44.3-2.43.98-3.73,2.31l1.38.06-2.08,1.75c-.33.27-.2,1.43.05,1.78l-1.56,1.76h1.2s-1.75,2.81-1.75,2.81c.3,1.53.3,2.64-.11,4.05l1.22-.87c-.48,1.56-.36,2.97.87,4.31l3.1,1.04-1.25.46,3.23.21-2.03.69,5.82-.17-2.75,1.23c1.73.18,2.9-.09,4.57-.68.35.17.67.85,1.06.74l1.78-.51-.73,1.39,2.78-.45c1.71-.27,3.49-1.01,4.97-1.8l1.51.65,2.46-1.87-.09,2.08c1.57-1.04,2.81-1.98,4.18-3.11.04-.13.87.4.88.68l.03,1.3c1.01-.56,2.28-1.52,3.33-1.98,1.01-.44,1.91-1.01,2.51-2.03l-.41,2.35,2.91-3.32.11,1.41c1.71-1.48,3.06-3.08,4.49-4.95l.89,1.33,1.82-2.43.54,1.06,2.71-4.92-.2,2.23,1.84-3.47c-.75,9.91-2.14,17.53,1.18,27.09.76,2.2,2.88,4.07,4.59,5.74,2.49,2.42,12.84,1.8,16.05-.3,2.7-1.77,1.96-5.06.81-7.4-1.34-2.72-3.19-4.35-6.5-3.94-.08-3.48-.03-6.78.66-10.17.28-1.39,1.35-2.5,2.12-3.51l1.81-2.37c1.09.59,1.61-.51,2.24-1.31.23.24.47.67.68.58l.87-.38c1.28-.55,2.48-1.19,3.52-1.91l.74.61c.45.37,1-1.58,3.2-1.8l1.66-1.53c.3.14.89.65,1.11.44l.89-.88c1.24.21,2.86-.42,3.8-1.43.05.1.73.3.81.03.2-.68,1.95-.85,2.53-1.26l4.21-2.95c.42-.3.8-.55,1.03-.66.18-.09.78.31.91.14.67-.84,2.2-2.54,3.07-3.17l-.08,1.68,2.34-2.57.84.38c.27.12-.84,2.15.1,1.65l.56-.3-1.01,2.7,1.62-1.01-1.26,2.73,1.5.68-.79,3.27c1.63,1.2-3.76,4.46.38,10.1,4.34,5.92,14.9,16.76,21.41,19.69l3.16,1.43c1.28.58,3.49.16,5,.39,2.68.42,4.97.36,7.67-.06,1.89-.29,4.44-.19,5.65-1.79,2.31-3.05.49-6.57-2.2-8.53-6.39-4.66-6.93,1.17-10.27-2.24l-3.39-3.45c-1.54-1.57-2.99-3.05-4.12-5.08-.51-.91-.73-3.43.17-3.94,1.16-.67.92-2.65,1.52-3.6,1.97-3.13,3.84-6,5.48-9.15.67-1.3,1.58-2.86,2.39-3.9,2.03-2.6,1.77-6.53,4.14-9.66l.84,1.89.35-1.9,1.17,1.63v-1.99s1.75,2.64,1.75,2.64l.87-2.06c.34-.06.79-.04.84-.25l.29-1.18c.48.73.97,1.79,1.42.98l1.71,1.75-.54-2.3,2.89,3.11.62-2.4.3,1.36,1.68-2.86.03,2.95,1.43-1.63c.29.25.89.31.86.56l-.2,1.47,2.27-1.95c.63.15,1.23.13,1.85.08.22.04.75.51.94.36l.97-.81,1.34-.44.66,1.03c.7.19,1.05.41,1.72.98l.48-1.17.61,1.27c.06.13.51-.09.55-.23l.31-1.1.55,1.31,1.39-1.26-.66,1.85,2.3-1.66-.23,1.39,2.16-1.32-.05,2.7,1.11-1.84.59,2.23c.51-.85.63-1.06,1.13-2.23l.92,2.01,1.07-1.89-.23,2.18,1.79-2.51-.3,2.18,2.04-.38-.02,1.5.91-1.08c.05.32-.02,1.46.23,1.39l1.54-.41v2.32c.14.02.72-.05.72.13v.89c.23.01,1.04-.09.95.16l-.44,1.28c2.75,3.42-.52,2.02,1.23,5.86,2.78,6.09-.23,6.96,2.31,8.75.38.27.51,1.11.3,1.53.26.91.68,2.12.87,3.04l1.09,5.31.69,2.88c.67,2.78,1.18,5.04,2.94,7.5l1.06,3.09c.7,2.02,1.59,4.22,3.09,5.64,2.5,2.36,5.69,3.43,9.05,3.34l7.6-.2c.73-.02,2.18-.59,2.96-.75,3.31-.72,4.72-3.75,3.68-6.8-1.02-2.99-5.17-7.35-9.07-5.87-2.06-2.09-2.66-5.49-2.3-8.49l1.63-13.7.42-3.87c.53-4.84.99-.98,2.11-6.12.22-.56.39-.73.44-.76.01.18.03.36.05.55.73-.75.68-1.49.62-2.42.52.53,1.38,1.53,2,1.94l2.6,1.72c.99.65,1.86,1.25,2.93,2.07l.76.02c.18,0,.57.66.74.74l3,1.39,2.08.91,1.97.83c-.07.03.55-.29.57-.3l2.75,2.28c.35-.71.41-.81.3-.49l2.83,1.13c.75.3,1.41.49,2.26.64,2.79.49,3.83,2.05,4.23,1.84l.63-.33,4.13,2.91c1.07.75,2.58,2.01,3.09,3.32l1.57,4.06c.89,2.32,1.55,3.77,1.98,6.24.53,3.02,3.7,5.85,6.53,7.09,2.32,1.02,5.86-.03,7.17-2.02,2.9-4.41,1.26-9.36.2-14.05l-1.76-7.79c-.45-1.97-6.02-11.35-8.89-14.05-1.46-1.37-2.86-2.72-4.4-3.99-3.49-2.89-6.97-5.81-9.3-9.75l.04-2.87c-.17-.23.07.09.16.21l.52.69.28-2.19.99.97c1.43-6.88,2.49-2.15,2.43-11.03,1.05.62-.26,1.22,1.25,3.25l.26-2.87.86,1.19.3-2.23.54,1.06c.04.09.13-.46.22-.49l.43-.16c.26-4.97,3.91-.22,3.47-6.48l.74.52c.09.06.41-.13.42-.24l.04-.58c.02-.24-.18-1.02.06-1.01h1.21c.6-3,.93-.86,1.79-4.6l1.56.08.65.7c.12.13.37-.34.4-.51l.12-.95c-.51-.38-.39-.31.53.33l1.3-2.58.33,2.04.86-2.5.49.6c.09.11.19.15.24.02.04-.13.22-.8.31-.9,3.17-3.49,3.74-2.75,4.96-3.36.43.04.74.06.94.08,0,0,0,0,0,0l3.7,1.16c2.08.65,4.47,1.16,6.24-.17,0,0,0,0,0,0,1.27-.8,2.02-1.13,2.9-2.1,1.19-1.31,2.39-1.99,3.42-3.14,1.34-1.5,2.67-4,3.44-6.01.63-1.65-.92-3.67-2.01-4.84Z"/>
</svg>