<?xml version="1.0" encoding="UTF-8"?>
<svg id="Capa_1" xmlns="http://www.w3.org/2000/svg" version="1.1" viewBox="0 0 300 200">
  <!-- Generator: Adobe Illustrator 30.2.1, SVG Export Plug-In . SVG Version: 2.1.1 Build 1)  -->
  <path d="M299.01,65.98c3.42-4.26-4.91-11.15-6.56-18.49-.39-1.72.21-3.63-.63-5.33-2.23-4.52-5.4-8.51-9.39-11.64-.15-3.09,1.17-3.15.08-7.38-.08-.3-.79-.97-1.08-.86-.88.33-3.81,3.28-6.8,3.98-2.84-2.18-6.37-1.53-9.31-2.71-1.99-.8-4.06-2.92-6.26-.69-.49.5-1.67,1.19-2.54,1.27-5.51.49-10.57,1.47-15.95,2.66-5.39,1.19-10.59,2.7-16.16,2.94-8.23.35-16.38-3.54-23.17.06l-8.47,4.5c-3.4,1.81-7.54,1.33-11.33,1.21-7.86-.25-15.22-.89-23.05-1.79-9.66-1.11-19.03-2.24-28.75-1.74l-16.95.87c-8.38.43-16.19,2.58-24.16,5.13-11.08,3.55-20.94,9.74-28.28,18.82-2.65,3.28-4.94,6.71-6.76,10.5-3.13,6.5-5.42,13.13-7.85,19.9-.99,2.77-1.88,5.36-3.11,8.01-2.96,6.36-7.95,11.59-14.45,14.17-4.81,1.91-9.91.97-13.24-2.85-2.35-2.69-3-6.61-1.11-9.72,1.81-2.98,6.21-2.01,7.97-6.92.94-2.62.13-5.31-2.39-6.76-7-4.06-14.49,2.1-17.12,8.41-2.76,6.63-2.8,14.45.7,20.89,1.42,2.62,3.52,4.88,5.81,6.74,5.86,4.76,14.1,5.64,21.41,4.15,6.4-1.31,11.96-5.06,16.63-9.67,4.41-4.36,7.51-9.38,10.19-14.93l3.62-7.48c-.48,4.26-1.24,8.26-2.29,12.33l-1.34,5.22c-1.04,4.05-2.61,7.88-4.33,11.66-1.97,4.32-4.82,7.92-8.57,10.73-1.46,1.09-2.03,2.64-2.18,4.42l-1.26,14.86c-.28,3.34-.32,6.49-.12,9.81l.35,5.74c.12,2,.36,3.79.79,5.79l2.45,2.23c1.48,4,7.31,3.84,10.75,3.6,2.06-.14,3.87-.19,5.84-.74,1.74-.48,3.94.3,5.17-3.82.9-3-.68-5.86-3.13-7.45-3.75-2.44-7.01-.69-7.31-3.91-.61-6.39-.43-10.4,3.14-15.65,2.62-3.85,5.78-6.77,9.51-9.48,3.98-2.89,7.02-6.62,10.66-9.9,4.16-3.76,8.02-7.46,11.63-11.77,1.08-1.29,2.24-2.47,3.52-3.74l2.56,6.6c1.65,4.26,2.69,8.57,3.42,13.11.46,2.9.95,5.78.52,8.7-.86,5.8-3.15,6.89,1.36,12.34,2,2.42,3.44,5.07,5.56,7.35,3.68,3.97,7.79,7.29,11.94,10.73,1.4,1.16,2.51,2.33,3.25,4.13,4.89.89,11.07.22,16.3-.39,1.94-.23,3.74-.96,4.49-2.49.84-1.71.84-3.68-.38-5.36-6.38-8.81-10.11-.16-15.02-5.87-2.34-2.72-4.61-5.39-6.34-8.62-1.18-2.21-2.02-5.49-1.68-8.01.71-5.23,2.7-9.82,3.78-14.9l4.07-19.32c7.73,2.74,9.52,3.21,17.52,4.37,12.69,1.84,18.02-1.57,29.47-.96,3.48.18,6.6,1.37,9.96,2.19.38,1.26.66,2.31.83,3.59,1.11,8.47,2.36,16.68,4.36,24.97.86,3.55,2,6.85,2.08,10.54.05,2.1-.73,4.57.78,6.33.69.8,1.37,1.55,1.72,2.61,1,3.05,1.96,5.49,2.7,8.48.69,2.8,1.15,3.98,5.25,5.07,1.22.32,1.63,1.69,4.65,1.75,3.81.08,4.97-.44,6.58-.6,1.03.38,2.46.54,4.89-.14.89.04,2.92-.37,3.26-.58.7-.43,3.38-2.54,3.62-3.44,1.62-6.04-6.93-10.75-12.18-11.01-2.13-3.51-4.03-5.98-3.31-10.18.59-3.47.61-6.68.82-10.18.42-7.12,1.39-13.92,2.51-21.11l3.66,3.37c3.08,2.84,5.99,5.8,9.62,7.98,4.33,2.59,8.82,4.45,13.39,6.65,2.7,1.3,2.45,4.98,4.21,6.73-.25,1.77-.35,3.66-.49,5.54-.12,1.62-1.19,3.42-1.62,5.08-.49,1.9-.2,3.84,0,5.79.32,3.16,3.04,7.89,7.26,6.8,1.37-.35,3.61-.63,4.48-1.91,1.41-2.06,2.6-3.98,3.76-6.19.62-1.19.39-3.1.6-4.47.39-2.64,1.32-5.34,1.09-7.96l-.76-8.61c-.28-3.24-1.56-6.82-3.46-9.49l-10.16-14.21c-9.81-13.71-3.3-9.61-.52-25.94l1.34-7.85c.93-5.44,11.96-11.29,16.2-11.72,3.85-.39,8.56.99,11.42,3.45l6.79,5.82c2.91,2.5,7.06,2.88,10.33.44,0-.01-.02-.03-.03-.04.44-.32,1.16-.93,1.62-1.69,1.01-1.18.15-2.64,1.84-3.65.61-.12,1.81-.61,2.52-2.61.02.01.03.02.05.03.05-.24.11-.47.16-.7.07-.24.13-.47.18-.7.5-1.81,1.19-3.35,2.38-4.84Z"/>
</svg>