<?xml version="1.0" encoding="UTF-8"?>
<svg id="Capa_1" xmlns="http://www.w3.org/2000/svg" version="1.1" viewBox="0 0 300 200">
  <!-- Generator: Adobe Illustrator 30.2.1, SVG Export Plug-In . SVG Version: 2.1.1 Build 1)  -->
  <path d="M296.29,50.56s0,0,0,0c.29-.11.19-.07,0,0Z"/>
  <path d="M299.63,65.02c-.88-2.51-2.24-4.9-3.3-7.49-.17-.42-1.32-6.48-1.04-6.58l.58-.22c.12-.04.3-.11.43-.16-1.29-3.44-.37-3.46-2.6-6.51l-5.14-7.03c-.14-.19-.26-.37-.37-.54v-.03c0-.1-.27-2.43-.12-2.87.18-.53,1.02-1.72.98-2.17-.04-.42.35-.43.48-1.27,0,0,0-.01,0-.02.13-.99.31-4.84-.17-5.6-.75-1.19-1.69-.16-2.32.33-3.17,2.47-6.72,4.8-10.47,6.16-1.82-.38-4.11-.75-5.86-.88-1.07-1.92-2.03-4.02-3.75-5.41-2.22-1.79-5.24-1.74-6.99.67-1.44,1.99-2.52,4.18-3.63,6.44l-10.51,1.38-10.78,1.38c-11.66,1.49-11.7-.96-21.74-2.18-2.08-.25-4.2-.14-6.19.46-9.53,2.87-7.82,5.75-19.34,5.78h-3.67c-3.17.01-6.12-.37-9.27-1.02-10.78-2.22-21.46-2.46-32.45-2.51l-15.14-.07c-5.36-.02-10.61-.22-15.9.73-8.04,1.43-15.43,4.41-22.86,7.59-2.81,1.2-5.31,2.35-7.8,4.11-5.19,3.66-10.09,7.61-13.76,12.86-7.29,10.43-10.33,24.95-12.65,37.34-.87,4.67-1.85,9.12-3.06,13.73-.72,2.77-1.81,5.33-2.83,8.03-2.98,7.93-8.38,15.52-15.39,20.34-4.58,3.15-10.41,4.07-15.39,1.35-1.8-.98-3.08-2.82-4.64-4.07-2.53-2.04-5.83-3.02-8.78-2.23l-3.37.9c-.73,3.14-1.11,6.28.34,9.21,1.99,4,6.17,7.84,10.2,9.49,3.49,1.43,7.39,2.06,11.24,2.13,4.02.08,8.25-1.17,11.96-2.68,1.15-.47,2.24-1.06,3.35-1.58,3.42-1.61,9.16-6.36,11.68-9.57l-.14,4.16c-.21,6.11-.47,11.99.09,18.11.16,1.73-.27,3.93.66,5.47,1.1,1.81,2.91,3.56,4.75,4.65,1.92,1.14,4.56,1.1,6.68.87,3.5-.37,6.91-.52,10.21-1.75,1.52-.57,2.17-3.05,2.1-4.31-.1-1.76-1.15-2.91-2.21-4.3-3.24-4.24-6.49-1.42-7.52-2.44-1.09-1.07-1-5.07-.97-6.73.08-3.58.48-7.13,2.5-10.33,5.08-8.04,9.16-8.08,17.26-15.73l11.34-10.7c2.25-2.12,3.84-4.85,6-7.31.67,1.29,1.43,2.57,1.95,3.73l1.81,4.02c.35.78.34,2.18.43,3.24l.76.17.71,3.04,1.03,3.95c1.18,4.53.14,9.29-.97,13.72-.44,1.77-.57,3.56.72,5.14l7.35,8.98c1.16,1.41,2.44,2.91,3.9,3.98,1.26.93,10.85,7.77,8.97,9.34.16.29,1.4,1.17,1.95,1.2,5.07.21,10-.03,15.01-.67,3.04-.39,5.88-2.69,4.98-5.96-.53-1.95-2.26-4.07-4.03-5.06-3.97-2.2-7.45,1.16-9.71-.83-3.16-2.78-7.88-7.28-9.09-11.28-1.8-5.94.36-11.45,2.3-17.11,1.18-3.44,1.85-6.82,2.72-10.36l1.5-6.14c.45-1.86.78-3.83,1.04-5.6.77.36,1.63.67,2.35.74,4.13.42,2.62,1.25,4.86.91.95.38,2.15.68,3.26.93l1.15.26c.21.05.56-.49.74-.38l.99.57c.17.1.74-.34.98-.31l7.27.7c7.17.69,15.87-.68,17.22-.51l8.24,1.02c2.81.35,5.31.59,8.14,1.01.53,1.98,1.02,3.68,1.3,5.64l1.65,11.44,1.3,8.61c.86,5.65,2.92,5.62,2.65,14.47-.17,5.59,2.42,4.49,3.27,7.52l2.37,8.52c1.04,3.76,6.74,5.16,10.24,5.28l6.91.24c1.9.07,3.61-.39,5.44-.81l3.09-.71c.15-3.15,3.74-2.07-.07-8.2-2.14-3.44-5.8-5.09-9.7-3.72-1.95-5.34-4.45-6.05-3.95-11.21.63-6.53-.1-7.1.06-12.15.22-6.84.66-13.31,1.3-20.1l3.99,3.57c2.8,2.5,7.95,6.6,11.2,8.48l9.61,5.55c2.16,1.25,4.69,1.96,5.31,4.85.24,1.11.97,2.34,1.79,3.1-.8,1.78-.63,3.49-.36,5.42l-1.1,4.1c-.41,1.51-.58,2.88-.76,4.39-.39,3.25.33,5.88,3.28,7.88,1.61,1.09,3.8.73,5.75.2,2.05-.56,2.97-1.77,3.93-3.55,1.17-2.17,2.61-4.2,2.69-6.81.1-3.06,1.21-6.11,1.05-9.14-.12-2.26-.66-4.32-.49-6.63.14-1.84-.28-3.66-.71-5.43-.66-2.68-1.75-4.94-3.49-7.12-4.82-6.01-9.4-12.12-13.44-18.62-1.34-2.16-.66-3.95.24-6.01.76-1.74,1.26-3.76,1.76-5.64l2.67-9.93c2.78-10.33.89-7.75,10.05-13.82,4.21-2.79,3.5-1.29,6.2-1.69,17.6-2.66,15.25,13.19,26.79,7.74.52-.23.88-.41,1.5-1.64.01-.02.02-.05.04-.07.47-.67.75-1.59,1.3-2,.96-.7,2.11-1.27,2.83-2.14,1.42-1.73,1.42-3.77,2.11-5.65.5-1.38,1.77-2.04,1.1-3.96Z"/>
</svg>