<?xml version="1.0" encoding="UTF-8"?>
<svg id="Capa_1" xmlns="http://www.w3.org/2000/svg" version="1.1" viewBox="0 0 300 300">
  <!-- Generator: Adobe Illustrator 30.2.1, SVG Export Plug-In . SVG Version: 2.1.1 Build 1)  -->
  <defs>
    <style>
      .st0 {
        fill: #fff;
      }

      .st1 {
        fill: #dbdbdb;
      }
    </style>
  </defs>
  <g id="patas">
    <path class="st1" d="M128.06,203.08c-.9,0-1.79-.24-2.64-.65-4.83-2.28-6.38-8.46-3.41-12.9,6.98-10.44,12.02-22.98,14.99-31.53-.09-.04-.19-.07-.29-.11-.09-.04-.19-.07-.29-.11-1.16-.46-2.5-1.01-3.91-1.63-3.58-1.59-7.78-.71-10.37,2.24-3.78,4.29-8.94,9.83-13.61,13.69-.13.11-.27.22-.4.33-.14.11-.27.22-.41.33-1.93,7.21-4.76,13.78-6.63,17.74-1.11,2.34-.55,5.12,1.38,6.85l17.66,15.84c1.64,1.47,3.77,2.29,5.97,2.29h17.36v-.31c0-11.48-12.84-12.06-15.41-12.06Z"/>
    <path class="st1" d="M238.88,161.22c-.79-.79-1.02-1.97-.61-3.01,1.71-4.28,2.87-10.91,3.6-16.53.06-.42-.44-.69-.77-.42l-3.98,3.37c-.3.26-.54.58-.72.93-2.68,5.52-9.36,14.4-11.87,17.68-.39.51-.6,1.14-.57,1.79.13,2.75,0,5.27-.13,6.93,0,.11-.02.22-.03.33,0,.12-.02.22-.03.32,13.45,6.22,28.99,18,31.44,20.06.34.29.6.65.77,1.06,4.31,10.32,12.87,14.24,19.13,13.48,2.55-.31,4.24-1.37,4.43-2.78.5-3.76-33.06-35.64-40.67-43.21Z"/>
    <path id="cuerpo" class="st0" d="M288.56,122.77c-.86-1.73-2.16-4.34-3.81-9.06-1.91-5.46-6.91-12.16-15.28-14.94-.43-.14-.78-.44-.99-.84-1.82-3.44-3.88-5.08-3.98-5.15l-.26-.2-.18.27-2.94,4.31c-5.82-4.9-9.81-5.49-9.98-5.51l-.26-.03-.08.25c-.59,1.91-.58,4.36.03,7.29-.01,0-.02,0-.04,0,.02.1.04.2.06.3.02.1.04.2.06.3,1.06,4.95,3.02,7.54,3.05,7.57.42.54.32,1.32-.22,1.74-.23.18-.5.26-.76.26-.37,0-.74-.16-.98-.48-.11-.15-2.34-3.07-3.52-8.56-.02-.1-.1-.5-.12-.6-3.55.72-7.8,1.35-11.34,1.2-2.05-.09-4.08-.41-6.24-.76-5.56-.89-11.31-1.81-17.8,1.32-8.52,4.11-38.15,4.99-63.56-.02-14.23-2.81-26.83-3.61-37.46-2.39-13.27,1.53-23.04,6.23-29.06,13.97-3.94,5.07-6.69,11.71-9.6,18.73-6.72,16.22-13.66,32.99-36.21,31.4-5.31-.37-9.36-2.68-11.72-6.67-3.64-6.17-3.08-16.12,1.47-26,0-.02.01-.03.02-.05.16-.43,3.92-8.48-1.91-10.98-5.83-2.51-9.76,5.98-10.78,8.53-.36.9-8.68,22.1-.03,36.01,4.28,6.88,11.98,10.8,22.9,11.66,11.35.89,21.85-2.83,31.2-11.08,3.92-3.45,7.24-7.37,9.99-11.2.3-.57.58-1.16.86-1.76.24-.53.48-1.07.72-1.62,1.7-4.06,3.1-8.81,4.12-14.16,1.57-8.23,1.72-14.86,1.72-14.92,0-.84.7-1.53,1.55-1.53.86,0,1.55.7,1.55,1.55,0,.06-.13,6.82-1.75,15.37-1.29,6.81-3.11,12.62-5.43,17.39-.37.76-.75,1.5-1.15,2.21-.37.66-.75,1.3-1.14,1.91-5.33,12.29-11.66,17.22-15.87,19.2-2.56,1.2-3.99,3.96-3.68,6.77,1.5,13.6-2.58,32.5-2.58,32.5h11.56c0-.1.01-.21.01-.31,0-.1,0-.21,0-.31-.08-2.3-1.39-3.38-1.4-3.4-.54-.43-.62-1.21-.2-1.74.43-.54,1.21-.62,1.75-.2.11.09,2.25,1.86,2.34,5.34,0,.1.01.2,0,.31,0,.1-.01.21-.02.31h3.03c0-.1.02-.21.02-.31,0-.11,0-.2,0-.31-.04-2.51-1.37-3.73-1.44-3.79-.51-.45-.57-1.23-.13-1.75.44-.51,1.21-.58,1.73-.15.11.1,2.28,1.97,2.32,5.69,0,.1,0,.2,0,.31,0,.1-.01.2-.02.31h3.63v-.31c0-2.72-.86-4.93-2.55-6.56-2.94-2.83-7.45-3.06-8.7-3.07.06-15.01,4.73-17.47,15.9-23.38,4.63-2.45,10.39-5.49,17.4-10.24,1.45-.98,2.88-2.03,4.28-3.12.86-.71,1.74-1.49,2.62-2.31.13-.12.25-.23.38-.35,7.42-6.94,15.25-16.61,15.35-16.73.49-.6,1.35-.75,2.01-.35,3.39,2.07,7.43,3.83,10.38,4.99.1.04.19.07.29.11.1.04.19.08.29.11,0,0,0,0,0-.01,1.03.33,2.06.67,3.08,1,10.42,3.41,20.26,6.64,36.16,6.64,5.6,0,11.19-.53,16.68-1.56-.02-.1-.04-.2-.06-.3-.02-.1-.04-.2-.06-.3-3.73-19.22,2.58-35.33,2.86-36.04.32-.79,1.22-1.18,2.01-.86.79.32,1.18,1.22.86,2.01-.07.16-6.22,15.97-2.7,34.26.02.1.04.2.06.3.02.1.04.2.06.31.02,0,.04,0,.07-.01.43,2.29.96,4.5,1.57,6.59,6.31,21.46,3.25,29.94,3.22,30.02l-.05.13.06.12c.05.11,5.05,6.16,6.05,17.9.05.56.53,1.02,1.09,1.02h12.74c0-.1.01-.21.01-.31,0-.1,0-.21,0-.31-.09-2.26-1.34-3.35-1.41-3.41-.52-.44-.6-1.22-.17-1.74.43-.53,1.2-.61,1.73-.19.11.09,2.25,1.86,2.34,5.34,0,.1.01.2,0,.31,0,.1-.01.21-.02.31h3.03c0-.1.02-.21.02-.31,0-.11,0-.2,0-.31-.04-2.51-1.37-3.73-1.44-3.79-.51-.45-.57-1.23-.13-1.75.44-.51,1.21-.58,1.73-.15.11.1,2.28,1.97,2.32,5.69,0,.1,0,.2,0,.31,0,.1-.01.2-.02.31h3.55v-.31c0-.12-.02-2.88-1.84-5.69-1.66-2.56-5.2-5.6-12.61-5.66l-3.45-9.47c-.36-.99-.3-2.1.18-3.04,1.35-2.62,3.9-8.65,5.02-18.43,0-.07,0-.14,0-.21,0-.02.13-1.01.23-2.53,0-.1.01-.22.02-.33.11-1.85.17-4.38-.04-6.93-.03-.39.08-.78.33-1.09.43-.54,10.57-13.51,12.99-19.46,0-.02.02-.04.04-.05l7.72-6.52.34-.28,1.2-1.02s0,0,0,0c3.52-3.28,6.31-6.29,8.27-8.55.49-.57,1.33-.65,1.93-.21,1.53,1.12,3.21,1.87,5.02,2.25,9.47,1.96,11.92,3.36,16.05,6.55.98.76,2.81,1.28,4.26.74.88-.33,1.48-.99,1.74-1.93.85-.04,3.56-.38,3.87-3.25.91-.3,4.57-1.64,5.07-3.65.39-1.56-.03-2.41-1.05-4.45ZM279.08,115.79c-.52.74-1.78.76-2.81.04-1.03-.72-1.44-1.91-.92-2.65.52-.74,1.78-.76,2.81-.04,1.03.72,1.44,1.91.92,2.65Z"/>
  </g>
</svg>