<?xml version="1.0" encoding="UTF-8"?>
<svg id="Capa_1" xmlns="http://www.w3.org/2000/svg" version="1.1" viewBox="0 0 297.6 141.7">
  <!-- Generator: Adobe Illustrator 30.3.0, SVG Export Plug-In . SVG Version: 2.1.3 Build 182)  -->
  <defs>
    <style>
      .st0 {
        fill: #fff;
      }

      .st1 {
        fill: #dbdbdb;
      }
    </style>
  </defs>
  <g id="Felino">
    <path id="pata_x5F_trasera" class="st1" d="M126.9,121.4c-.9,0-1.8-.2-2.6-.6-4.8-2.3-6.4-8.5-3.4-12.9,7-10.4,12-23,15-31.5,0,0-.2,0-.3-.1,0,0-.2,0-.3-.1-1.2-.5-2.5-1-3.9-1.6-3.6-1.6-7.8-.7-10.4,2.2-3.8,4.3-8.9,9.8-13.6,13.7-.1.1-.3.2-.4.3-.1.1-.3.2-.4.3-1.9,7.2-4.8,13.8-6.6,17.7-1.1,2.3-.6,5.1,1.4,6.9l17.7,15.8c1.6,1.5,3.8,2.3,6,2.3h17.4v-.3c0-11.5-12.8-12.1-15.4-12.1h0Z"/>
    <path id="pata_x5F_delantera" class="st1" d="M237.7,79.6c-.8-.8-1-2-.6-3,1.7-4.3,2.9-10.9,3.6-16.5,0-.4-.4-.7-.8-.4l-4,3.4c-.3.3-.5.6-.7.9-2.7,5.5-9.4,14.4-11.9,17.7-.4.5-.6,1.1-.6,1.8.1,2.8,0,5.3-.1,6.9,0,.1,0,.2,0,.3,0,.1,0,.2,0,.3,13.4,6.2,29,18,31.4,20.1.3.3.6.6.8,1.1,4.3,10.3,12.9,14.2,19.1,13.5,2.5-.3,4.2-1.4,4.4-2.8.5-3.8-33.1-35.6-40.7-43.2h0Z"/>
    <path id="cuerpo" class="st0" d="M287.4,41.1c-.9-1.7-2.2-4.3-3.8-9.1-1.9-5.5-6.9-12.2-15.3-14.9-.4-.1-.8-.4-1-.8-1.8-3.4-3.9-5.1-4-5.2l-.3-.2-.2.3-2.9,4.3c-5.8-4.9-9.8-5.5-10-5.5h-.3s0,.2,0,.2c-.6,1.9-.6,4.4,0,7.3h0c0,0,0,.2,0,.3,0,0,0,.2,0,.3,1.1,4.9,3,7.5,3.1,7.6.4.5.3,1.3-.2,1.7-.2.2-.5.3-.8.3-.4,0-.7-.2-1-.5-.1-.2-2.3-3.1-3.5-8.6,0,0-.1-.5-.1-.6-3.6.7-7.8,1.3-11.3,1.2-2.1,0-4.1-.4-6.2-.8-5.6-.9-11.3-1.8-17.8,1.3-8.5,4.1-38.1,5-63.6,0-14.2-2.8-26.8-3.6-37.5-2.4-13.3,1.5-23,6.2-29.1,14-3.9,5.1-6.7,11.7-9.6,18.7-6.7,16.2-13.7,33-36.2,31.4-5.3-.4-9.4-2.7-11.7-6.7-3.6-6.2-3.1-16.1,1.5-26,0,0,0,0,0,0,.2-.4,3.9-8.5-1.9-11-5.8-2.5-9.8,6-10.8,8.5-.4.9-8.7,22.1,0,36,4.3,6.9,12,10.8,22.9,11.7,11.3.9,21.8-2.8,31.2-11.1,3.9-3.4,7.2-7.4,10-11.2.3-.6.6-1.2.9-1.8.2-.5.5-1.1.7-1.6,1.7-4.1,3.1-8.8,4.1-14.2,1.6-8.2,1.7-14.9,1.7-14.9,0-.8.7-1.5,1.6-1.5s1.6.7,1.6,1.6-.1,6.8-1.8,15.4c-1.3,6.8-3.1,12.6-5.4,17.4-.4.8-.8,1.5-1.2,2.2-.4.7-.8,1.3-1.1,1.9-5.3,12.3-11.7,17.2-15.9,19.2-2.6,1.2-4,4-3.7,6.8,1.5,13.6-2.6,32.5-2.6,32.5h11.6c0-.1,0-.2,0-.3v-.3c0-2.3-1.4-3.4-1.4-3.4-.5-.4-.6-1.2-.2-1.7.4-.5,1.2-.6,1.8-.2.1,0,2.2,1.9,2.3,5.3,0,.1,0,.2,0,.3,0,.1,0,.2,0,.3h3c0-.1,0-.2,0-.3v-.3c0-2.5-1.4-3.7-1.4-3.8-.5-.4-.6-1.2-.1-1.8.4-.5,1.2-.6,1.7-.1.1.1,2.3,2,2.3,5.7v.3c0,.1,0,.2,0,.3h3.6v-.3c0-2.7-.9-4.9-2.6-6.6-2.9-2.8-7.4-3.1-8.7-3.1,0-15,4.7-17.5,15.9-23.4,4.6-2.4,10.4-5.5,17.4-10.2,1.4-1,2.9-2,4.3-3.1.9-.7,1.7-1.5,2.6-2.3.1-.1.2-.2.4-.4,7.4-6.9,15.2-16.6,15.3-16.7.5-.6,1.3-.8,2-.4,3.4,2.1,7.4,3.8,10.4,5,.1,0,.2,0,.3.1.1,0,.2,0,.3.1h0c1,.3,2.1.7,3.1,1,10.4,3.4,20.3,6.6,36.2,6.6s11.2-.5,16.7-1.6c0-.1,0-.2,0-.3s0-.2,0-.3c-3.7-19.2,2.6-35.3,2.9-36,.3-.8,1.2-1.2,2-.9s1.2,1.2.9,2c0,.2-6.2,16-2.7,34.3,0,.1,0,.2,0,.3s0,.2,0,.3c0,0,0,0,0,0,.4,2.3,1,4.5,1.6,6.6,6.3,21.5,3.2,29.9,3.2,30h0c0,.1,0,.2,0,.2,0,.1,5.1,6.2,6.1,17.9,0,.6.5,1,1.1,1h12.7c0-.1,0-.2,0-.3v-.3c0-2.3-1.3-3.4-1.4-3.4-.5-.4-.6-1.2-.2-1.7.4-.5,1.2-.6,1.7-.2.1,0,2.2,1.9,2.3,5.3,0,.1,0,.2,0,.3,0,.1,0,.2,0,.3h3c0-.1,0-.2,0-.3v-.3c0-2.5-1.4-3.7-1.4-3.8-.5-.4-.6-1.2-.1-1.8.4-.5,1.2-.6,1.7-.1.1.1,2.3,2,2.3,5.7v.3c0,.1,0,.2,0,.3h3.6v-.3c0-.1,0-2.9-1.8-5.7-1.7-2.6-5.2-5.6-12.6-5.7l-3.4-9.5c-.4-1-.3-2.1.2-3,1.4-2.6,3.9-8.6,5-18.4v-.2s.1-1,.2-2.5c0-.1,0-.2,0-.3.1-1.9.2-4.4,0-6.9,0-.4,0-.8.3-1.1.4-.5,10.6-13.5,13-19.5,0,0,0,0,0,0l7.7-6.5.3-.3,1.2-1h0c3.5-3.3,6.3-6.3,8.3-8.6.5-.6,1.3-.7,1.9-.2,1.5,1.1,3.2,1.9,5,2.3,9.5,2,11.9,3.4,16,6.6,1,.8,2.8,1.3,4.3.7.9-.3,1.5-1,1.7-1.9.9,0,3.6-.4,3.9-3.2.9-.3,4.6-1.6,5.1-3.7.4-1.6,0-2.4-1-4.4h0ZM277.9,34.1c-.5.7-1.8.8-2.8,0s-1.4-1.9-.9-2.7,1.8-.8,2.8,0,1.4,1.9.9,2.7Z"/>
  </g>
</svg>