<?xml version="1.0" encoding="UTF-8"?>
<svg id="Capa_1" xmlns="http://www.w3.org/2000/svg" version="1.1" viewBox="0 0 300 200">
  <!-- Generator: Adobe Illustrator 30.2.1, SVG Export Plug-In . SVG Version: 2.1.1 Build 1)  -->
  <defs>
    <style>
      .st0 {
        fill: #fafafa;
      }
    </style>
  </defs>
  <path class="st0" d="M138.04,130.23c-.32-3.47,12.51-18.65,14.07-27.83,2.76-.36,7.33,2.75,10.02,2.8l12.93.24c7.71.14,16.01.61,22.9,3.32l5.9,18.44c1.59,4.97-9.03,11.21-4.97,16.96.99,1.4,5.06,1.53,6.49-.15,2.95-3.48,5.33-7.39,7.75-11.25,1.14,3.42,2.39,6.63,4.11,9.75l3.25,5.9c4.54,1.34,10.88,1.34,15-.17,1.24-.75.97-5.05-.02-6.04-4.09-4.08-9.24.83-10.12-4.74-1.27-8.01-1.76-15.46-1.1-23.72.25-3.09,3.88-6.79,6.3-8.44,8.79-5.99,5.91-9.33,25.28-21.63,5.57-3.53,13.07-1.61,18.81.49,6.6,2.41,12.12-3.48,12.89-5.59.5-1.35-.93-4.14-1.37-5.78-1.68-6.26-3.22-11.63-9.48-14.86,0,0-1.66-6.85-2.52-6.46-.71.32-1.62,2.32-2.57,2.59-1.16.34-2.43-.03-3.67-.47-1.39-.49-1.97-2.66-2.97-2.68s-1.71,2.13-2.97,2.48c-5.8,1.64-22.68,6.25-29.2,6.43-3.2.09-9.23-1.43-12.42-1.21-8.95.62-16.45,2.56-24.93-.2-14.76-4.81-29.6-6.34-45.06-7.39-10.38-.7-19.82-.68-29.75,3-5.82,2.15-12.11,4.16-16.8,8.43-5.36,4.89-9.74,10.67-13.25,16.94-10.66,19.03-21.11,39.76-44.07,44.67-10.71,2.29-19.99-2.63-24.25-12.61-.81-1.9-4.72-3.48-6.63-3.09-5.45,1.13-4.38,13.9,6.07,21.89,8.36,6.39,18.81,7.75,29.52,5.28,14.82-3.41,27.27-13.07,36.37-25.31,5.76-7.75,9.88-15.73,15.54-24.87-.62,14.68-3.44,20.88-17.02,30.51-3,9.15-2.55,20.08-.5,29.57,2.75,3.71,10.77,3.26,13.97,1.09,1.1-.75.98-4.99-.1-5.73s-3.02-1.16-5.57-1.74c-.56-3.32-.42-8.54,1.46-12.45.89-1.86,5.03-3.35,7.06-4.12,8.2-3.08,14.93-6.48,22.49-11.68,2.28,11.52-5.83,15.64.46,22.69,9.29,10.42,16.4,19.69,30.11,14.3,1.43-.56.38-4.97-.81-6.04-5.49-4.94-5.6,3.73-13.54-5.92-1.28-1.56-2.96-4.06-3.1-5.59Z"/>
</svg>