<?xml version="1.0" encoding="UTF-8"?>
<svg id="Capa_1" xmlns="http://www.w3.org/2000/svg" version="1.1" viewBox="0 0 300 200">
  <!-- Generator: Adobe Illustrator 30.3.0, SVG Export Plug-In . SVG Version: 2.1.3 Build 182)  -->
  <path d="M123,119.9l-.3-.5c0,0-.3-.2-.5-.3l.5-1.4c-.3-1.3,0-2.5.6-3.9h-.7c0,.1.5-2.1.5-2.1h-.5c-.9.1-1.6.7-2.1,1.4-.7.3-1.2.7-1.8,1.2-.9.2-.8,1.3-2.2,1.3l-2.5,1.6c-.3-.3-.3-.4-.4-.3l-.4.5-1,1c-.2-.2-.4-.4-.5-.3l-.3.5-1,.9-.5-.3c-.3-.2-.8,1.4-1.9,1.3l-1.6,1.2.2-.7c0-.1-.3,0-.4,0l-.3.3-1,.5-1.4.9-.6.3c0,0,0-.2,0-.3l.2-.5-1.5,1c-.5,0-.9.2-1.2.5l-.5-.4c-.1,0-.4.2-.6.4-.5.6-1,.6-1.8.8s-.7.3-1,.2l-1.4.9c-1.1.2-1.9.6-2.8,1.4,0,.5-.1.4-.3,0l-1.3,1.5c-.3.4-1,1.2-1.2,1.7-.5,1.9-.7,3.7-.8,5.6l-.2,3.9v2.8c0,0,3.7-.3,3.7-.3,2.8,1.9,5.3,4.9,3.2,7.5s-2.6,1.7-4.3,2-3.3.3-5.1,0l-3-.5c-1.6-.2-2.9-1.1-3.5-2.7s-.8-1.9-.9-2.8l-.5-6.1-.2-6.4v-3.6c.1,0,.5-5.3.5-5.3l.6-5.1c.2-1.5,1-2.4,2.2-3.1l1.8-1.2c1.1-.8,2-.8,3.1-2,.5-.3,1.2-.6,1.7-1.1h-1.2c0,.1,3.2-1.8,3.2-1.8-.1-.3-.4-.7-.2-.8l.6-.4c0,0,.5-.2.4-.3l-.4-.2,1.4-.8-.3-.4,1.2-1.3c-.3-.3-.3-.4-.3-.3.6-.4,1.1-.7,1.3-1l.8-1.2c.2-.2.4-.7.5-.9.4-.4,1-.9,1.3-1.3l-.8-.3c0,0,.2-.2.2-.2l.4-.2c0,0,0-.4,0-.3v-.6c-.1,0,1.7-.8,1.7-.8v-.4c0,0-.8-.2-.8-.2l.9-.8c0,0,0-.5,0-.5l-.5.2s0-.1,0-.2l.5-.6c0,0-.2-.3-.3-.4l-.3-.3s.3-.2.3-.2l.7-.8-1.4-.3c-.3.1,0,0,.4-.2.9-.7.5-1.2.7-1.5l.3-.5c0-.1,0-.4,0-.4h-.8c0,0,.9-1,.9-1l-.3-.6c-.2-.4,1.4-1.1.5-2.3l.9-1.2-1.1.5.8-1.3v-1.7s-1.6,3.2-1.6,3.2c0-.7-.2-.8-.4-.4l-.6,1.6c-.9.7-1.1,1.7-1.5,3l-.2-.7c0-.4-.1-.4-.2,0l-.3,1.6h-.6s-.9,2.2-.9,2.2c-.6.4-.6,1-.8,1.8,0,.3,0,.5-.4,0,0-.1-.6.4-.6.7l-.5,2.1-.3-.5-1.6,3.7-.2-.4c0,0,0-.4,0-.4l-.2.5-.7,1.8c0,.5-.2.7-.4,0l-.7,1.9-.3.7c0,.1-.5,0-.6,0l-.9,2-.2-.8-1.4,3.3-.3-.8-1.3,2.5-.3-.4-.9,1.5c-.3-.3-.4-.5-.3-.3l-1.5,2.9c-.5.1-1.4.6-1.7,1l-1.4,2.3c-.7.1-1.1.5-1.3,1l-.2-.3c0,0-.1.1-.2.2l-1.9,2.6-1.3,1.5v-1.1c0,0-1.3,1.8-1.3,1.8,0,0-.2.3-.2.3l-.2-.5-.9,1.2c0,.1-.1-.1-.4-.4l-2.3,2.9c-.2-.2-.4-.4-.5-.3l-.5.5-.5.5c0,0-.2,0-.5-.2l-.9.9c-.7.4-1.3.8-1.9,1.4l-.4-.2c-.1,0-.4.3-.5.3l-2.4,2.1v-.8c.2,0-.1,0-.2,0l-2.5,1.8c-.7.5-.7-.1-1.9.8s-1.6,1-2.3.9c-.2-.2-.3-.4-.4-.4l-.3.3c-.3.3-.9.7-1.3.9l-2.4,1,.2-.4.5-.4c0,0,0-.1,0-.2l-1.6.9-2.6.7c-.3.2-.5.2-.2-.1l.4-.5c0,0-.3,0-.4,0l-1.5.5-1.2.4-1.6.5c0,0-.4.1-.4,0v-.3s-2.2.3-2.2.3l-1.4.2c-.3.2,0,0,.4-.3.3-.1.4-.3,0-.2-2.2.7-4,0-6.4.4l.9-.4c.3-.1.8-.3.3-.1h-2.9c0,0-2.9-.3-2.9-.3l-2.5-.5.3-.2s0,0-.1,0l-1.7-.7-3.1-.9,1.1-.2-1.8-.8c-.3-1-2.2-.6-4.2-1.8l1.4-.3-3.2-1.2c-.3-.2-.1-.3.4-.4l-.9-.6-1.5-1,.4-.3-1.1-.9c-.2-.3-.6-.7-1-.9l-.5-.3c0,0-.1,0,.3-.4h-.2c0-.1-1.4-1.3-1.4-1.3h.9s-1.6-1.5-1.6-1.5c0,0-.3-.3-.2-.4l.4-.4-1.6-2.1-.2-.5c0,0,.2,0,.3,0l.4.2c0,0,.4.1.3,0l-.2-.5-1.4-2.8c0-.5,0-1.2-.1-1.5l-.2-.3c0,0-.3-.4-.2-.4s.2,0,.5,0L0,114.3c.1,0,.6-.3.6-.5l.4-2.1.6-1.7c0,0,.1.1.3.4-.2.7,0,0,0-.3,0-.1.2-.4.2-.4h.6s.6-.7.6-.7c.1-.1.6,0,.8,0h.3s0-.3,0-.3c0,0,.1,0,.2,0l.4.3c.3.2,1.1,0,1.6-.3l2.3,2.2h.9c0-.1.7.8.7.8.8.6,1.1,1.2,1.5,2l.9,1.8.2.4c.1.3,0,0,.3-.4l1.4,3c0-.9.4-.7.4-.2l1.6,2.5.2-.8,1.1,1.9.9.5,1.6,1.4c.1,0,.6,0,.7-.1.7.7,1.8,1.6,2.7,1.7s1.3.4,2.1.8c0,0,.1-.4.2-.4,1.8,1.1,2.9.5,4.5,1.1l.2-.4c0,0,.5.4.6.5h1.4c0,.1,2.5-.2,2.5-.2.2.2,0,0-.4-.3,0,0,0-.2,0-.2h.5c.6.2,1.4.3,2,.2h.5c0-.1.4-.3.4-.3,0,0-.4-.1-.6-.2-.4,0-.4-.2,0-.2h3.2c0,0,.5-.2.5-.2h.5c0-.1-.1-.4-.2-.4l-.3-.2,2.3-.5,1.1-.5c.3-.1,1.1,0,1.3-.2l1.3-.5v-.2s-1.4,0-1.4,0l2.2-.6,2.3-.7c-.5-1,.6-.2,1.3-1.4l3.7-1.6c.4,0-.1-.1-.7-.3l1.9-.7h-.7c0,0,0-.2.1-.3l1.7-.8,2.1-1.4-1.2.2,3.6-2.3v-.3c.1,0-.6,0-.6,0l2.4-2.3.3-.2c.2-.6.4-.7.9-1.1l2.7-2.7c.6-.6.9-1.4,1.3-2.1l.8-1c.9-1.2,1.7-2.3,2.6-3.5l1.2-1.8c0-.1-.3-.4-.2-.3s.5-.2.5-.2l.3-1c1.3-1.2,2-2.9,2.9-4.4s.6-1,.8-1.7l.9-1.3,1.5-2c.3-.4.2-.9.5-1.4l1.4-2.2c.5-.7.4-1.3,1-1.8s.4-1.1.6-1.4l1.1-2.2,1.6-2.2-.4-.4s0-.2.1-.3l2.3-2.6c-.1-.1-.3-.3-.3-.3s.1-.1.2-.2l2-2.4,1.7-2.4.5-.8c.7-.6,1.7-1.1,1.6-2.1s1.9-1.1,2.5-2.1c.3-.4.6-.6,1.2-1.1h-1.1s1.9-1,1.9-1c.1-.5.4-.8.8-1l1.7-1.1,2.1-1.2c.1,0,.2-.3.2-.6l1.7-.9,2-1c.5.3.3.2-.2-.1l2.6-.8,1.5-.7c.1,0,.4-.3.5-.4l3.3-1,4.1-1.3,1.9-.7,1.4-.4,4.1-1.1c2-.5,4.2-.9,6.3-1l2.8-.2h2.7s2.5,0,2.5,0l2.5.2,2.8.3c0,0,.4.1.5.1s0-.2,0-.3l1.4.3,4.9.5v-.3c0,0,.3-.1.4-.1l2.1.2,2.1.2h2.1c0,0,1.8.1,1.8.1l4.1.4h2c0,.1,2.5.6,2.5.6h1.3s2.2.3,2.2.3l1.9.3,3.6.6,2.3.4,1.9.3,2.4.7,1.6.4c.8.2,1.3.3,2.1.8,0,0,.4-.4.6-.3l.7.4c.9.5,2.5.2,5.2,1.4l1.4.6v-.5c0,0,.1,0,.2,0l.4.3,2.9,1.1c1.1.4,2.3.4,2.2.5l.5-.2c1,.7,2.2.8,3.4,1l1.8.3,1.9.4c1.5.3,3.9.4,5.2.1l2.9-.6c0-.1.4-.4.6-.4l2-.4c.6-.1,1.4,0,1.7-.5l4.6-.5c1,0,1.8.2,2.6.6,0-.1,0-.5,0-.5s.4.2.4.2c.6.4,1.2.6,1.9.3.5.9,1.4.4,2,.5,2.3.5,4.4.6,6.7.3s1.6,0,2.3-.2l3.9-.9,2.1-.6,1.5-.3,2.7-.7c1.8-.5,3.5-1.3,5.3-1.7l3.1-.6,1.9-.4,2.9-.9c1.4.4,2.7-.1,3.7-1.2,1.9-2,5-1.1,6.4.9,1.4.1,2.4.3,3.7.7l3.7-2.6c1.1-1,3.5,2,2.9,5.5.7.3,1.3.7,1.8,1.2l2.1,2c0,0,.2.2.2.3,0,0,.1-.3.2-.4,1.2,2.3,4.5,4.3,5,7.2s.6,4.5,1.8,6.5,1.6,3.1,1.9,4.7-1.1,3.3-2.5,4.1c-.7,1.2-1.6,1.9-3,2.3-1.6,1.8-4.2,3.2-6.6,2.3l-6.2-2.1c-1.2-.4-2.4-.8-3.7-.9l-6-.3-2.7.2c-2.1.2-2,1.1-2.4.5l-1.8,1c-1.5.8-1.5,1.6-1.6,1.4l-.2-.3-.8.8c-.8.8-1.7,1.5-2.9,1.8l-.8,1.4-.3-.4c-.5.6-1,1-1.7,1.3l-.5,1-.2-.4c0,0-.2.2-.2.2l-1.2,1.3c-.5.2-1,.6-1.3,1.1v-.8c-.1,0-.5.6-.5.6l-.3.2-.6.9c-.1.2-.5.2-.9,0l-1.2,1.5c-1.1.3-1.9,1.1-2.1,2.6l-.2-.6c-.4.8-.7,1-1.3,1.6-1,1-1.4,3.1-2.2,2.8l-.7,2-.3-1-.3.8h-.4c0,0,0,.4,0,.5-.5,0-1,.3-1.4.8-.2.3-.6.6-.9.7l-2,.7v.7c0,.1-.6.2-.7.3l-1.6,1.6c-.1.1-.8.3-.8.5v.6c-.7.3-.8.4-1.1.8l-1.5,1.8c-.3.4-.4.8-.4,1.4,0,0-.4,0-.4.2v.7c-.2,0-.4.1-.4.3v.6c-.2.4-.3.9-.3,1.3v.7c0,.1-.1.1-.4.1v3.5s.2,5.1.2,5.1v2.3c0,0,.2,3.4.2,3.4l.3,4.9c.2,3.8.8,5.3,3,8.1s3.4-2.1,6.5.8c1.4.4,2.3,1.2,3.1,2.4.4.6.6,1.2.7,1.8.5,2.8-2.8,4.5-5.6,4.7h-2.4c-2.3.3-4.4.3-6.6-.1s-4,.1-3.9-.7v-.7c-1-1-1.4-2.3-2-3.7l-1.8-4.4-1.2.4c-1.5-2-.4-4.4-1.5-5.6l-.7-3.6c-.8,1.7-1.4,3.5-2.6,4.9s-1.7,1.9-2.1,3.1-1.2,2.1-2.2,3c-2.4,2.1-2.8,3.1-6.6,2.7s-2.3-.8-2.9-2,0-3,.3-4.5.4-1.8,1.2-2.5,1.3-1.4,1.8-2.3l1-1.9,1.4-1.8c.4-.5.5-.9.6-1.5l.5-2.9c-.1,0-.3,0-.3-.1v-.5c0-.4-.4-1.1-.5-1.6-.3-2.1-1-1.9-1.2-2.8l-.3-1.5-.7.6v-1.7c-.3,0-.4,0-.4-.1v-.6c0,0-1.1-3.9-1.1-3.9-.8,0-.5-.3-.1-.5l-.7-1.8-.2-.5c0-.1.2-.3.2-.3l-.6-.3c0,0,.3-.2.3-.3l-.4-1.3c-.3-.8-.2-2-.5-2.6-.8-.6-1.6-.4-2.4-.5s-.9-.2-1.5-.1h-.6c-.1.1,0-.3,0-.3h.5c0,0-.3-.1-.3-.2s0-.2,0-.3l-2.8.4,1.1-.7h-3.5c0,0-.3-.7-.3-.7,0-.1-.9.3-.9.1v-.3c-.7,0-1.2,0-1.8-.2l-1.4.2c-.5-.6-1.5,0-2.2.1l.8-.8c-.6,0-1,.2-1.2,0h-3.2s-2.3-.2-2.3-.2c-.7,0-1.7.4-2.6.6l.8-.7-1.4.2-2.1.3.6-.7-2.9.8.5-.7c-.2,0-.6-.2-.5-.3l.4-.7-1.8.8c-.2-.1-.4-.4-.5-.3l-.5.2c-.3-.1-.8-.3-1-.2l-1.1.6.5-1-2.1.9-.4.2c0,0-.2-.2-.3-.3l-1.4,1.3.2-1.2-.7.7-.8-.9-.3.9c0,.1-.2,0-.4-.3l-.3.3c-.2.2-.8-2.6-2.5-2.1l-1.6-1.2.7,1.6-1.3-1.4-.3.8-.9-1.1v1.1c.1,0-.6-1.2-.6-1.2,0,.1-.2.4-.3.3l-.3-.3c0,0-.3-.2-.3-.1l-.2.2c-.1,0-.5-.3-.6-.3l-.4.3-1.1-1.3c.2.7-.1,1.1-.4.4l-.8,4.2-.4-.9-.4,2.2-.2-.9c-.2,1-.3,1.9-.8,2.5-1.4,1.7-.8,3.1-1.8,3.7s-.6,1.1-.7,1.8c-1.1.8-1.2,1.8-1.4,3.4l-.3-1.1-.6,1.6-.7.9c-.5.7-.9,1.4-1.3,2.1l-.7,1.5c0,0-.2.3-.2.3l-.3-.5-.7,1.9c-.3,0-.8.4-.9.7l-.7,2.1c0-.5-.3-.6-.4-.2l-.8,1.7-.5,1.2c-1.1,2.5-.1,5.4,1.9,7.4l1.5,1.5,1.8,1.8,2.2,2.1c2,1.9,2.3.6,6,0s1.3.3,1.9.6c1.8.9,3.2,1.9,3.8,3.8s0,2.9-1.2,4-2.5,1.5-4.3,1.5-3.1.5-4.7.4l-2.6-.2-3.3-.6c-1.2-.2-2.3-1.3-3.3-2.1l-4.2-3.7c-1.5-1.3-2.8-2.8-4.2-4.2l-2.7-2.5c-.8-.8-1.6-1.6-2.2-2.5l-1.6-2.3-2.5-4c.1-2.2,1.2-4.1,1.8-6.2l.9-2.9c.2-.5.1-1.1.3-1.6s.2-.7,0-.8Z"/>
</svg>